solid 2D Plot structure - barre de guidage X axes-2
   facet normal 2.974347e-016 5.807914e-002 -9.983120e-001
      outer loop
         vertex 6.072764e-001 4.700407e+001 1.727406e+002
         vertex 1.686073e+002 4.657863e+001 1.727034e+002
         vertex 6.072764e-001 4.657863e+001 1.727034e+002
      endloop
   endfacet
   facet normal 1.459049e-016 -5.807914e-002 -9.983120e-001
      outer loop
         vertex 6.072764e-001 4.657863e+001 1.727034e+002
         vertex 1.686073e+002 4.657863e+001 1.727034e+002
         vertex 1.686073e+002 4.615319e+001 1.727406e+002
      endloop
   endfacet
   facet normal 6.901165e-017 -1.161583e-001 -9.932307e-001
      outer loop
         vertex 6.072764e-001 4.657863e+001 1.727034e+002
         vertex 1.686073e+002 4.615319e+001 1.727406e+002
         vertex 6.072764e-001 4.615319e+001 1.727406e+002
      endloop
   endfacet
   facet normal -8.469495e-017 -2.305519e-001 -9.730600e-001
      outer loop
         vertex 6.072764e-001 4.615319e+001 1.727406e+002
         vertex 1.686073e+002 4.615319e+001 1.727406e+002
         vertex 1.686073e+002 4.574068e+001 1.728512e+002
      endloop
   endfacet
   facet normal -1.615083e-016 -2.868663e-001 -9.579706e-001
      outer loop
         vertex 6.072764e-001 4.615319e+001 1.727406e+002
         vertex 1.686073e+002 4.574068e+001 1.728512e+002
         vertex 6.072764e-001 4.574068e+001 1.728512e+002
      endloop
   endfacet
   facet normal -3.127213e-016 -3.960194e-001 -9.182422e-001
      outer loop
         vertex 6.072764e-001 4.574068e+001 1.728512e+002
         vertex 1.686073e+002 4.574068e+001 1.728512e+002
         vertex 1.686073e+002 4.535363e+001 1.730316e+002
      endloop
   endfacet
   facet normal -3.871209e-016 -4.488580e-001 -8.936031e-001
      outer loop
         vertex 6.072764e-001 4.574068e+001 1.728512e+002
         vertex 1.686073e+002 4.535363e+001 1.730316e+002
         vertex 6.072764e-001 4.535363e+001 1.730316e+002
      endloop
   endfacet
   facet normal -5.312458e-016 -5.494540e-001 -8.355240e-001
      outer loop
         vertex 6.072764e-001 4.535363e+001 1.730316e+002
         vertex 1.686073e+002 4.535363e+001 1.730316e+002
         vertex 1.686073e+002 4.500380e+001 1.732766e+002
      endloop
   endfacet
   facet normal -6.009710e-016 -5.972114e-001 -8.020839e-001
      outer loop
         vertex 6.072764e-001 4.535363e+001 1.730316e+002
         vertex 1.686073e+002 4.500380e+001 1.732766e+002
         vertex 6.072764e-001 4.500380e+001 1.732766e+002
      endloop
   endfacet
   facet normal -7.336286e-016 -6.861938e-001 -7.274188e-001
      outer loop
         vertex 6.072764e-001 4.500380e+001 1.732766e+002
         vertex 1.686073e+002 4.500380e+001 1.732766e+002
         vertex 1.686073e+002 4.470182e+001 1.735786e+002
      endloop
   endfacet
   facet normal -7.965610e-016 -7.274188e-001 -6.861938e-001
      outer loop
         vertex 6.072764e-001 4.500380e+001 1.732766e+002
         vertex 1.686073e+002 4.470182e+001 1.735786e+002
         vertex 6.072764e-001 4.470182e+001 1.735786e+002
      endloop
   endfacet
   facet normal -9.137205e-016 -8.020839e-001 -5.972114e-001
      outer loop
         vertex 6.072764e-001 4.470182e+001 1.735786e+002
         vertex 1.686073e+002 4.470182e+001 1.735786e+002
         vertex 1.686073e+002 4.445687e+001 1.739284e+002
      endloop
   endfacet
   facet normal -9.679477e-016 -8.355240e-001 -5.494540e-001
      outer loop
         vertex 6.072764e-001 4.470182e+001 1.735786e+002
         vertex 1.686073e+002 4.445687e+001 1.739284e+002
         vertex 6.072764e-001 4.445687e+001 1.739284e+002
      endloop
   endfacet
   facet normal -1.066050e-015 -8.936031e-001 -4.488580e-001
      outer loop
         vertex 6.072764e-001 4.445687e+001 1.739284e+002
         vertex 1.686073e+002 4.445687e+001 1.739284e+002
         vertex 1.686073e+002 4.427638e+001 1.743154e+002
      endloop
   endfacet
   facet normal -1.109924e-015 -9.182422e-001 -3.960194e-001
      outer loop
         vertex 6.072764e-001 4.445687e+001 1.739284e+002
         vertex 1.686073e+002 4.427638e+001 1.743154e+002
         vertex 6.072764e-001 4.427638e+001 1.743154e+002
      endloop
   endfacet
   facet normal -1.185987e-015 -9.579706e-001 -2.868663e-001
      outer loop
         vertex 6.072764e-001 4.427638e+001 1.743154e+002
         vertex 1.686073e+002 4.427638e+001 1.743154e+002
         vertex 1.686073e+002 4.416585e+001 1.747280e+002
      endloop
   endfacet
   facet normal -1.218176e-015 -9.730600e-001 -2.305519e-001
      outer loop
         vertex 6.072764e-001 4.427638e+001 1.743154e+002
         vertex 1.686073e+002 4.416585e+001 1.747280e+002
         vertex 6.072764e-001 4.416585e+001 1.747280e+002
      endloop
   endfacet
   facet normal -1.269889e-015 -9.932307e-001 -1.161583e-001
      outer loop
         vertex 6.072764e-001 4.416585e+001 1.747280e+002
         vertex 1.686073e+002 4.416585e+001 1.747280e+002
         vertex 1.686073e+002 4.412863e+001 1.751534e+002
      endloop
   endfacet
   facet normal -1.289414e-015 -9.983120e-001 -5.807914e-002
      outer loop
         vertex 6.072764e-001 4.416585e+001 1.747280e+002
         vertex 1.686073e+002 4.412863e+001 1.751534e+002
         vertex 6.072764e-001 4.412863e+001 1.751534e+002
      endloop
   endfacet
   facet normal -1.315206e-015 -9.983120e-001 5.807914e-002
      outer loop
         vertex 6.072764e-001 4.412863e+001 1.751534e+002
         vertex 1.686073e+002 4.412863e+001 1.751534e+002
         vertex 1.686073e+002 4.416585e+001 1.755788e+002
      endloop
   endfacet
   facet normal -1.321474e-015 -9.932307e-001 1.161583e-001
      outer loop
         vertex 6.072764e-001 4.412863e+001 1.751534e+002
         vertex 1.686073e+002 4.416585e+001 1.755788e+002
         vertex 6.072764e-001 4.416585e+001 1.755788e+002
      endloop
   endfacet
   facet normal -1.320561e-015 -9.730600e-001 2.305519e-001
      outer loop
         vertex 6.072764e-001 4.416585e+001 1.755788e+002
         vertex 1.686073e+002 4.416585e+001 1.755788e+002
         vertex 1.686073e+002 4.427638e+001 1.759913e+002
      endloop
   endfacet
   facet normal -1.313381e-015 -9.579706e-001 2.868663e-001
      outer loop
         vertex 6.072764e-001 4.416585e+001 1.755788e+002
         vertex 1.686073e+002 4.427638e+001 1.759913e+002
         vertex 6.072764e-001 4.427638e+001 1.759913e+002
      endloop
   endfacet
   facet normal -1.285792e-015 -9.182422e-001 3.960194e-001
      outer loop
         vertex 6.072764e-001 4.427638e+001 1.759913e+002
         vertex 1.686073e+002 4.427638e+001 1.759913e+002
         vertex 1.686073e+002 4.445687e+001 1.763784e+002
      endloop
   endfacet
   facet normal -1.265383e-015 -8.936031e-001 4.488580e-001
      outer loop
         vertex 6.072764e-001 4.427638e+001 1.759913e+002
         vertex 1.686073e+002 4.445687e+001 1.763784e+002
         vertex 6.072764e-001 4.445687e+001 1.763784e+002
      endloop
   endfacet
   facet normal -1.211954e-015 -8.355240e-001 5.494540e-001
      outer loop
         vertex 6.072764e-001 4.445687e+001 1.763784e+002
         vertex 1.686073e+002 4.445687e+001 1.763784e+002
         vertex 1.686073e+002 4.470182e+001 1.767282e+002
      endloop
   endfacet
   facet normal -1.178936e-015 -8.020839e-001 5.972114e-001
      outer loop
         vertex 6.072764e-001 4.445687e+001 1.763784e+002
         vertex 1.686073e+002 4.470182e+001 1.767282e+002
         vertex 6.072764e-001 4.470182e+001 1.767282e+002
      endloop
   endfacet
   facet normal -1.101292e-015 -7.274188e-001 6.861938e-001
      outer loop
         vertex 6.072764e-001 4.470182e+001 1.767282e+002
         vertex 1.686073e+002 4.470182e+001 1.767282e+002
         vertex 1.686073e+002 4.500380e+001 1.770302e+002
      endloop
   endfacet
   facet normal -1.056667e-015 -6.861938e-001 7.274188e-001
      outer loop
         vertex 6.072764e-001 4.470182e+001 1.767282e+002
         vertex 1.686073e+002 4.500380e+001 1.770302e+002
         vertex 6.072764e-001 4.500380e+001 1.770302e+002
      endloop
   endfacet
   facet normal -9.571679e-016 -5.972114e-001 8.020839e-001
      outer loop
         vertex 6.072764e-001 4.500380e+001 1.770302e+002
         vertex 1.686073e+002 4.500380e+001 1.770302e+002
         vertex 1.686073e+002 4.535363e+001 1.772751e+002
      endloop
   endfacet
   facet normal -9.022930e-016 -5.494540e-001 8.355240e-001
      outer loop
         vertex 6.072764e-001 4.500380e+001 1.770302e+002
         vertex 1.686073e+002 4.535363e+001 1.772751e+002
         vertex 6.072764e-001 4.535363e+001 1.772751e+002
      endloop
   endfacet
   facet normal -7.839604e-016 -4.488580e-001 8.936031e-001
      outer loop
         vertex 6.072764e-001 4.535363e+001 1.772751e+002
         vertex 1.686073e+002 4.535363e+001 1.772751e+002
         vertex 1.686073e+002 4.574068e+001 1.774556e+002
      endloop
   endfacet
   facet normal -7.205028e-016 -3.960194e-001 9.182422e-001
      outer loop
         vertex 6.072764e-001 4.535363e+001 1.772751e+002
         vertex 1.686073e+002 4.574068e+001 1.774556e+002
         vertex 6.072764e-001 4.574068e+001 1.774556e+002
      endloop
   endfacet
   facet normal -5.869327e-016 -2.868663e-001 9.579706e-001
      outer loop
         vertex 6.072764e-001 4.574068e+001 1.774556e+002
         vertex 1.686073e+002 4.574068e+001 1.774556e+002
         vertex 1.686073e+002 4.615319e+001 1.775662e+002
      endloop
   endfacet
   facet normal -5.168204e-016 -2.305519e-001 9.730600e-001
      outer loop
         vertex 6.072764e-001 4.574068e+001 1.774556e+002
         vertex 1.686073e+002 4.615319e+001 1.775662e+002
         vertex 6.072764e-001 4.615319e+001 1.775662e+002
      endloop
   endfacet
   facet normal -3.720714e-016 -1.161583e-001 9.932307e-001
      outer loop
         vertex 6.072764e-001 4.615319e+001 1.775662e+002
         vertex 1.686073e+002 4.615319e+001 1.775662e+002
         vertex 1.686073e+002 4.657863e+001 1.776034e+002
      endloop
   endfacet
   facet normal -2.974347e-016 -5.807914e-002 9.983120e-001
      outer loop
         vertex 6.072764e-001 4.615319e+001 1.775662e+002
         vertex 1.686073e+002 4.657863e+001 1.776034e+002
         vertex 6.072764e-001 4.657863e+001 1.776034e+002
      endloop
   endfacet
   facet normal -1.459049e-016 5.807914e-002 9.983120e-001
      outer loop
         vertex 6.072764e-001 4.657863e+001 1.776034e+002
         vertex 1.686073e+002 4.657863e+001 1.776034e+002
         vertex 1.686073e+002 4.700407e+001 1.775662e+002
      endloop
   endfacet
   facet normal -6.901165e-017 1.161583e-001 9.932307e-001
      outer loop
         vertex 6.072764e-001 4.657863e+001 1.776034e+002
         vertex 1.686073e+002 4.700407e+001 1.775662e+002
         vertex 6.072764e-001 4.700407e+001 1.775662e+002
      endloop
   endfacet
   facet normal 8.469495e-017 2.305519e-001 9.730600e-001
      outer loop
         vertex 6.072764e-001 4.700407e+001 1.775662e+002
         vertex 1.686073e+002 4.700407e+001 1.775662e+002
         vertex 1.686073e+002 4.741658e+001 1.774556e+002
      endloop
   endfacet
   facet normal 1.615083e-016 2.868663e-001 9.579706e-001
      outer loop
         vertex 6.072764e-001 4.700407e+001 1.775662e+002
         vertex 1.686073e+002 4.741658e+001 1.774556e+002
         vertex 6.072764e-001 4.741658e+001 1.774556e+002
      endloop
   endfacet
   facet normal 3.127213e-016 3.960194e-001 9.182422e-001
      outer loop
         vertex 6.072764e-001 4.741658e+001 1.774556e+002
         vertex 1.686073e+002 4.741658e+001 1.774556e+002
         vertex 1.686073e+002 4.780363e+001 1.772751e+002
      endloop
   endfacet
   facet normal 3.871209e-016 4.488580e-001 8.936031e-001
      outer loop
         vertex 6.072764e-001 4.741658e+001 1.774556e+002
         vertex 1.686073e+002 4.780363e+001 1.772751e+002
         vertex 6.072764e-001 4.780363e+001 1.772751e+002
      endloop
   endfacet
   facet normal 5.312458e-016 5.494540e-001 8.355240e-001
      outer loop
         vertex 6.072764e-001 4.780363e+001 1.772751e+002
         vertex 1.686073e+002 4.780363e+001 1.772751e+002
         vertex 1.686073e+002 4.815346e+001 1.770302e+002
      endloop
   endfacet
   facet normal 6.009710e-016 5.972114e-001 8.020839e-001
      outer loop
         vertex 6.072764e-001 4.780363e+001 1.772751e+002
         vertex 1.686073e+002 4.815346e+001 1.770302e+002
         vertex 6.072764e-001 4.815346e+001 1.770302e+002
      endloop
   endfacet
   facet normal 7.336286e-016 6.861938e-001 7.274188e-001
      outer loop
         vertex 6.072764e-001 4.815346e+001 1.770302e+002
         vertex 1.686073e+002 4.815346e+001 1.770302e+002
         vertex 1.686073e+002 4.845544e+001 1.767282e+002
      endloop
   endfacet
   facet normal 7.965610e-016 7.274188e-001 6.861938e-001
      outer loop
         vertex 6.072764e-001 4.815346e+001 1.770302e+002
         vertex 1.686073e+002 4.845544e+001 1.767282e+002
         vertex 6.072764e-001 4.845544e+001 1.767282e+002
      endloop
   endfacet
   facet normal 9.137205e-016 8.020839e-001 5.972114e-001
      outer loop
         vertex 6.072764e-001 4.845544e+001 1.767282e+002
         vertex 1.686073e+002 4.845544e+001 1.767282e+002
         vertex 1.686073e+002 4.870039e+001 1.763784e+002
      endloop
   endfacet
   facet normal 9.679477e-016 8.355240e-001 5.494540e-001
      outer loop
         vertex 6.072764e-001 4.845544e+001 1.767282e+002
         vertex 1.686073e+002 4.870039e+001 1.763784e+002
         vertex 6.072764e-001 4.870039e+001 1.763784e+002
      endloop
   endfacet
   facet normal 1.066050e-015 8.936031e-001 4.488580e-001
      outer loop
         vertex 6.072764e-001 4.870039e+001 1.763784e+002
         vertex 1.686073e+002 4.870039e+001 1.763784e+002
         vertex 1.686073e+002 4.888087e+001 1.759913e+002
      endloop
   endfacet
   facet normal 1.109924e-015 9.182422e-001 3.960194e-001
      outer loop
         vertex 6.072764e-001 4.870039e+001 1.763784e+002
         vertex 1.686073e+002 4.888087e+001 1.759913e+002
         vertex 6.072764e-001 4.888087e+001 1.759913e+002
      endloop
   endfacet
   facet normal 1.185987e-015 9.579706e-001 2.868663e-001
      outer loop
         vertex 6.072764e-001 4.888087e+001 1.759913e+002
         vertex 1.686073e+002 4.888087e+001 1.759913e+002
         vertex 1.686073e+002 4.899141e+001 1.755788e+002
      endloop
   endfacet
   facet normal 1.218176e-015 9.730600e-001 2.305519e-001
      outer loop
         vertex 6.072764e-001 4.888087e+001 1.759913e+002
         vertex 1.686073e+002 4.899141e+001 1.755788e+002
         vertex 6.072764e-001 4.899141e+001 1.755788e+002
      endloop
   endfacet
   facet normal 1.269889e-015 9.932307e-001 1.161583e-001
      outer loop
         vertex 6.072764e-001 4.899141e+001 1.755788e+002
         vertex 1.686073e+002 4.899141e+001 1.755788e+002
         vertex 1.686073e+002 4.902863e+001 1.751534e+002
      endloop
   endfacet
   facet normal 1.289414e-015 9.983120e-001 5.807914e-002
      outer loop
         vertex 6.072764e-001 4.899141e+001 1.755788e+002
         vertex 1.686073e+002 4.902863e+001 1.751534e+002
         vertex 6.072764e-001 4.902863e+001 1.751534e+002
      endloop
   endfacet
   facet normal 1.315206e-015 9.983120e-001 -5.807914e-002
      outer loop
         vertex 6.072764e-001 4.902863e+001 1.751534e+002
         vertex 1.686073e+002 4.902863e+001 1.751534e+002
         vertex 1.686073e+002 4.899141e+001 1.747280e+002
      endloop
   endfacet
   facet normal 1.321474e-015 9.932307e-001 -1.161583e-001
      outer loop
         vertex 6.072764e-001 4.902863e+001 1.751534e+002
         vertex 1.686073e+002 4.899141e+001 1.747280e+002
         vertex 6.072764e-001 4.899141e+001 1.747280e+002
      endloop
   endfacet
   facet normal 1.320561e-015 9.730600e-001 -2.305519e-001
      outer loop
         vertex 6.072764e-001 4.899141e+001 1.747280e+002
         vertex 1.686073e+002 4.899141e+001 1.747280e+002
         vertex 1.686073e+002 4.888087e+001 1.743154e+002
      endloop
   endfacet
   facet normal 1.313381e-015 9.579706e-001 -2.868663e-001
      outer loop
         vertex 6.072764e-001 4.899141e+001 1.747280e+002
         vertex 1.686073e+002 4.888087e+001 1.743154e+002
         vertex 6.072764e-001 4.888087e+001 1.743154e+002
      endloop
   endfacet
   facet normal 1.285792e-015 9.182422e-001 -3.960194e-001
      outer loop
         vertex 6.072764e-001 4.888087e+001 1.743154e+002
         vertex 1.686073e+002 4.888087e+001 1.743154e+002
         vertex 1.686073e+002 4.870039e+001 1.739284e+002
      endloop
   endfacet
   facet normal 1.265383e-015 8.936031e-001 -4.488580e-001
      outer loop
         vertex 6.072764e-001 4.888087e+001 1.743154e+002
         vertex 1.686073e+002 4.870039e+001 1.739284e+002
         vertex 6.072764e-001 4.870039e+001 1.739284e+002
      endloop
   endfacet
   facet normal 1.211954e-015 8.355240e-001 -5.494540e-001
      outer loop
         vertex 6.072764e-001 4.870039e+001 1.739284e+002
         vertex 1.686073e+002 4.870039e+001 1.739284e+002
         vertex 1.686073e+002 4.845544e+001 1.735786e+002
      endloop
   endfacet
   facet normal 1.178936e-015 8.020839e-001 -5.972114e-001
      outer loop
         vertex 6.072764e-001 4.870039e+001 1.739284e+002
         vertex 1.686073e+002 4.845544e+001 1.735786e+002
         vertex 6.072764e-001 4.845544e+001 1.735786e+002
      endloop
   endfacet
   facet normal 1.101292e-015 7.274188e-001 -6.861938e-001
      outer loop
         vertex 6.072764e-001 4.845544e+001 1.735786e+002
         vertex 1.686073e+002 4.845544e+001 1.735786e+002
         vertex 1.686073e+002 4.815346e+001 1.732766e+002
      endloop
   endfacet
   facet normal 1.056667e-015 6.861938e-001 -7.274188e-001
      outer loop
         vertex 6.072764e-001 4.845544e+001 1.735786e+002
         vertex 1.686073e+002 4.815346e+001 1.732766e+002
         vertex 6.072764e-001 4.815346e+001 1.732766e+002
      endloop
   endfacet
   facet normal 9.571679e-016 5.972114e-001 -8.020839e-001
      outer loop
         vertex 6.072764e-001 4.815346e+001 1.732766e+002
         vertex 1.686073e+002 4.815346e+001 1.732766e+002
         vertex 1.686073e+002 4.780363e+001 1.730316e+002
      endloop
   endfacet
   facet normal 9.022930e-016 5.494540e-001 -8.355240e-001
      outer loop
         vertex 6.072764e-001 4.815346e+001 1.732766e+002
         vertex 1.686073e+002 4.780363e+001 1.730316e+002
         vertex 6.072764e-001 4.780363e+001 1.730316e+002
      endloop
   endfacet
   facet normal 7.839604e-016 4.488580e-001 -8.936031e-001
      outer loop
         vertex 6.072764e-001 4.780363e+001 1.730316e+002
         vertex 1.686073e+002 4.780363e+001 1.730316e+002
         vertex 1.686073e+002 4.741658e+001 1.728512e+002
      endloop
   endfacet
   facet normal 7.205028e-016 3.960194e-001 -9.182422e-001
      outer loop
         vertex 6.072764e-001 4.780363e+001 1.730316e+002
         vertex 1.686073e+002 4.741658e+001 1.728512e+002
         vertex 6.072764e-001 4.741658e+001 1.728512e+002
      endloop
   endfacet
   facet normal 5.869327e-016 2.868663e-001 -9.579706e-001
      outer loop
         vertex 6.072764e-001 4.741658e+001 1.728512e+002
         vertex 1.686073e+002 4.741658e+001 1.728512e+002
         vertex 1.686073e+002 4.700407e+001 1.727406e+002
      endloop
   endfacet
   facet normal 5.168204e-016 2.305519e-001 -9.730600e-001
      outer loop
         vertex 6.072764e-001 4.741658e+001 1.728512e+002
         vertex 1.686073e+002 4.700407e+001 1.727406e+002
         vertex 6.072764e-001 4.700407e+001 1.727406e+002
      endloop
   endfacet
   facet normal 3.720714e-016 1.161583e-001 -9.932307e-001
      outer loop
         vertex 6.072764e-001 4.700407e+001 1.727406e+002
         vertex 1.686073e+002 4.700407e+001 1.727406e+002
         vertex 1.686073e+002 4.657863e+001 1.727034e+002
      endloop
   endfacet
   facet normal -1.000000e+000 1.304512e-015 -2.220446e-016
      outer loop
         vertex 6.072764e-001 4.780363e+001 1.772751e+002
         vertex 6.072764e-001 4.815346e+001 1.770302e+002
         vertex 6.072764e-001 4.574068e+001 1.728512e+002
      endloop
   endfacet
   facet normal -1.000000e+000 1.304512e-015 -2.220446e-016
      outer loop
         vertex 6.072764e-001 4.780363e+001 1.772751e+002
         vertex 6.072764e-001 4.574068e+001 1.728512e+002
         vertex 6.072764e-001 4.741658e+001 1.774556e+002
      endloop
   endfacet
   facet normal -1.000000e+000 1.304512e-015 -2.220446e-016
      outer loop
         vertex 6.072764e-001 4.741658e+001 1.774556e+002
         vertex 6.072764e-001 4.574068e+001 1.728512e+002
         vertex 6.072764e-001 4.535363e+001 1.730316e+002
      endloop
   endfacet
   facet normal -1.000000e+000 1.304512e-015 -2.220446e-016
      outer loop
         vertex 6.072764e-001 4.741658e+001 1.774556e+002
         vertex 6.072764e-001 4.535363e+001 1.730316e+002
         vertex 6.072764e-001 4.500380e+001 1.732766e+002
      endloop
   endfacet
   facet normal -1.000000e+000 1.304512e-015 -2.220446e-016
      outer loop
         vertex 6.072764e-001 4.500380e+001 1.732766e+002
         vertex 6.072764e-001 4.470182e+001 1.735786e+002
         vertex 6.072764e-001 4.741658e+001 1.774556e+002
      endloop
   endfacet
   facet normal -1.000000e+000 1.304512e-015 -2.220446e-016
      outer loop
         vertex 6.072764e-001 4.741658e+001 1.774556e+002
         vertex 6.072764e-001 4.470182e+001 1.735786e+002
         vertex 6.072764e-001 4.445687e+001 1.739284e+002
      endloop
   endfacet
   facet normal -1.000000e+000 1.304512e-015 -2.220446e-016
      outer loop
         vertex 6.072764e-001 4.741658e+001 1.774556e+002
         vertex 6.072764e-001 4.445687e+001 1.739284e+002
         vertex 6.072764e-001 4.427638e+001 1.743154e+002
      endloop
   endfacet
   facet normal -1.000000e+000 1.304512e-015 -2.220446e-016
      outer loop
         vertex 6.072764e-001 4.427638e+001 1.743154e+002
         vertex 6.072764e-001 4.416585e+001 1.747280e+002
         vertex 6.072764e-001 4.741658e+001 1.774556e+002
      endloop
   endfacet
   facet normal -1.000000e+000 1.304512e-015 -2.220446e-016
      outer loop
         vertex 6.072764e-001 4.741658e+001 1.774556e+002
         vertex 6.072764e-001 4.416585e+001 1.747280e+002
         vertex 6.072764e-001 4.412863e+001 1.751534e+002
      endloop
   endfacet
   facet normal -1.000000e+000 1.304512e-015 -2.220446e-016
      outer loop
         vertex 6.072764e-001 4.741658e+001 1.774556e+002
         vertex 6.072764e-001 4.412863e+001 1.751534e+002
         vertex 6.072764e-001 4.416585e+001 1.755788e+002
      endloop
   endfacet
   facet normal -1.000000e+000 1.304512e-015 -2.220446e-016
      outer loop
         vertex 6.072764e-001 4.416585e+001 1.755788e+002
         vertex 6.072764e-001 4.427638e+001 1.759913e+002
         vertex 6.072764e-001 4.741658e+001 1.774556e+002
      endloop
   endfacet
   facet normal -1.000000e+000 1.304512e-015 -2.220446e-016
      outer loop
         vertex 6.072764e-001 4.741658e+001 1.774556e+002
         vertex 6.072764e-001 4.427638e+001 1.759913e+002
         vertex 6.072764e-001 4.445687e+001 1.763784e+002
      endloop
   endfacet
   facet normal -1.000000e+000 1.304512e-015 -2.220446e-016
      outer loop
         vertex 6.072764e-001 4.741658e+001 1.774556e+002
         vertex 6.072764e-001 4.445687e+001 1.763784e+002
         vertex 6.072764e-001 4.470182e+001 1.767282e+002
      endloop
   endfacet
   facet normal -1.000000e+000 1.304512e-015 -2.220446e-016
      outer loop
         vertex 6.072764e-001 4.815346e+001 1.770302e+002
         vertex 6.072764e-001 4.845544e+001 1.767282e+002
         vertex 6.072764e-001 4.574068e+001 1.728512e+002
      endloop
   endfacet
   facet normal -1.000000e+000 1.304512e-015 -2.220446e-016
      outer loop
         vertex 6.072764e-001 4.574068e+001 1.728512e+002
         vertex 6.072764e-001 4.845544e+001 1.767282e+002
         vertex 6.072764e-001 4.870039e+001 1.763784e+002
      endloop
   endfacet
   facet normal -1.000000e+000 1.304512e-015 -2.220446e-016
      outer loop
         vertex 6.072764e-001 4.574068e+001 1.728512e+002
         vertex 6.072764e-001 4.870039e+001 1.763784e+002
         vertex 6.072764e-001 4.888087e+001 1.759913e+002
      endloop
   endfacet
   facet normal -1.000000e+000 1.304512e-015 -2.220446e-016
      outer loop
         vertex 6.072764e-001 4.888087e+001 1.759913e+002
         vertex 6.072764e-001 4.899141e+001 1.755788e+002
         vertex 6.072764e-001 4.574068e+001 1.728512e+002
      endloop
   endfacet
   facet normal -1.000000e+000 1.304512e-015 -2.220446e-016
      outer loop
         vertex 6.072764e-001 4.574068e+001 1.728512e+002
         vertex 6.072764e-001 4.899141e+001 1.755788e+002
         vertex 6.072764e-001 4.902863e+001 1.751534e+002
      endloop
   endfacet
   facet normal -1.000000e+000 1.304512e-015 -2.220446e-016
      outer loop
         vertex 6.072764e-001 4.574068e+001 1.728512e+002
         vertex 6.072764e-001 4.902863e+001 1.751534e+002
         vertex 6.072764e-001 4.899141e+001 1.747280e+002
      endloop
   endfacet
   facet normal -1.000000e+000 1.304512e-015 -2.220446e-016
      outer loop
         vertex 6.072764e-001 4.899141e+001 1.747280e+002
         vertex 6.072764e-001 4.888087e+001 1.743154e+002
         vertex 6.072764e-001 4.574068e+001 1.728512e+002
      endloop
   endfacet
   facet normal -1.000000e+000 1.304512e-015 -2.220446e-016
      outer loop
         vertex 6.072764e-001 4.574068e+001 1.728512e+002
         vertex 6.072764e-001 4.888087e+001 1.743154e+002
         vertex 6.072764e-001 4.870039e+001 1.739284e+002
      endloop
   endfacet
   facet normal -1.000000e+000 1.304512e-015 -2.220446e-016
      outer loop
         vertex 6.072764e-001 4.574068e+001 1.728512e+002
         vertex 6.072764e-001 4.870039e+001 1.739284e+002
         vertex 6.072764e-001 4.615319e+001 1.727406e+002
      endloop
   endfacet
   facet normal -1.000000e+000 1.304512e-015 -2.220446e-016
      outer loop
         vertex 6.072764e-001 4.470182e+001 1.767282e+002
         vertex 6.072764e-001 4.500380e+001 1.770302e+002
         vertex 6.072764e-001 4.741658e+001 1.774556e+002
      endloop
   endfacet
   facet normal -1.000000e+000 1.304512e-015 -2.220446e-016
      outer loop
         vertex 6.072764e-001 4.741658e+001 1.774556e+002
         vertex 6.072764e-001 4.500380e+001 1.770302e+002
         vertex 6.072764e-001 4.535363e+001 1.772751e+002
      endloop
   endfacet
   facet normal -1.000000e+000 1.304512e-015 -2.220446e-016
      outer loop
         vertex 6.072764e-001 4.741658e+001 1.774556e+002
         vertex 6.072764e-001 4.535363e+001 1.772751e+002
         vertex 6.072764e-001 4.574068e+001 1.774556e+002
      endloop
   endfacet
   facet normal -1.000000e+000 1.304512e-015 -2.220446e-016
      outer loop
         vertex 6.072764e-001 4.574068e+001 1.774556e+002
         vertex 6.072764e-001 4.615319e+001 1.775662e+002
         vertex 6.072764e-001 4.741658e+001 1.774556e+002
      endloop
   endfacet
   facet normal -1.000000e+000 1.304512e-015 -2.220446e-016
      outer loop
         vertex 6.072764e-001 4.741658e+001 1.774556e+002
         vertex 6.072764e-001 4.615319e+001 1.775662e+002
         vertex 6.072764e-001 4.657863e+001 1.776034e+002
      endloop
   endfacet
   facet normal -1.000000e+000 1.304512e-015 -2.220446e-016
      outer loop
         vertex 6.072764e-001 4.741658e+001 1.774556e+002
         vertex 6.072764e-001 4.657863e+001 1.776034e+002
         vertex 6.072764e-001 4.700407e+001 1.775662e+002
      endloop
   endfacet
   facet normal -1.000000e+000 1.304512e-015 -2.220446e-016
      outer loop
         vertex 6.072764e-001 4.615319e+001 1.727406e+002
         vertex 6.072764e-001 4.870039e+001 1.739284e+002
         vertex 6.072764e-001 4.657863e+001 1.727034e+002
      endloop
   endfacet
   facet normal -1.000000e+000 1.304512e-015 -2.220446e-016
      outer loop
         vertex 6.072764e-001 4.657863e+001 1.727034e+002
         vertex 6.072764e-001 4.870039e+001 1.739284e+002
         vertex 6.072764e-001 4.845544e+001 1.735786e+002
      endloop
   endfacet
   facet normal -1.000000e+000 1.304512e-015 -2.220446e-016
      outer loop
         vertex 6.072764e-001 4.657863e+001 1.727034e+002
         vertex 6.072764e-001 4.845544e+001 1.735786e+002
         vertex 6.072764e-001 4.815346e+001 1.732766e+002
      endloop
   endfacet
   facet normal -1.000000e+000 1.304512e-015 -2.220446e-016
      outer loop
         vertex 6.072764e-001 4.815346e+001 1.732766e+002
         vertex 6.072764e-001 4.780363e+001 1.730316e+002
         vertex 6.072764e-001 4.657863e+001 1.727034e+002
      endloop
   endfacet
   facet normal -1.000000e+000 1.304512e-015 -2.220446e-016
      outer loop
         vertex 6.072764e-001 4.657863e+001 1.727034e+002
         vertex 6.072764e-001 4.780363e+001 1.730316e+002
         vertex 6.072764e-001 4.741658e+001 1.728512e+002
      endloop
   endfacet
   facet normal -1.000000e+000 1.304512e-015 -2.220446e-016
      outer loop
         vertex 6.072764e-001 4.657863e+001 1.727034e+002
         vertex 6.072764e-001 4.741658e+001 1.728512e+002
         vertex 6.072764e-001 4.700407e+001 1.727406e+002
      endloop
   endfacet
   facet normal 1.000000e+000 -1.304512e-015 2.220446e-016
      outer loop
         vertex 1.686073e+002 4.416585e+001 1.755788e+002
         vertex 1.686073e+002 4.412863e+001 1.751534e+002
         vertex 1.686073e+002 4.741658e+001 1.774556e+002
      endloop
   endfacet
   facet normal 1.000000e+000 -1.304512e-015 2.220446e-016
      outer loop
         vertex 1.686073e+002 4.615319e+001 1.727406e+002
         vertex 1.686073e+002 4.657863e+001 1.727034e+002
         vertex 1.686073e+002 4.870039e+001 1.763784e+002
      endloop
   endfacet
   facet normal 1.000000e+000 -1.304512e-015 2.220446e-016
      outer loop
         vertex 1.686073e+002 4.615319e+001 1.727406e+002
         vertex 1.686073e+002 4.870039e+001 1.763784e+002
         vertex 1.686073e+002 4.574068e+001 1.728512e+002
      endloop
   endfacet
   facet normal 1.000000e+000 -1.304512e-015 2.220446e-016
      outer loop
         vertex 1.686073e+002 4.574068e+001 1.728512e+002
         vertex 1.686073e+002 4.870039e+001 1.763784e+002
         vertex 1.686073e+002 4.845544e+001 1.767282e+002
      endloop
   endfacet
   facet normal 1.000000e+000 -1.304512e-015 2.220446e-016
      outer loop
         vertex 1.686073e+002 4.574068e+001 1.728512e+002
         vertex 1.686073e+002 4.845544e+001 1.767282e+002
         vertex 1.686073e+002 4.815346e+001 1.770302e+002
      endloop
   endfacet
   facet normal 1.000000e+000 -1.304512e-015 2.220446e-016
      outer loop
         vertex 1.686073e+002 4.815346e+001 1.770302e+002
         vertex 1.686073e+002 4.780363e+001 1.772751e+002
         vertex 1.686073e+002 4.574068e+001 1.728512e+002
      endloop
   endfacet
   facet normal 1.000000e+000 -1.304512e-015 2.220446e-016
      outer loop
         vertex 1.686073e+002 4.574068e+001 1.728512e+002
         vertex 1.686073e+002 4.780363e+001 1.772751e+002
         vertex 1.686073e+002 4.741658e+001 1.774556e+002
      endloop
   endfacet
   facet normal 1.000000e+000 -1.304512e-015 2.220446e-016
      outer loop
         vertex 1.686073e+002 4.574068e+001 1.728512e+002
         vertex 1.686073e+002 4.741658e+001 1.774556e+002
         vertex 1.686073e+002 4.535363e+001 1.730316e+002
      endloop
   endfacet
   facet normal 1.000000e+000 -1.304512e-015 2.220446e-016
      outer loop
         vertex 1.686073e+002 4.700407e+001 1.775662e+002
         vertex 1.686073e+002 4.657863e+001 1.776034e+002
         vertex 1.686073e+002 4.445687e+001 1.763784e+002
      endloop
   endfacet
   facet normal 1.000000e+000 -1.304512e-015 2.220446e-016
      outer loop
         vertex 1.686073e+002 4.445687e+001 1.763784e+002
         vertex 1.686073e+002 4.657863e+001 1.776034e+002
         vertex 1.686073e+002 4.615319e+001 1.775662e+002
      endloop
   endfacet
   facet normal 1.000000e+000 -1.304512e-015 2.220446e-016
      outer loop
         vertex 1.686073e+002 4.700407e+001 1.775662e+002
         vertex 1.686073e+002 4.445687e+001 1.763784e+002
         vertex 1.686073e+002 4.741658e+001 1.774556e+002
      endloop
   endfacet
   facet normal 1.000000e+000 -1.304512e-015 2.220446e-016
      outer loop
         vertex 1.686073e+002 4.741658e+001 1.774556e+002
         vertex 1.686073e+002 4.445687e+001 1.763784e+002
         vertex 1.686073e+002 4.427638e+001 1.759913e+002
      endloop
   endfacet
   facet normal 1.000000e+000 -1.304512e-015 2.220446e-016
      outer loop
         vertex 1.686073e+002 4.741658e+001 1.774556e+002
         vertex 1.686073e+002 4.427638e+001 1.759913e+002
         vertex 1.686073e+002 4.416585e+001 1.755788e+002
      endloop
   endfacet
   facet normal 1.000000e+000 -1.304512e-015 2.220446e-016
      outer loop
         vertex 1.686073e+002 4.412863e+001 1.751534e+002
         vertex 1.686073e+002 4.416585e+001 1.747280e+002
         vertex 1.686073e+002 4.741658e+001 1.774556e+002
      endloop
   endfacet
   facet normal 1.000000e+000 -1.304512e-015 2.220446e-016
      outer loop
         vertex 1.686073e+002 4.741658e+001 1.774556e+002
         vertex 1.686073e+002 4.416585e+001 1.747280e+002
         vertex 1.686073e+002 4.427638e+001 1.743154e+002
      endloop
   endfacet
   facet normal 1.000000e+000 -1.304512e-015 2.220446e-016
      outer loop
         vertex 1.686073e+002 4.741658e+001 1.774556e+002
         vertex 1.686073e+002 4.427638e+001 1.743154e+002
         vertex 1.686073e+002 4.445687e+001 1.739284e+002
      endloop
   endfacet
   facet normal 1.000000e+000 -1.304512e-015 2.220446e-016
      outer loop
         vertex 1.686073e+002 4.657863e+001 1.727034e+002
         vertex 1.686073e+002 4.700407e+001 1.727406e+002
         vertex 1.686073e+002 4.870039e+001 1.763784e+002
      endloop
   endfacet
   facet normal 1.000000e+000 -1.304512e-015 2.220446e-016
      outer loop
         vertex 1.686073e+002 4.870039e+001 1.763784e+002
         vertex 1.686073e+002 4.700407e+001 1.727406e+002
         vertex 1.686073e+002 4.741658e+001 1.728512e+002
      endloop
   endfacet
   facet normal 1.000000e+000 -1.304512e-015 2.220446e-016
      outer loop
         vertex 1.686073e+002 4.870039e+001 1.763784e+002
         vertex 1.686073e+002 4.741658e+001 1.728512e+002
         vertex 1.686073e+002 4.780363e+001 1.730316e+002
      endloop
   endfacet
   facet normal 1.000000e+000 -1.304512e-015 2.220446e-016
      outer loop
         vertex 1.686073e+002 4.902863e+001 1.751534e+002
         vertex 1.686073e+002 4.870039e+001 1.739284e+002
         vertex 1.686073e+002 4.899141e+001 1.747280e+002
      endloop
   endfacet
   facet normal 1.000000e+000 -1.304512e-015 2.220446e-016
      outer loop
         vertex 1.686073e+002 4.899141e+001 1.747280e+002
         vertex 1.686073e+002 4.870039e+001 1.739284e+002
         vertex 1.686073e+002 4.888087e+001 1.743154e+002
      endloop
   endfacet
   facet normal 1.000000e+000 -1.304512e-015 2.220446e-016
      outer loop
         vertex 1.686073e+002 4.445687e+001 1.739284e+002
         vertex 1.686073e+002 4.470182e+001 1.735786e+002
         vertex 1.686073e+002 4.741658e+001 1.774556e+002
      endloop
   endfacet
   facet normal 1.000000e+000 -1.304512e-015 2.220446e-016
      outer loop
         vertex 1.686073e+002 4.741658e+001 1.774556e+002
         vertex 1.686073e+002 4.470182e+001 1.735786e+002
         vertex 1.686073e+002 4.500380e+001 1.732766e+002
      endloop
   endfacet
   facet normal 1.000000e+000 -1.304512e-015 2.220446e-016
      outer loop
         vertex 1.686073e+002 4.741658e+001 1.774556e+002
         vertex 1.686073e+002 4.500380e+001 1.732766e+002
         vertex 1.686073e+002 4.535363e+001 1.730316e+002
      endloop
   endfacet
   facet normal 1.000000e+000 -1.304512e-015 2.220446e-016
      outer loop
         vertex 1.686073e+002 4.902863e+001 1.751534e+002
         vertex 1.686073e+002 4.899141e+001 1.755788e+002
         vertex 1.686073e+002 4.870039e+001 1.739284e+002
      endloop
   endfacet
   facet normal 1.000000e+000 -1.304512e-015 2.220446e-016
      outer loop
         vertex 1.686073e+002 4.870039e+001 1.739284e+002
         vertex 1.686073e+002 4.899141e+001 1.755788e+002
         vertex 1.686073e+002 4.888087e+001 1.759913e+002
      endloop
   endfacet
   facet normal 1.000000e+000 -1.304512e-015 2.220446e-016
      outer loop
         vertex 1.686073e+002 4.870039e+001 1.739284e+002
         vertex 1.686073e+002 4.888087e+001 1.759913e+002
         vertex 1.686073e+002 4.870039e+001 1.763784e+002
      endloop
   endfacet
   facet normal 1.000000e+000 -1.304512e-015 2.220446e-016
      outer loop
         vertex 1.686073e+002 4.615319e+001 1.775662e+002
         vertex 1.686073e+002 4.574068e+001 1.774556e+002
         vertex 1.686073e+002 4.445687e+001 1.763784e+002
      endloop
   endfacet
   facet normal 1.000000e+000 -1.304512e-015 2.220446e-016
      outer loop
         vertex 1.686073e+002 4.445687e+001 1.763784e+002
         vertex 1.686073e+002 4.574068e+001 1.774556e+002
         vertex 1.686073e+002 4.535363e+001 1.772751e+002
      endloop
   endfacet
   facet normal 1.000000e+000 -1.304512e-015 2.220446e-016
      outer loop
         vertex 1.686073e+002 4.445687e+001 1.763784e+002
         vertex 1.686073e+002 4.535363e+001 1.772751e+002
         vertex 1.686073e+002 4.470182e+001 1.767282e+002
      endloop
   endfacet
   facet normal 1.000000e+000 -1.304512e-015 2.220446e-016
      outer loop
         vertex 1.686073e+002 4.470182e+001 1.767282e+002
         vertex 1.686073e+002 4.535363e+001 1.772751e+002
         vertex 1.686073e+002 4.500380e+001 1.770302e+002
      endloop
   endfacet
   facet normal 1.000000e+000 -1.304512e-015 2.220446e-016
      outer loop
         vertex 1.686073e+002 4.780363e+001 1.730316e+002
         vertex 1.686073e+002 4.815346e+001 1.732766e+002
         vertex 1.686073e+002 4.870039e+001 1.763784e+002
      endloop
   endfacet
   facet normal 1.000000e+000 -1.304512e-015 2.220446e-016
      outer loop
         vertex 1.686073e+002 4.870039e+001 1.763784e+002
         vertex 1.686073e+002 4.815346e+001 1.732766e+002
         vertex 1.686073e+002 4.845544e+001 1.735786e+002
      endloop
   endfacet
   facet normal 1.000000e+000 -1.304512e-015 2.220446e-016
      outer loop
         vertex 1.686073e+002 4.870039e+001 1.763784e+002
         vertex 1.686073e+002 4.845544e+001 1.735786e+002
         vertex 1.686073e+002 4.870039e+001 1.739284e+002
      endloop
   endfacet
endsolid