solid 2D Plot structure - Pièce1-10
   facet normal -1.000000e+000 0.000000e+000 0.000000e+000
      outer loop
         vertex 4.060727e+001 2.907862e+001 2.965000e+002
         vertex 4.060727e+001 4.078627e+000 2.965000e+002
         vertex 4.060727e+001 2.907862e+001 3.055000e+002
      endloop
   endfacet
   facet normal -1.000000e+000 0.000000e+000 0.000000e+000
      outer loop
         vertex 4.060727e+001 2.907862e+001 3.055000e+002
         vertex 4.060727e+001 4.078627e+000 2.965000e+002
         vertex 4.060727e+001 4.078627e+000 3.055000e+002
      endloop
   endfacet
   facet normal -1.734723e-016 1.000000e+000 0.000000e+000
      outer loop
         vertex 6.060727e+001 2.907862e+001 2.965000e+002
         vertex 4.060727e+001 2.907862e+001 2.965000e+002
         vertex 6.060727e+001 2.907862e+001 3.055000e+002
      endloop
   endfacet
   facet normal -1.734723e-016 1.000000e+000 0.000000e+000
      outer loop
         vertex 6.060727e+001 2.907862e+001 3.055000e+002
         vertex 4.060727e+001 2.907862e+001 2.965000e+002
         vertex 4.060727e+001 2.907862e+001 3.055000e+002
      endloop
   endfacet
   facet normal 1.000000e+000 5.551115e-016 0.000000e+000
      outer loop
         vertex 6.060727e+001 4.078627e+000 2.965000e+002
         vertex 6.060727e+001 2.907862e+001 2.965000e+002
         vertex 6.060727e+001 4.078627e+000 3.055000e+002
      endloop
   endfacet
   facet normal 1.000000e+000 5.551115e-016 0.000000e+000
      outer loop
         vertex 6.060727e+001 4.078627e+000 3.055000e+002
         vertex 6.060727e+001 2.907862e+001 2.965000e+002
         vertex 6.060727e+001 2.907862e+001 3.055000e+002
      endloop
   endfacet
   facet normal 0.000000e+000 1.000000e+000 0.000000e+000
      outer loop
         vertex 7.060728e+001 4.078627e+000 2.965000e+002
         vertex 6.060727e+001 4.078627e+000 2.965000e+002
         vertex 7.060728e+001 4.078627e+000 3.055000e+002
      endloop
   endfacet
   facet normal 0.000000e+000 1.000000e+000 0.000000e+000
      outer loop
         vertex 7.060728e+001 4.078627e+000 3.055000e+002
         vertex 6.060727e+001 4.078627e+000 2.965000e+002
         vertex 6.060727e+001 4.078627e+000 3.055000e+002
      endloop
   endfacet
   facet normal 1.000000e+000 1.734723e-015 0.000000e+000
      outer loop
         vertex 7.060728e+001 7.862657e-002 2.965000e+002
         vertex 7.060728e+001 4.078627e+000 2.965000e+002
         vertex 7.060728e+001 7.862657e-002 3.055000e+002
      endloop
   endfacet
   facet normal 1.000000e+000 1.734723e-015 0.000000e+000
      outer loop
         vertex 7.060728e+001 7.862657e-002 3.055000e+002
         vertex 7.060728e+001 4.078627e+000 2.965000e+002
         vertex 7.060728e+001 4.078627e+000 3.055000e+002
      endloop
   endfacet
   facet normal 2.724943e-016 -1.000000e+000 0.000000e+000
      outer loop
         vertex 3.060728e+001 7.862657e-002 2.965000e+002
         vertex 7.060728e+001 7.862657e-002 2.965000e+002
         vertex 3.060728e+001 7.862657e-002 3.055000e+002
      endloop
   endfacet
   facet normal 2.724943e-016 -1.000000e+000 0.000000e+000
      outer loop
         vertex 3.060728e+001 7.862657e-002 3.055000e+002
         vertex 7.060728e+001 7.862657e-002 2.965000e+002
         vertex 7.060728e+001 7.862657e-002 3.055000e+002
      endloop
   endfacet
   facet normal -1.000000e+000 0.000000e+000 0.000000e+000
      outer loop
         vertex 3.060728e+001 4.078627e+000 2.965000e+002
         vertex 3.060728e+001 7.862657e-002 2.965000e+002
         vertex 3.060728e+001 4.078627e+000 3.055000e+002
      endloop
   endfacet
   facet normal -1.000000e+000 0.000000e+000 0.000000e+000
      outer loop
         vertex 3.060728e+001 4.078627e+000 3.055000e+002
         vertex 3.060728e+001 7.862657e-002 2.965000e+002
         vertex 3.060728e+001 7.862657e-002 3.055000e+002
      endloop
   endfacet
   facet normal 0.000000e+000 1.000000e+000 0.000000e+000
      outer loop
         vertex 4.060727e+001 4.078627e+000 2.965000e+002
         vertex 3.060728e+001 4.078627e+000 2.965000e+002
         vertex 4.060727e+001 4.078627e+000 3.055000e+002
      endloop
   endfacet
   facet normal 0.000000e+000 1.000000e+000 0.000000e+000
      outer loop
         vertex 4.060727e+001 4.078627e+000 3.055000e+002
         vertex 3.060728e+001 4.078627e+000 2.965000e+002
         vertex 3.060728e+001 4.078627e+000 3.055000e+002
      endloop
   endfacet
   facet normal 0.000000e+000 0.000000e+000 -1.000000e+000
      outer loop
         vertex 3.060728e+001 7.862657e-002 2.965000e+002
         vertex 3.060728e+001 4.078627e+000 2.965000e+002
         vertex 4.060727e+001 4.078627e+000 2.965000e+002
      endloop
   endfacet
   facet normal 0.000000e+000 0.000000e+000 -1.000000e+000
      outer loop
         vertex 3.060728e+001 7.862657e-002 2.965000e+002
         vertex 4.060727e+001 4.078627e+000 2.965000e+002
         vertex 7.060728e+001 7.862657e-002 2.965000e+002
      endloop
   endfacet
   facet normal 0.000000e+000 0.000000e+000 -1.000000e+000
      outer loop
         vertex 7.060728e+001 7.862657e-002 2.965000e+002
         vertex 4.060727e+001 4.078627e+000 2.965000e+002
         vertex 6.060727e+001 4.078627e+000 2.965000e+002
      endloop
   endfacet
   facet normal 0.000000e+000 0.000000e+000 -1.000000e+000
      outer loop
         vertex 7.060728e+001 7.862657e-002 2.965000e+002
         vertex 6.060727e+001 4.078627e+000 2.965000e+002
         vertex 7.060728e+001 4.078627e+000 2.965000e+002
      endloop
   endfacet
   facet normal 0.000000e+000 0.000000e+000 -1.000000e+000
      outer loop
         vertex 4.825805e+001 2.072358e+001 2.965000e+002
         vertex 4.844221e+001 2.032863e+001 2.965000e+002
         vertex 4.060727e+001 4.078627e+000 2.965000e+002
      endloop
   endfacet
   facet normal 0.000000e+000 0.000000e+000 -1.000000e+000
      outer loop
         vertex 5.277234e+001 2.032863e+001 2.965000e+002
         vertex 6.060727e+001 4.078627e+000 2.965000e+002
         vertex 5.252238e+001 1.997166e+001 2.965000e+002
      endloop
   endfacet
   facet normal 0.000000e+000 0.000000e+000 -1.000000e+000
      outer loop
         vertex 5.252238e+001 1.997166e+001 2.965000e+002
         vertex 6.060727e+001 4.078627e+000 2.965000e+002
         vertex 5.221424e+001 1.966352e+001 2.965000e+002
      endloop
   endfacet
   facet normal 0.000000e+000 0.000000e+000 -1.000000e+000
      outer loop
         vertex 4.975222e+001 2.392786e+001 2.965000e+002
         vertex 4.935727e+001 2.374369e+001 2.965000e+002
         vertex 4.060727e+001 2.907862e+001 2.965000e+002
      endloop
   endfacet
   facet normal 0.000000e+000 0.000000e+000 -1.000000e+000
      outer loop
         vertex 5.277234e+001 2.032863e+001 2.965000e+002
         vertex 5.295650e+001 2.072358e+001 2.965000e+002
         vertex 6.060727e+001 4.078627e+000 2.965000e+002
      endloop
   endfacet
   facet normal 0.000000e+000 0.000000e+000 -1.000000e+000
      outer loop
         vertex 6.060727e+001 4.078627e+000 2.965000e+002
         vertex 5.295650e+001 2.072358e+001 2.965000e+002
         vertex 5.306929e+001 2.114451e+001 2.965000e+002
      endloop
   endfacet
   facet normal 0.000000e+000 0.000000e+000 -1.000000e+000
      outer loop
         vertex 6.060727e+001 4.078627e+000 2.965000e+002
         vertex 5.306929e+001 2.114451e+001 2.965000e+002
         vertex 6.060727e+001 2.907862e+001 2.965000e+002
      endloop
   endfacet
   facet normal 0.000000e+000 0.000000e+000 -1.000000e+000
      outer loop
         vertex 6.060727e+001 2.907862e+001 2.965000e+002
         vertex 5.306929e+001 2.114451e+001 2.965000e+002
         vertex 5.310727e+001 2.157863e+001 2.965000e+002
      endloop
   endfacet
   facet normal 0.000000e+000 0.000000e+000 -1.000000e+000
      outer loop
         vertex 6.060727e+001 2.907862e+001 2.965000e+002
         vertex 5.310727e+001 2.157863e+001 2.965000e+002
         vertex 5.306929e+001 2.201275e+001 2.965000e+002
      endloop
   endfacet
   facet normal 0.000000e+000 0.000000e+000 -1.000000e+000
      outer loop
         vertex 5.306929e+001 2.201275e+001 2.965000e+002
         vertex 5.295650e+001 2.243368e+001 2.965000e+002
         vertex 6.060727e+001 2.907862e+001 2.965000e+002
      endloop
   endfacet
   facet normal 0.000000e+000 0.000000e+000 -1.000000e+000
      outer loop
         vertex 6.060727e+001 2.907862e+001 2.965000e+002
         vertex 5.295650e+001 2.243368e+001 2.965000e+002
         vertex 5.277234e+001 2.282862e+001 2.965000e+002
      endloop
   endfacet
   facet normal 0.000000e+000 0.000000e+000 -1.000000e+000
      outer loop
         vertex 6.060727e+001 2.907862e+001 2.965000e+002
         vertex 5.277234e+001 2.282862e+001 2.965000e+002
         vertex 5.252238e+001 2.318560e+001 2.965000e+002
      endloop
   endfacet
   facet normal 0.000000e+000 0.000000e+000 -1.000000e+000
      outer loop
         vertex 5.104139e+001 1.911661e+001 2.965000e+002
         vertex 5.146232e+001 1.922939e+001 2.965000e+002
         vertex 6.060727e+001 4.078627e+000 2.965000e+002
      endloop
   endfacet
   facet normal 0.000000e+000 0.000000e+000 -1.000000e+000
      outer loop
         vertex 6.060727e+001 4.078627e+000 2.965000e+002
         vertex 5.146232e+001 1.922939e+001 2.965000e+002
         vertex 5.185727e+001 1.941356e+001 2.965000e+002
      endloop
   endfacet
   facet normal 0.000000e+000 0.000000e+000 -1.000000e+000
      outer loop
         vertex 6.060727e+001 4.078627e+000 2.965000e+002
         vertex 5.185727e+001 1.941356e+001 2.965000e+002
         vertex 5.221424e+001 1.966352e+001 2.965000e+002
      endloop
   endfacet
   facet normal 0.000000e+000 0.000000e+000 -1.000000e+000
      outer loop
         vertex 4.935727e+001 2.374369e+001 2.965000e+002
         vertex 4.900031e+001 2.349374e+001 2.965000e+002
         vertex 4.060727e+001 2.907862e+001 2.965000e+002
      endloop
   endfacet
   facet normal 0.000000e+000 0.000000e+000 -1.000000e+000
      outer loop
         vertex 4.060727e+001 2.907862e+001 2.965000e+002
         vertex 4.900031e+001 2.349374e+001 2.965000e+002
         vertex 4.869216e+001 2.318560e+001 2.965000e+002
      endloop
   endfacet
   facet normal 0.000000e+000 0.000000e+000 -1.000000e+000
      outer loop
         vertex 4.060727e+001 2.907862e+001 2.965000e+002
         vertex 4.869216e+001 2.318560e+001 2.965000e+002
         vertex 4.844221e+001 2.282862e+001 2.965000e+002
      endloop
   endfacet
   facet normal 0.000000e+000 0.000000e+000 -1.000000e+000
      outer loop
         vertex 4.060727e+001 2.907862e+001 2.965000e+002
         vertex 4.810727e+001 2.157863e+001 2.965000e+002
         vertex 4.060727e+001 4.078627e+000 2.965000e+002
      endloop
   endfacet
   facet normal 0.000000e+000 0.000000e+000 -1.000000e+000
      outer loop
         vertex 4.060727e+001 4.078627e+000 2.965000e+002
         vertex 4.810727e+001 2.157863e+001 2.965000e+002
         vertex 4.814525e+001 2.114451e+001 2.965000e+002
      endloop
   endfacet
   facet normal 0.000000e+000 0.000000e+000 -1.000000e+000
      outer loop
         vertex 4.060727e+001 4.078627e+000 2.965000e+002
         vertex 4.814525e+001 2.114451e+001 2.965000e+002
         vertex 4.825805e+001 2.072358e+001 2.965000e+002
      endloop
   endfacet
   facet normal 0.000000e+000 0.000000e+000 -1.000000e+000
      outer loop
         vertex 4.844221e+001 2.032863e+001 2.965000e+002
         vertex 4.869216e+001 1.997166e+001 2.965000e+002
         vertex 4.060727e+001 4.078627e+000 2.965000e+002
      endloop
   endfacet
   facet normal 0.000000e+000 0.000000e+000 -1.000000e+000
      outer loop
         vertex 4.060727e+001 4.078627e+000 2.965000e+002
         vertex 4.869216e+001 1.997166e+001 2.965000e+002
         vertex 4.900031e+001 1.966352e+001 2.965000e+002
      endloop
   endfacet
   facet normal 0.000000e+000 0.000000e+000 -1.000000e+000
      outer loop
         vertex 4.060727e+001 4.078627e+000 2.965000e+002
         vertex 4.900031e+001 1.966352e+001 2.965000e+002
         vertex 4.935727e+001 1.941356e+001 2.965000e+002
      endloop
   endfacet
   facet normal 0.000000e+000 0.000000e+000 -1.000000e+000
      outer loop
         vertex 4.935727e+001 1.941356e+001 2.965000e+002
         vertex 4.975222e+001 1.922939e+001 2.965000e+002
         vertex 4.060727e+001 4.078627e+000 2.965000e+002
      endloop
   endfacet
   facet normal 0.000000e+000 0.000000e+000 -1.000000e+000
      outer loop
         vertex 4.060727e+001 4.078627e+000 2.965000e+002
         vertex 4.975222e+001 1.922939e+001 2.965000e+002
         vertex 5.017315e+001 1.911661e+001 2.965000e+002
      endloop
   endfacet
   facet normal 0.000000e+000 0.000000e+000 -1.000000e+000
      outer loop
         vertex 4.060727e+001 4.078627e+000 2.965000e+002
         vertex 5.017315e+001 1.911661e+001 2.965000e+002
         vertex 6.060727e+001 4.078627e+000 2.965000e+002
      endloop
   endfacet
   facet normal 0.000000e+000 0.000000e+000 -1.000000e+000
      outer loop
         vertex 6.060727e+001 4.078627e+000 2.965000e+002
         vertex 5.017315e+001 1.911661e+001 2.965000e+002
         vertex 5.060728e+001 1.907862e+001 2.965000e+002
      endloop
   endfacet
   facet normal 0.000000e+000 0.000000e+000 -1.000000e+000
      outer loop
         vertex 6.060727e+001 4.078627e+000 2.965000e+002
         vertex 5.060728e+001 1.907862e+001 2.965000e+002
         vertex 5.104139e+001 1.911661e+001 2.965000e+002
      endloop
   endfacet
   facet normal 0.000000e+000 0.000000e+000 -1.000000e+000
      outer loop
         vertex 5.252238e+001 2.318560e+001 2.965000e+002
         vertex 5.221424e+001 2.349374e+001 2.965000e+002
         vertex 6.060727e+001 2.907862e+001 2.965000e+002
      endloop
   endfacet
   facet normal 0.000000e+000 0.000000e+000 -1.000000e+000
      outer loop
         vertex 6.060727e+001 2.907862e+001 2.965000e+002
         vertex 5.221424e+001 2.349374e+001 2.965000e+002
         vertex 5.185727e+001 2.374369e+001 2.965000e+002
      endloop
   endfacet
   facet normal 0.000000e+000 0.000000e+000 -1.000000e+000
      outer loop
         vertex 6.060727e+001 2.907862e+001 2.965000e+002
         vertex 5.185727e+001 2.374369e+001 2.965000e+002
         vertex 5.146232e+001 2.392786e+001 2.965000e+002
      endloop
   endfacet
   facet normal 0.000000e+000 0.000000e+000 -1.000000e+000
      outer loop
         vertex 5.146232e+001 2.392786e+001 2.965000e+002
         vertex 5.104139e+001 2.404065e+001 2.965000e+002
         vertex 6.060727e+001 2.907862e+001 2.965000e+002
      endloop
   endfacet
   facet normal 0.000000e+000 0.000000e+000 -1.000000e+000
      outer loop
         vertex 6.060727e+001 2.907862e+001 2.965000e+002
         vertex 5.104139e+001 2.404065e+001 2.965000e+002
         vertex 5.060728e+001 2.407863e+001 2.965000e+002
      endloop
   endfacet
   facet normal 0.000000e+000 0.000000e+000 -1.000000e+000
      outer loop
         vertex 6.060727e+001 2.907862e+001 2.965000e+002
         vertex 5.060728e+001 2.407863e+001 2.965000e+002
         vertex 4.060727e+001 2.907862e+001 2.965000e+002
      endloop
   endfacet
   facet normal 0.000000e+000 0.000000e+000 -1.000000e+000
      outer loop
         vertex 4.060727e+001 2.907862e+001 2.965000e+002
         vertex 5.060728e+001 2.407863e+001 2.965000e+002
         vertex 5.017315e+001 2.404065e+001 2.965000e+002
      endloop
   endfacet
   facet normal 0.000000e+000 0.000000e+000 -1.000000e+000
      outer loop
         vertex 4.060727e+001 2.907862e+001 2.965000e+002
         vertex 5.017315e+001 2.404065e+001 2.965000e+002
         vertex 4.975222e+001 2.392786e+001 2.965000e+002
      endloop
   endfacet
   facet normal 0.000000e+000 0.000000e+000 -1.000000e+000
      outer loop
         vertex 4.844221e+001 2.282862e+001 2.965000e+002
         vertex 4.825805e+001 2.243368e+001 2.965000e+002
         vertex 4.060727e+001 2.907862e+001 2.965000e+002
      endloop
   endfacet
   facet normal 0.000000e+000 0.000000e+000 -1.000000e+000
      outer loop
         vertex 4.060727e+001 2.907862e+001 2.965000e+002
         vertex 4.825805e+001 2.243368e+001 2.965000e+002
         vertex 4.814525e+001 2.201275e+001 2.965000e+002
      endloop
   endfacet
   facet normal 0.000000e+000 0.000000e+000 -1.000000e+000
      outer loop
         vertex 4.060727e+001 2.907862e+001 2.965000e+002
         vertex 4.814525e+001 2.201275e+001 2.965000e+002
         vertex 4.810727e+001 2.157863e+001 2.965000e+002
      endloop
   endfacet
   facet normal 0.000000e+000 0.000000e+000 1.000000e+000
      outer loop
         vertex 3.060728e+001 4.078627e+000 3.055000e+002
         vertex 3.060728e+001 7.862657e-002 3.055000e+002
         vertex 4.060727e+001 4.078627e+000 3.055000e+002
      endloop
   endfacet
   facet normal 0.000000e+000 0.000000e+000 1.000000e+000
      outer loop
         vertex 4.060727e+001 4.078627e+000 3.055000e+002
         vertex 3.060728e+001 7.862657e-002 3.055000e+002
         vertex 7.060728e+001 7.862657e-002 3.055000e+002
      endloop
   endfacet
   facet normal 0.000000e+000 0.000000e+000 1.000000e+000
      outer loop
         vertex 4.060727e+001 4.078627e+000 3.055000e+002
         vertex 7.060728e+001 7.862657e-002 3.055000e+002
         vertex 6.060727e+001 4.078627e+000 3.055000e+002
      endloop
   endfacet
   facet normal 0.000000e+000 0.000000e+000 1.000000e+000
      outer loop
         vertex 6.060727e+001 4.078627e+000 3.055000e+002
         vertex 7.060728e+001 7.862657e-002 3.055000e+002
         vertex 7.060728e+001 4.078627e+000 3.055000e+002
      endloop
   endfacet
   facet normal 0.000000e+000 0.000000e+000 1.000000e+000
      outer loop
         vertex 5.277234e+001 2.032863e+001 3.055000e+002
         vertex 6.060727e+001 4.078627e+000 3.055000e+002
         vertex 5.295650e+001 2.072358e+001 3.055000e+002
      endloop
   endfacet
   facet normal 0.000000e+000 0.000000e+000 1.000000e+000
      outer loop
         vertex 5.295650e+001 2.072358e+001 3.055000e+002
         vertex 6.060727e+001 4.078627e+000 3.055000e+002
         vertex 5.306929e+001 2.114451e+001 3.055000e+002
      endloop
   endfacet
   facet normal 0.000000e+000 0.000000e+000 1.000000e+000
      outer loop
         vertex 5.277234e+001 2.032863e+001 3.055000e+002
         vertex 5.252238e+001 1.997166e+001 3.055000e+002
         vertex 6.060727e+001 4.078627e+000 3.055000e+002
      endloop
   endfacet
   facet normal 0.000000e+000 0.000000e+000 1.000000e+000
      outer loop
         vertex 6.060727e+001 4.078627e+000 3.055000e+002
         vertex 5.252238e+001 1.997166e+001 3.055000e+002
         vertex 5.221424e+001 1.966352e+001 3.055000e+002
      endloop
   endfacet
   facet normal 0.000000e+000 0.000000e+000 1.000000e+000
      outer loop
         vertex 6.060727e+001 4.078627e+000 3.055000e+002
         vertex 5.221424e+001 1.966352e+001 3.055000e+002
         vertex 5.185727e+001 1.941356e+001 3.055000e+002
      endloop
   endfacet
   facet normal 0.000000e+000 0.000000e+000 1.000000e+000
      outer loop
         vertex 4.060727e+001 4.078627e+000 3.055000e+002
         vertex 4.869216e+001 1.997166e+001 3.055000e+002
         vertex 4.844221e+001 2.032863e+001 3.055000e+002
      endloop
   endfacet
   facet normal 0.000000e+000 0.000000e+000 1.000000e+000
      outer loop
         vertex 4.935727e+001 2.374369e+001 3.055000e+002
         vertex 4.060727e+001 2.907862e+001 3.055000e+002
         vertex 4.900031e+001 2.349374e+001 3.055000e+002
      endloop
   endfacet
   facet normal 0.000000e+000 0.000000e+000 1.000000e+000
      outer loop
         vertex 4.900031e+001 2.349374e+001 3.055000e+002
         vertex 4.060727e+001 2.907862e+001 3.055000e+002
         vertex 4.869216e+001 2.318560e+001 3.055000e+002
      endloop
   endfacet
   facet normal 0.000000e+000 0.000000e+000 1.000000e+000
      outer loop
         vertex 4.814525e+001 2.201275e+001 3.055000e+002
         vertex 4.825805e+001 2.243368e+001 3.055000e+002
         vertex 4.060727e+001 2.907862e+001 3.055000e+002
      endloop
   endfacet
   facet normal 0.000000e+000 0.000000e+000 1.000000e+000
      outer loop
         vertex 4.060727e+001 2.907862e+001 3.055000e+002
         vertex 4.825805e+001 2.243368e+001 3.055000e+002
         vertex 4.844221e+001 2.282862e+001 3.055000e+002
      endloop
   endfacet
   facet normal 0.000000e+000 0.000000e+000 1.000000e+000
      outer loop
         vertex 4.060727e+001 2.907862e+001 3.055000e+002
         vertex 4.844221e+001 2.282862e+001 3.055000e+002
         vertex 4.869216e+001 2.318560e+001 3.055000e+002
      endloop
   endfacet
   facet normal 0.000000e+000 0.000000e+000 1.000000e+000
      outer loop
         vertex 6.060727e+001 2.907862e+001 3.055000e+002
         vertex 5.252238e+001 2.318560e+001 3.055000e+002
         vertex 5.277234e+001 2.282862e+001 3.055000e+002
      endloop
   endfacet
   facet normal 0.000000e+000 0.000000e+000 1.000000e+000
      outer loop
         vertex 4.060727e+001 4.078627e+000 3.055000e+002
         vertex 5.017315e+001 1.911661e+001 3.055000e+002
         vertex 4.975222e+001 1.922939e+001 3.055000e+002
      endloop
   endfacet
   facet normal 0.000000e+000 0.000000e+000 1.000000e+000
      outer loop
         vertex 5.277234e+001 2.282862e+001 3.055000e+002
         vertex 5.295650e+001 2.243368e+001 3.055000e+002
         vertex 6.060727e+001 2.907862e+001 3.055000e+002
      endloop
   endfacet
   facet normal 0.000000e+000 0.000000e+000 1.000000e+000
      outer loop
         vertex 6.060727e+001 2.907862e+001 3.055000e+002
         vertex 5.295650e+001 2.243368e+001 3.055000e+002
         vertex 5.306929e+001 2.201275e+001 3.055000e+002
      endloop
   endfacet
   facet normal 0.000000e+000 0.000000e+000 1.000000e+000
      outer loop
         vertex 6.060727e+001 2.907862e+001 3.055000e+002
         vertex 5.306929e+001 2.201275e+001 3.055000e+002
         vertex 6.060727e+001 4.078627e+000 3.055000e+002
      endloop
   endfacet
   facet normal 0.000000e+000 0.000000e+000 1.000000e+000
      outer loop
         vertex 6.060727e+001 4.078627e+000 3.055000e+002
         vertex 5.306929e+001 2.201275e+001 3.055000e+002
         vertex 5.310727e+001 2.157863e+001 3.055000e+002
      endloop
   endfacet
   facet normal 0.000000e+000 0.000000e+000 1.000000e+000
      outer loop
         vertex 6.060727e+001 4.078627e+000 3.055000e+002
         vertex 5.310727e+001 2.157863e+001 3.055000e+002
         vertex 5.306929e+001 2.114451e+001 3.055000e+002
      endloop
   endfacet
   facet normal 0.000000e+000 0.000000e+000 1.000000e+000
      outer loop
         vertex 5.185727e+001 1.941356e+001 3.055000e+002
         vertex 5.146232e+001 1.922939e+001 3.055000e+002
         vertex 6.060727e+001 4.078627e+000 3.055000e+002
      endloop
   endfacet
   facet normal 0.000000e+000 0.000000e+000 1.000000e+000
      outer loop
         vertex 6.060727e+001 4.078627e+000 3.055000e+002
         vertex 5.146232e+001 1.922939e+001 3.055000e+002
         vertex 5.104139e+001 1.911661e+001 3.055000e+002
      endloop
   endfacet
   facet normal 0.000000e+000 0.000000e+000 1.000000e+000
      outer loop
         vertex 6.060727e+001 4.078627e+000 3.055000e+002
         vertex 5.104139e+001 1.911661e+001 3.055000e+002
         vertex 4.060727e+001 4.078627e+000 3.055000e+002
      endloop
   endfacet
   facet normal 0.000000e+000 0.000000e+000 1.000000e+000
      outer loop
         vertex 4.060727e+001 4.078627e+000 3.055000e+002
         vertex 5.104139e+001 1.911661e+001 3.055000e+002
         vertex 5.060728e+001 1.907862e+001 3.055000e+002
      endloop
   endfacet
   facet normal 0.000000e+000 0.000000e+000 1.000000e+000
      outer loop
         vertex 4.060727e+001 4.078627e+000 3.055000e+002
         vertex 5.060728e+001 1.907862e+001 3.055000e+002
         vertex 5.017315e+001 1.911661e+001 3.055000e+002
      endloop
   endfacet
   facet normal 0.000000e+000 0.000000e+000 1.000000e+000
      outer loop
         vertex 4.844221e+001 2.032863e+001 3.055000e+002
         vertex 4.825805e+001 2.072358e+001 3.055000e+002
         vertex 4.060727e+001 4.078627e+000 3.055000e+002
      endloop
   endfacet
   facet normal 0.000000e+000 0.000000e+000 1.000000e+000
      outer loop
         vertex 4.060727e+001 4.078627e+000 3.055000e+002
         vertex 4.825805e+001 2.072358e+001 3.055000e+002
         vertex 4.814525e+001 2.114451e+001 3.055000e+002
      endloop
   endfacet
   facet normal 0.000000e+000 0.000000e+000 1.000000e+000
      outer loop
         vertex 4.060727e+001 4.078627e+000 3.055000e+002
         vertex 4.814525e+001 2.114451e+001 3.055000e+002
         vertex 4.060727e+001 2.907862e+001 3.055000e+002
      endloop
   endfacet
   facet normal 0.000000e+000 0.000000e+000 1.000000e+000
      outer loop
         vertex 4.060727e+001 2.907862e+001 3.055000e+002
         vertex 4.814525e+001 2.114451e+001 3.055000e+002
         vertex 4.810727e+001 2.157863e+001 3.055000e+002
      endloop
   endfacet
   facet normal 0.000000e+000 0.000000e+000 1.000000e+000
      outer loop
         vertex 4.060727e+001 2.907862e+001 3.055000e+002
         vertex 4.810727e+001 2.157863e+001 3.055000e+002
         vertex 4.814525e+001 2.201275e+001 3.055000e+002
      endloop
   endfacet
   facet normal 0.000000e+000 0.000000e+000 1.000000e+000
      outer loop
         vertex 6.060727e+001 2.907862e+001 3.055000e+002
         vertex 5.104139e+001 2.404065e+001 3.055000e+002
         vertex 5.146232e+001 2.392786e+001 3.055000e+002
      endloop
   endfacet
   facet normal 0.000000e+000 0.000000e+000 1.000000e+000
      outer loop
         vertex 4.975222e+001 1.922939e+001 3.055000e+002
         vertex 4.935727e+001 1.941356e+001 3.055000e+002
         vertex 4.060727e+001 4.078627e+000 3.055000e+002
      endloop
   endfacet
   facet normal 0.000000e+000 0.000000e+000 1.000000e+000
      outer loop
         vertex 4.060727e+001 4.078627e+000 3.055000e+002
         vertex 4.935727e+001 1.941356e+001 3.055000e+002
         vertex 4.900031e+001 1.966352e+001 3.055000e+002
      endloop
   endfacet
   facet normal 0.000000e+000 0.000000e+000 1.000000e+000
      outer loop
         vertex 4.060727e+001 4.078627e+000 3.055000e+002
         vertex 4.900031e+001 1.966352e+001 3.055000e+002
         vertex 4.869216e+001 1.997166e+001 3.055000e+002
      endloop
   endfacet
   facet normal 0.000000e+000 0.000000e+000 1.000000e+000
      outer loop
         vertex 4.935727e+001 2.374369e+001 3.055000e+002
         vertex 4.975222e+001 2.392786e+001 3.055000e+002
         vertex 4.060727e+001 2.907862e+001 3.055000e+002
      endloop
   endfacet
   facet normal 0.000000e+000 0.000000e+000 1.000000e+000
      outer loop
         vertex 4.060727e+001 2.907862e+001 3.055000e+002
         vertex 4.975222e+001 2.392786e+001 3.055000e+002
         vertex 5.017315e+001 2.404065e+001 3.055000e+002
      endloop
   endfacet
   facet normal 0.000000e+000 0.000000e+000 1.000000e+000
      outer loop
         vertex 4.060727e+001 2.907862e+001 3.055000e+002
         vertex 5.017315e+001 2.404065e+001 3.055000e+002
         vertex 6.060727e+001 2.907862e+001 3.055000e+002
      endloop
   endfacet
   facet normal 0.000000e+000 0.000000e+000 1.000000e+000
      outer loop
         vertex 6.060727e+001 2.907862e+001 3.055000e+002
         vertex 5.017315e+001 2.404065e+001 3.055000e+002
         vertex 5.060728e+001 2.407863e+001 3.055000e+002
      endloop
   endfacet
   facet normal 0.000000e+000 0.000000e+000 1.000000e+000
      outer loop
         vertex 6.060727e+001 2.907862e+001 3.055000e+002
         vertex 5.060728e+001 2.407863e+001 3.055000e+002
         vertex 5.104139e+001 2.404065e+001 3.055000e+002
      endloop
   endfacet
   facet normal 0.000000e+000 0.000000e+000 1.000000e+000
      outer loop
         vertex 5.146232e+001 2.392786e+001 3.055000e+002
         vertex 5.185727e+001 2.374369e+001 3.055000e+002
         vertex 6.060727e+001 2.907862e+001 3.055000e+002
      endloop
   endfacet
   facet normal 0.000000e+000 0.000000e+000 1.000000e+000
      outer loop
         vertex 6.060727e+001 2.907862e+001 3.055000e+002
         vertex 5.185727e+001 2.374369e+001 3.055000e+002
         vertex 5.221424e+001 2.349374e+001 3.055000e+002
      endloop
   endfacet
   facet normal 0.000000e+000 0.000000e+000 1.000000e+000
      outer loop
         vertex 6.060727e+001 2.907862e+001 3.055000e+002
         vertex 5.221424e+001 2.349374e+001 3.055000e+002
         vertex 5.252238e+001 2.318560e+001 3.055000e+002
      endloop
   endfacet
   facet normal -9.983120e-001 5.807914e-002 0.000000e+000
      outer loop
         vertex 5.306929e+001 2.114451e+001 2.965000e+002
         vertex 5.310727e+001 2.157863e+001 3.055000e+002
         vertex 5.310727e+001 2.157863e+001 2.965000e+002
      endloop
   endfacet
   facet normal -9.983120e-001 -5.807914e-002 0.000000e+000
      outer loop
         vertex 5.310727e+001 2.157863e+001 2.965000e+002
         vertex 5.310727e+001 2.157863e+001 3.055000e+002
         vertex 5.306929e+001 2.201275e+001 3.055000e+002
      endloop
   endfacet
   facet normal -9.932307e-001 -1.161583e-001 0.000000e+000
      outer loop
         vertex 5.310727e+001 2.157863e+001 2.965000e+002
         vertex 5.306929e+001 2.201275e+001 3.055000e+002
         vertex 5.306929e+001 2.201275e+001 2.965000e+002
      endloop
   endfacet
   facet normal -9.730600e-001 -2.305519e-001 0.000000e+000
      outer loop
         vertex 5.306929e+001 2.201275e+001 2.965000e+002
         vertex 5.306929e+001 2.201275e+001 3.055000e+002
         vertex 5.295650e+001 2.243368e+001 3.055000e+002
      endloop
   endfacet
   facet normal -9.579706e-001 -2.868663e-001 0.000000e+000
      outer loop
         vertex 5.306929e+001 2.201275e+001 2.965000e+002
         vertex 5.295650e+001 2.243368e+001 3.055000e+002
         vertex 5.295650e+001 2.243368e+001 2.965000e+002
      endloop
   endfacet
   facet normal -9.182422e-001 -3.960194e-001 0.000000e+000
      outer loop
         vertex 5.295650e+001 2.243368e+001 2.965000e+002
         vertex 5.295650e+001 2.243368e+001 3.055000e+002
         vertex 5.277234e+001 2.282862e+001 3.055000e+002
      endloop
   endfacet
   facet normal -8.936031e-001 -4.488580e-001 0.000000e+000
      outer loop
         vertex 5.295650e+001 2.243368e+001 2.965000e+002
         vertex 5.277234e+001 2.282862e+001 3.055000e+002
         vertex 5.277234e+001 2.282862e+001 2.965000e+002
      endloop
   endfacet
   facet normal -8.355240e-001 -5.494540e-001 0.000000e+000
      outer loop
         vertex 5.277234e+001 2.282862e+001 2.965000e+002
         vertex 5.277234e+001 2.282862e+001 3.055000e+002
         vertex 5.252238e+001 2.318560e+001 3.055000e+002
      endloop
   endfacet
   facet normal -8.020839e-001 -5.972114e-001 0.000000e+000
      outer loop
         vertex 5.277234e+001 2.282862e+001 2.965000e+002
         vertex 5.252238e+001 2.318560e+001 3.055000e+002
         vertex 5.252238e+001 2.318560e+001 2.965000e+002
      endloop
   endfacet
   facet normal -7.274188e-001 -6.861938e-001 0.000000e+000
      outer loop
         vertex 5.252238e+001 2.318560e+001 2.965000e+002
         vertex 5.252238e+001 2.318560e+001 3.055000e+002
         vertex 5.221424e+001 2.349374e+001 3.055000e+002
      endloop
   endfacet
   facet normal -6.861938e-001 -7.274188e-001 0.000000e+000
      outer loop
         vertex 5.252238e+001 2.318560e+001 2.965000e+002
         vertex 5.221424e+001 2.349374e+001 3.055000e+002
         vertex 5.221424e+001 2.349374e+001 2.965000e+002
      endloop
   endfacet
   facet normal -5.972114e-001 -8.020839e-001 0.000000e+000
      outer loop
         vertex 5.221424e+001 2.349374e+001 2.965000e+002
         vertex 5.221424e+001 2.349374e+001 3.055000e+002
         vertex 5.185727e+001 2.374369e+001 3.055000e+002
      endloop
   endfacet
   facet normal -5.494540e-001 -8.355240e-001 0.000000e+000
      outer loop
         vertex 5.221424e+001 2.349374e+001 2.965000e+002
         vertex 5.185727e+001 2.374369e+001 3.055000e+002
         vertex 5.185727e+001 2.374369e+001 2.965000e+002
      endloop
   endfacet
   facet normal -4.488580e-001 -8.936031e-001 0.000000e+000
      outer loop
         vertex 5.185727e+001 2.374369e+001 2.965000e+002
         vertex 5.185727e+001 2.374369e+001 3.055000e+002
         vertex 5.146232e+001 2.392786e+001 3.055000e+002
      endloop
   endfacet
   facet normal -3.960194e-001 -9.182422e-001 0.000000e+000
      outer loop
         vertex 5.185727e+001 2.374369e+001 2.965000e+002
         vertex 5.146232e+001 2.392786e+001 3.055000e+002
         vertex 5.146232e+001 2.392786e+001 2.965000e+002
      endloop
   endfacet
   facet normal -2.868663e-001 -9.579706e-001 0.000000e+000
      outer loop
         vertex 5.146232e+001 2.392786e+001 2.965000e+002
         vertex 5.146232e+001 2.392786e+001 3.055000e+002
         vertex 5.104139e+001 2.404065e+001 3.055000e+002
      endloop
   endfacet
   facet normal -2.305519e-001 -9.730600e-001 0.000000e+000
      outer loop
         vertex 5.146232e+001 2.392786e+001 2.965000e+002
         vertex 5.104139e+001 2.404065e+001 3.055000e+002
         vertex 5.104139e+001 2.404065e+001 2.965000e+002
      endloop
   endfacet
   facet normal -1.161583e-001 -9.932307e-001 0.000000e+000
      outer loop
         vertex 5.104139e+001 2.404065e+001 2.965000e+002
         vertex 5.104139e+001 2.404065e+001 3.055000e+002
         vertex 5.060728e+001 2.407863e+001 3.055000e+002
      endloop
   endfacet
   facet normal -5.807914e-002 -9.983120e-001 0.000000e+000
      outer loop
         vertex 5.104139e+001 2.404065e+001 2.965000e+002
         vertex 5.060728e+001 2.407863e+001 3.055000e+002
         vertex 5.060728e+001 2.407863e+001 2.965000e+002
      endloop
   endfacet
   facet normal 5.807914e-002 -9.983120e-001 0.000000e+000
      outer loop
         vertex 5.060728e+001 2.407863e+001 2.965000e+002
         vertex 5.060728e+001 2.407863e+001 3.055000e+002
         vertex 5.017315e+001 2.404065e+001 3.055000e+002
      endloop
   endfacet
   facet normal 1.161583e-001 -9.932307e-001 0.000000e+000
      outer loop
         vertex 5.060728e+001 2.407863e+001 2.965000e+002
         vertex 5.017315e+001 2.404065e+001 3.055000e+002
         vertex 5.017315e+001 2.404065e+001 2.965000e+002
      endloop
   endfacet
   facet normal 2.305519e-001 -9.730600e-001 0.000000e+000
      outer loop
         vertex 5.017315e+001 2.404065e+001 2.965000e+002
         vertex 5.017315e+001 2.404065e+001 3.055000e+002
         vertex 4.975222e+001 2.392786e+001 3.055000e+002
      endloop
   endfacet
   facet normal 2.868663e-001 -9.579706e-001 0.000000e+000
      outer loop
         vertex 5.017315e+001 2.404065e+001 2.965000e+002
         vertex 4.975222e+001 2.392786e+001 3.055000e+002
         vertex 4.975222e+001 2.392786e+001 2.965000e+002
      endloop
   endfacet
   facet normal 3.960194e-001 -9.182422e-001 0.000000e+000
      outer loop
         vertex 4.975222e+001 2.392786e+001 2.965000e+002
         vertex 4.975222e+001 2.392786e+001 3.055000e+002
         vertex 4.935727e+001 2.374369e+001 3.055000e+002
      endloop
   endfacet
   facet normal 4.488580e-001 -8.936031e-001 0.000000e+000
      outer loop
         vertex 4.975222e+001 2.392786e+001 2.965000e+002
         vertex 4.935727e+001 2.374369e+001 3.055000e+002
         vertex 4.935727e+001 2.374369e+001 2.965000e+002
      endloop
   endfacet
   facet normal 5.494540e-001 -8.355240e-001 0.000000e+000
      outer loop
         vertex 4.935727e+001 2.374369e+001 2.965000e+002
         vertex 4.935727e+001 2.374369e+001 3.055000e+002
         vertex 4.900031e+001 2.349374e+001 3.055000e+002
      endloop
   endfacet
   facet normal 5.972114e-001 -8.020839e-001 0.000000e+000
      outer loop
         vertex 4.935727e+001 2.374369e+001 2.965000e+002
         vertex 4.900031e+001 2.349374e+001 3.055000e+002
         vertex 4.900031e+001 2.349374e+001 2.965000e+002
      endloop
   endfacet
   facet normal 6.861938e-001 -7.274188e-001 0.000000e+000
      outer loop
         vertex 4.900031e+001 2.349374e+001 2.965000e+002
         vertex 4.900031e+001 2.349374e+001 3.055000e+002
         vertex 4.869216e+001 2.318560e+001 3.055000e+002
      endloop
   endfacet
   facet normal 7.274188e-001 -6.861938e-001 0.000000e+000
      outer loop
         vertex 4.900031e+001 2.349374e+001 2.965000e+002
         vertex 4.869216e+001 2.318560e+001 3.055000e+002
         vertex 4.869216e+001 2.318560e+001 2.965000e+002
      endloop
   endfacet
   facet normal 8.020839e-001 -5.972114e-001 0.000000e+000
      outer loop
         vertex 4.869216e+001 2.318560e+001 2.965000e+002
         vertex 4.869216e+001 2.318560e+001 3.055000e+002
         vertex 4.844221e+001 2.282862e+001 3.055000e+002
      endloop
   endfacet
   facet normal 8.355240e-001 -5.494540e-001 0.000000e+000
      outer loop
         vertex 4.869216e+001 2.318560e+001 2.965000e+002
         vertex 4.844221e+001 2.282862e+001 3.055000e+002
         vertex 4.844221e+001 2.282862e+001 2.965000e+002
      endloop
   endfacet
   facet normal 8.936031e-001 -4.488580e-001 0.000000e+000
      outer loop
         vertex 4.844221e+001 2.282862e+001 2.965000e+002
         vertex 4.844221e+001 2.282862e+001 3.055000e+002
         vertex 4.825805e+001 2.243368e+001 3.055000e+002
      endloop
   endfacet
   facet normal 9.182422e-001 -3.960194e-001 0.000000e+000
      outer loop
         vertex 4.844221e+001 2.282862e+001 2.965000e+002
         vertex 4.825805e+001 2.243368e+001 3.055000e+002
         vertex 4.825805e+001 2.243368e+001 2.965000e+002
      endloop
   endfacet
   facet normal 9.579706e-001 -2.868663e-001 0.000000e+000
      outer loop
         vertex 4.825805e+001 2.243368e+001 2.965000e+002
         vertex 4.825805e+001 2.243368e+001 3.055000e+002
         vertex 4.814525e+001 2.201275e+001 3.055000e+002
      endloop
   endfacet
   facet normal 9.730600e-001 -2.305519e-001 0.000000e+000
      outer loop
         vertex 4.825805e+001 2.243368e+001 2.965000e+002
         vertex 4.814525e+001 2.201275e+001 3.055000e+002
         vertex 4.814525e+001 2.201275e+001 2.965000e+002
      endloop
   endfacet
   facet normal 9.932307e-001 -1.161583e-001 0.000000e+000
      outer loop
         vertex 4.814525e+001 2.201275e+001 2.965000e+002
         vertex 4.814525e+001 2.201275e+001 3.055000e+002
         vertex 4.810727e+001 2.157863e+001 3.055000e+002
      endloop
   endfacet
   facet normal 9.983120e-001 -5.807914e-002 0.000000e+000
      outer loop
         vertex 4.814525e+001 2.201275e+001 2.965000e+002
         vertex 4.810727e+001 2.157863e+001 3.055000e+002
         vertex 4.810727e+001 2.157863e+001 2.965000e+002
      endloop
   endfacet
   facet normal 9.983120e-001 5.807914e-002 0.000000e+000
      outer loop
         vertex 4.810727e+001 2.157863e+001 2.965000e+002
         vertex 4.810727e+001 2.157863e+001 3.055000e+002
         vertex 4.814525e+001 2.114451e+001 3.055000e+002
      endloop
   endfacet
   facet normal 9.932307e-001 1.161583e-001 0.000000e+000
      outer loop
         vertex 4.810727e+001 2.157863e+001 2.965000e+002
         vertex 4.814525e+001 2.114451e+001 3.055000e+002
         vertex 4.814525e+001 2.114451e+001 2.965000e+002
      endloop
   endfacet
   facet normal 9.730600e-001 2.305519e-001 0.000000e+000
      outer loop
         vertex 4.814525e+001 2.114451e+001 2.965000e+002
         vertex 4.814525e+001 2.114451e+001 3.055000e+002
         vertex 4.825805e+001 2.072358e+001 3.055000e+002
      endloop
   endfacet
   facet normal 9.579706e-001 2.868663e-001 0.000000e+000
      outer loop
         vertex 4.814525e+001 2.114451e+001 2.965000e+002
         vertex 4.825805e+001 2.072358e+001 3.055000e+002
         vertex 4.825805e+001 2.072358e+001 2.965000e+002
      endloop
   endfacet
   facet normal 9.182422e-001 3.960194e-001 0.000000e+000
      outer loop
         vertex 4.825805e+001 2.072358e+001 2.965000e+002
         vertex 4.825805e+001 2.072358e+001 3.055000e+002
         vertex 4.844221e+001 2.032863e+001 3.055000e+002
      endloop
   endfacet
   facet normal 8.936031e-001 4.488580e-001 0.000000e+000
      outer loop
         vertex 4.825805e+001 2.072358e+001 2.965000e+002
         vertex 4.844221e+001 2.032863e+001 3.055000e+002
         vertex 4.844221e+001 2.032863e+001 2.965000e+002
      endloop
   endfacet
   facet normal 8.355240e-001 5.494540e-001 0.000000e+000
      outer loop
         vertex 4.844221e+001 2.032863e+001 2.965000e+002
         vertex 4.844221e+001 2.032863e+001 3.055000e+002
         vertex 4.869216e+001 1.997166e+001 3.055000e+002
      endloop
   endfacet
   facet normal 8.020839e-001 5.972114e-001 0.000000e+000
      outer loop
         vertex 4.844221e+001 2.032863e+001 2.965000e+002
         vertex 4.869216e+001 1.997166e+001 3.055000e+002
         vertex 4.869216e+001 1.997166e+001 2.965000e+002
      endloop
   endfacet
   facet normal 7.274188e-001 6.861938e-001 0.000000e+000
      outer loop
         vertex 4.869216e+001 1.997166e+001 2.965000e+002
         vertex 4.869216e+001 1.997166e+001 3.055000e+002
         vertex 4.900031e+001 1.966352e+001 3.055000e+002
      endloop
   endfacet
   facet normal 6.861938e-001 7.274188e-001 0.000000e+000
      outer loop
         vertex 4.869216e+001 1.997166e+001 2.965000e+002
         vertex 4.900031e+001 1.966352e+001 3.055000e+002
         vertex 4.900031e+001 1.966352e+001 2.965000e+002
      endloop
   endfacet
   facet normal 5.972114e-001 8.020839e-001 0.000000e+000
      outer loop
         vertex 4.900031e+001 1.966352e+001 2.965000e+002
         vertex 4.900031e+001 1.966352e+001 3.055000e+002
         vertex 4.935727e+001 1.941356e+001 3.055000e+002
      endloop
   endfacet
   facet normal 5.494540e-001 8.355240e-001 0.000000e+000
      outer loop
         vertex 4.900031e+001 1.966352e+001 2.965000e+002
         vertex 4.935727e+001 1.941356e+001 3.055000e+002
         vertex 4.935727e+001 1.941356e+001 2.965000e+002
      endloop
   endfacet
   facet normal 4.488580e-001 8.936031e-001 0.000000e+000
      outer loop
         vertex 4.935727e+001 1.941356e+001 2.965000e+002
         vertex 4.935727e+001 1.941356e+001 3.055000e+002
         vertex 4.975222e+001 1.922939e+001 3.055000e+002
      endloop
   endfacet
   facet normal 3.960194e-001 9.182422e-001 0.000000e+000
      outer loop
         vertex 4.935727e+001 1.941356e+001 2.965000e+002
         vertex 4.975222e+001 1.922939e+001 3.055000e+002
         vertex 4.975222e+001 1.922939e+001 2.965000e+002
      endloop
   endfacet
   facet normal 2.868663e-001 9.579706e-001 0.000000e+000
      outer loop
         vertex 4.975222e+001 1.922939e+001 2.965000e+002
         vertex 4.975222e+001 1.922939e+001 3.055000e+002
         vertex 5.017315e+001 1.911661e+001 3.055000e+002
      endloop
   endfacet
   facet normal 2.305519e-001 9.730600e-001 0.000000e+000
      outer loop
         vertex 4.975222e+001 1.922939e+001 2.965000e+002
         vertex 5.017315e+001 1.911661e+001 3.055000e+002
         vertex 5.017315e+001 1.911661e+001 2.965000e+002
      endloop
   endfacet
   facet normal 1.161583e-001 9.932307e-001 0.000000e+000
      outer loop
         vertex 5.017315e+001 1.911661e+001 2.965000e+002
         vertex 5.017315e+001 1.911661e+001 3.055000e+002
         vertex 5.060728e+001 1.907862e+001 3.055000e+002
      endloop
   endfacet
   facet normal 5.807914e-002 9.983120e-001 0.000000e+000
      outer loop
         vertex 5.017315e+001 1.911661e+001 2.965000e+002
         vertex 5.060728e+001 1.907862e+001 3.055000e+002
         vertex 5.060728e+001 1.907862e+001 2.965000e+002
      endloop
   endfacet
   facet normal -5.807914e-002 9.983120e-001 0.000000e+000
      outer loop
         vertex 5.060728e+001 1.907862e+001 2.965000e+002
         vertex 5.060728e+001 1.907862e+001 3.055000e+002
         vertex 5.104139e+001 1.911661e+001 3.055000e+002
      endloop
   endfacet
   facet normal -1.161583e-001 9.932307e-001 0.000000e+000
      outer loop
         vertex 5.060728e+001 1.907862e+001 2.965000e+002
         vertex 5.104139e+001 1.911661e+001 3.055000e+002
         vertex 5.104139e+001 1.911661e+001 2.965000e+002
      endloop
   endfacet
   facet normal -2.305519e-001 9.730600e-001 0.000000e+000
      outer loop
         vertex 5.104139e+001 1.911661e+001 2.965000e+002
         vertex 5.104139e+001 1.911661e+001 3.055000e+002
         vertex 5.146232e+001 1.922939e+001 3.055000e+002
      endloop
   endfacet
   facet normal -2.868663e-001 9.579706e-001 0.000000e+000
      outer loop
         vertex 5.104139e+001 1.911661e+001 2.965000e+002
         vertex 5.146232e+001 1.922939e+001 3.055000e+002
         vertex 5.146232e+001 1.922939e+001 2.965000e+002
      endloop
   endfacet
   facet normal -3.960194e-001 9.182422e-001 0.000000e+000
      outer loop
         vertex 5.146232e+001 1.922939e+001 2.965000e+002
         vertex 5.146232e+001 1.922939e+001 3.055000e+002
         vertex 5.185727e+001 1.941356e+001 3.055000e+002
      endloop
   endfacet
   facet normal -4.488580e-001 8.936031e-001 0.000000e+000
      outer loop
         vertex 5.146232e+001 1.922939e+001 2.965000e+002
         vertex 5.185727e+001 1.941356e+001 3.055000e+002
         vertex 5.185727e+001 1.941356e+001 2.965000e+002
      endloop
   endfacet
   facet normal -5.494540e-001 8.355240e-001 0.000000e+000
      outer loop
         vertex 5.185727e+001 1.941356e+001 2.965000e+002
         vertex 5.185727e+001 1.941356e+001 3.055000e+002
         vertex 5.221424e+001 1.966352e+001 3.055000e+002
      endloop
   endfacet
   facet normal -5.972114e-001 8.020839e-001 0.000000e+000
      outer loop
         vertex 5.185727e+001 1.941356e+001 2.965000e+002
         vertex 5.221424e+001 1.966352e+001 3.055000e+002
         vertex 5.221424e+001 1.966352e+001 2.965000e+002
      endloop
   endfacet
   facet normal -6.861938e-001 7.274188e-001 0.000000e+000
      outer loop
         vertex 5.221424e+001 1.966352e+001 2.965000e+002
         vertex 5.221424e+001 1.966352e+001 3.055000e+002
         vertex 5.252238e+001 1.997166e+001 3.055000e+002
      endloop
   endfacet
   facet normal -7.274188e-001 6.861938e-001 0.000000e+000
      outer loop
         vertex 5.221424e+001 1.966352e+001 2.965000e+002
         vertex 5.252238e+001 1.997166e+001 3.055000e+002
         vertex 5.252238e+001 1.997166e+001 2.965000e+002
      endloop
   endfacet
   facet normal -8.020839e-001 5.972114e-001 0.000000e+000
      outer loop
         vertex 5.252238e+001 1.997166e+001 2.965000e+002
         vertex 5.252238e+001 1.997166e+001 3.055000e+002
         vertex 5.277234e+001 2.032863e+001 3.055000e+002
      endloop
   endfacet
   facet normal -8.355240e-001 5.494540e-001 0.000000e+000
      outer loop
         vertex 5.252238e+001 1.997166e+001 2.965000e+002
         vertex 5.277234e+001 2.032863e+001 3.055000e+002
         vertex 5.277234e+001 2.032863e+001 2.965000e+002
      endloop
   endfacet
   facet normal -8.936031e-001 4.488580e-001 0.000000e+000
      outer loop
         vertex 5.277234e+001 2.032863e+001 2.965000e+002
         vertex 5.277234e+001 2.032863e+001 3.055000e+002
         vertex 5.295650e+001 2.072358e+001 3.055000e+002
      endloop
   endfacet
   facet normal -9.182422e-001 3.960194e-001 0.000000e+000
      outer loop
         vertex 5.277234e+001 2.032863e+001 2.965000e+002
         vertex 5.295650e+001 2.072358e+001 3.055000e+002
         vertex 5.295650e+001 2.072358e+001 2.965000e+002
      endloop
   endfacet
   facet normal -9.579706e-001 2.868663e-001 0.000000e+000
      outer loop
         vertex 5.295650e+001 2.072358e+001 2.965000e+002
         vertex 5.295650e+001 2.072358e+001 3.055000e+002
         vertex 5.306929e+001 2.114451e+001 3.055000e+002
      endloop
   endfacet
   facet normal -9.730600e-001 2.305519e-001 0.000000e+000
      outer loop
         vertex 5.295650e+001 2.072358e+001 2.965000e+002
         vertex 5.306929e+001 2.114451e+001 3.055000e+002
         vertex 5.306929e+001 2.114451e+001 2.965000e+002
      endloop
   endfacet
   facet normal -9.932307e-001 1.161583e-001 0.000000e+000
      outer loop
         vertex 5.306929e+001 2.114451e+001 2.965000e+002
         vertex 5.306929e+001 2.114451e+001 3.055000e+002
         vertex 5.310727e+001 2.157863e+001 3.055000e+002
      endloop
   endfacet
endsolid