solid 2D Plot structure - Pièce1-8
   facet normal -1.000000e+000 0.000000e+000 0.000000e+000
      outer loop
         vertex 1.206073e+002 2.907862e+001 3.550000e+001
         vertex 1.206073e+002 4.078627e+000 3.550000e+001
         vertex 1.206073e+002 2.907862e+001 4.450000e+001
      endloop
   endfacet
   facet normal -1.000000e+000 0.000000e+000 0.000000e+000
      outer loop
         vertex 1.206073e+002 2.907862e+001 4.450000e+001
         vertex 1.206073e+002 4.078627e+000 3.550000e+001
         vertex 1.206073e+002 4.078627e+000 4.450000e+001
      endloop
   endfacet
   facet normal -1.734723e-016 1.000000e+000 0.000000e+000
      outer loop
         vertex 1.406073e+002 2.907862e+001 3.550000e+001
         vertex 1.206073e+002 2.907862e+001 3.550000e+001
         vertex 1.406073e+002 2.907862e+001 4.450000e+001
      endloop
   endfacet
   facet normal -1.734723e-016 1.000000e+000 0.000000e+000
      outer loop
         vertex 1.406073e+002 2.907862e+001 4.450000e+001
         vertex 1.206073e+002 2.907862e+001 3.550000e+001
         vertex 1.206073e+002 2.907862e+001 4.450000e+001
      endloop
   endfacet
   facet normal 1.000000e+000 5.551115e-016 0.000000e+000
      outer loop
         vertex 1.406073e+002 4.078627e+000 3.550000e+001
         vertex 1.406073e+002 2.907862e+001 3.550000e+001
         vertex 1.406073e+002 4.078627e+000 4.450000e+001
      endloop
   endfacet
   facet normal 1.000000e+000 5.551115e-016 0.000000e+000
      outer loop
         vertex 1.406073e+002 4.078627e+000 4.450000e+001
         vertex 1.406073e+002 2.907862e+001 3.550000e+001
         vertex 1.406073e+002 2.907862e+001 4.450000e+001
      endloop
   endfacet
   facet normal 0.000000e+000 1.000000e+000 0.000000e+000
      outer loop
         vertex 1.506073e+002 4.078627e+000 3.550000e+001
         vertex 1.406073e+002 4.078627e+000 3.550000e+001
         vertex 1.506073e+002 4.078627e+000 4.450000e+001
      endloop
   endfacet
   facet normal 0.000000e+000 1.000000e+000 0.000000e+000
      outer loop
         vertex 1.506073e+002 4.078627e+000 4.450000e+001
         vertex 1.406073e+002 4.078627e+000 3.550000e+001
         vertex 1.406073e+002 4.078627e+000 4.450000e+001
      endloop
   endfacet
   facet normal 1.000000e+000 1.734723e-015 0.000000e+000
      outer loop
         vertex 1.506073e+002 7.862657e-002 3.550000e+001
         vertex 1.506073e+002 4.078627e+000 3.550000e+001
         vertex 1.506073e+002 7.862657e-002 4.450000e+001
      endloop
   endfacet
   facet normal 1.000000e+000 1.734723e-015 0.000000e+000
      outer loop
         vertex 1.506073e+002 7.862657e-002 4.450000e+001
         vertex 1.506073e+002 4.078627e+000 3.550000e+001
         vertex 1.506073e+002 4.078627e+000 4.450000e+001
      endloop
   endfacet
   facet normal 2.724943e-016 -1.000000e+000 0.000000e+000
      outer loop
         vertex 1.106073e+002 7.862657e-002 3.550000e+001
         vertex 1.506073e+002 7.862657e-002 3.550000e+001
         vertex 1.106073e+002 7.862657e-002 4.450000e+001
      endloop
   endfacet
   facet normal 2.724943e-016 -1.000000e+000 0.000000e+000
      outer loop
         vertex 1.106073e+002 7.862657e-002 4.450000e+001
         vertex 1.506073e+002 7.862657e-002 3.550000e+001
         vertex 1.506073e+002 7.862657e-002 4.450000e+001
      endloop
   endfacet
   facet normal -1.000000e+000 0.000000e+000 0.000000e+000
      outer loop
         vertex 1.106073e+002 4.078627e+000 3.550000e+001
         vertex 1.106073e+002 7.862657e-002 3.550000e+001
         vertex 1.106073e+002 4.078627e+000 4.450000e+001
      endloop
   endfacet
   facet normal -1.000000e+000 0.000000e+000 0.000000e+000
      outer loop
         vertex 1.106073e+002 4.078627e+000 4.450000e+001
         vertex 1.106073e+002 7.862657e-002 3.550000e+001
         vertex 1.106073e+002 7.862657e-002 4.450000e+001
      endloop
   endfacet
   facet normal 0.000000e+000 1.000000e+000 0.000000e+000
      outer loop
         vertex 1.206073e+002 4.078627e+000 3.550000e+001
         vertex 1.106073e+002 4.078627e+000 3.550000e+001
         vertex 1.206073e+002 4.078627e+000 4.450000e+001
      endloop
   endfacet
   facet normal 0.000000e+000 1.000000e+000 0.000000e+000
      outer loop
         vertex 1.206073e+002 4.078627e+000 4.450000e+001
         vertex 1.106073e+002 4.078627e+000 3.550000e+001
         vertex 1.106073e+002 4.078627e+000 4.450000e+001
      endloop
   endfacet
   facet normal 0.000000e+000 0.000000e+000 -1.000000e+000
      outer loop
         vertex 1.106073e+002 7.862657e-002 3.550000e+001
         vertex 1.106073e+002 4.078627e+000 3.550000e+001
         vertex 1.206073e+002 4.078627e+000 3.550000e+001
      endloop
   endfacet
   facet normal 0.000000e+000 0.000000e+000 -1.000000e+000
      outer loop
         vertex 1.106073e+002 7.862657e-002 3.550000e+001
         vertex 1.206073e+002 4.078627e+000 3.550000e+001
         vertex 1.506073e+002 7.862657e-002 3.550000e+001
      endloop
   endfacet
   facet normal 0.000000e+000 0.000000e+000 -1.000000e+000
      outer loop
         vertex 1.506073e+002 7.862657e-002 3.550000e+001
         vertex 1.206073e+002 4.078627e+000 3.550000e+001
         vertex 1.406073e+002 4.078627e+000 3.550000e+001
      endloop
   endfacet
   facet normal 0.000000e+000 0.000000e+000 -1.000000e+000
      outer loop
         vertex 1.506073e+002 7.862657e-002 3.550000e+001
         vertex 1.406073e+002 4.078627e+000 3.550000e+001
         vertex 1.506073e+002 4.078627e+000 3.550000e+001
      endloop
   endfacet
   facet normal 0.000000e+000 0.000000e+000 -1.000000e+000
      outer loop
         vertex 1.282581e+002 2.072358e+001 3.550000e+001
         vertex 1.284422e+002 2.032863e+001 3.550000e+001
         vertex 1.206073e+002 4.078627e+000 3.550000e+001
      endloop
   endfacet
   facet normal 0.000000e+000 0.000000e+000 -1.000000e+000
      outer loop
         vertex 1.327723e+002 2.032863e+001 3.550000e+001
         vertex 1.406073e+002 4.078627e+000 3.550000e+001
         vertex 1.325224e+002 1.997166e+001 3.550000e+001
      endloop
   endfacet
   facet normal 0.000000e+000 0.000000e+000 -1.000000e+000
      outer loop
         vertex 1.325224e+002 1.997166e+001 3.550000e+001
         vertex 1.406073e+002 4.078627e+000 3.550000e+001
         vertex 1.322142e+002 1.966352e+001 3.550000e+001
      endloop
   endfacet
   facet normal 0.000000e+000 0.000000e+000 -1.000000e+000
      outer loop
         vertex 1.297522e+002 2.392786e+001 3.550000e+001
         vertex 1.293573e+002 2.374369e+001 3.550000e+001
         vertex 1.206073e+002 2.907862e+001 3.550000e+001
      endloop
   endfacet
   facet normal 0.000000e+000 0.000000e+000 -1.000000e+000
      outer loop
         vertex 1.327723e+002 2.032863e+001 3.550000e+001
         vertex 1.329565e+002 2.072358e+001 3.550000e+001
         vertex 1.406073e+002 4.078627e+000 3.550000e+001
      endloop
   endfacet
   facet normal 0.000000e+000 0.000000e+000 -1.000000e+000
      outer loop
         vertex 1.406073e+002 4.078627e+000 3.550000e+001
         vertex 1.329565e+002 2.072358e+001 3.550000e+001
         vertex 1.330693e+002 2.114451e+001 3.550000e+001
      endloop
   endfacet
   facet normal 0.000000e+000 0.000000e+000 -1.000000e+000
      outer loop
         vertex 1.406073e+002 4.078627e+000 3.550000e+001
         vertex 1.330693e+002 2.114451e+001 3.550000e+001
         vertex 1.406073e+002 2.907862e+001 3.550000e+001
      endloop
   endfacet
   facet normal 0.000000e+000 0.000000e+000 -1.000000e+000
      outer loop
         vertex 1.406073e+002 2.907862e+001 3.550000e+001
         vertex 1.330693e+002 2.114451e+001 3.550000e+001
         vertex 1.331073e+002 2.157863e+001 3.550000e+001
      endloop
   endfacet
   facet normal 0.000000e+000 0.000000e+000 -1.000000e+000
      outer loop
         vertex 1.406073e+002 2.907862e+001 3.550000e+001
         vertex 1.331073e+002 2.157863e+001 3.550000e+001
         vertex 1.330693e+002 2.201275e+001 3.550000e+001
      endloop
   endfacet
   facet normal 0.000000e+000 0.000000e+000 -1.000000e+000
      outer loop
         vertex 1.330693e+002 2.201275e+001 3.550000e+001
         vertex 1.329565e+002 2.243368e+001 3.550000e+001
         vertex 1.406073e+002 2.907862e+001 3.550000e+001
      endloop
   endfacet
   facet normal 0.000000e+000 0.000000e+000 -1.000000e+000
      outer loop
         vertex 1.406073e+002 2.907862e+001 3.550000e+001
         vertex 1.329565e+002 2.243368e+001 3.550000e+001
         vertex 1.327723e+002 2.282862e+001 3.550000e+001
      endloop
   endfacet
   facet normal 0.000000e+000 0.000000e+000 -1.000000e+000
      outer loop
         vertex 1.406073e+002 2.907862e+001 3.550000e+001
         vertex 1.327723e+002 2.282862e+001 3.550000e+001
         vertex 1.325224e+002 2.318560e+001 3.550000e+001
      endloop
   endfacet
   facet normal 0.000000e+000 0.000000e+000 -1.000000e+000
      outer loop
         vertex 1.310414e+002 1.911661e+001 3.550000e+001
         vertex 1.314623e+002 1.922939e+001 3.550000e+001
         vertex 1.406073e+002 4.078627e+000 3.550000e+001
      endloop
   endfacet
   facet normal 0.000000e+000 0.000000e+000 -1.000000e+000
      outer loop
         vertex 1.406073e+002 4.078627e+000 3.550000e+001
         vertex 1.314623e+002 1.922939e+001 3.550000e+001
         vertex 1.318573e+002 1.941356e+001 3.550000e+001
      endloop
   endfacet
   facet normal 0.000000e+000 0.000000e+000 -1.000000e+000
      outer loop
         vertex 1.406073e+002 4.078627e+000 3.550000e+001
         vertex 1.318573e+002 1.941356e+001 3.550000e+001
         vertex 1.322142e+002 1.966352e+001 3.550000e+001
      endloop
   endfacet
   facet normal 0.000000e+000 0.000000e+000 -1.000000e+000
      outer loop
         vertex 1.293573e+002 2.374369e+001 3.550000e+001
         vertex 1.290003e+002 2.349374e+001 3.550000e+001
         vertex 1.206073e+002 2.907862e+001 3.550000e+001
      endloop
   endfacet
   facet normal 0.000000e+000 0.000000e+000 -1.000000e+000
      outer loop
         vertex 1.206073e+002 2.907862e+001 3.550000e+001
         vertex 1.290003e+002 2.349374e+001 3.550000e+001
         vertex 1.286922e+002 2.318560e+001 3.550000e+001
      endloop
   endfacet
   facet normal 0.000000e+000 0.000000e+000 -1.000000e+000
      outer loop
         vertex 1.206073e+002 2.907862e+001 3.550000e+001
         vertex 1.286922e+002 2.318560e+001 3.550000e+001
         vertex 1.284422e+002 2.282862e+001 3.550000e+001
      endloop
   endfacet
   facet normal 0.000000e+000 0.000000e+000 -1.000000e+000
      outer loop
         vertex 1.206073e+002 2.907862e+001 3.550000e+001
         vertex 1.281073e+002 2.157863e+001 3.550000e+001
         vertex 1.206073e+002 4.078627e+000 3.550000e+001
      endloop
   endfacet
   facet normal 0.000000e+000 0.000000e+000 -1.000000e+000
      outer loop
         vertex 1.206073e+002 4.078627e+000 3.550000e+001
         vertex 1.281073e+002 2.157863e+001 3.550000e+001
         vertex 1.281452e+002 2.114451e+001 3.550000e+001
      endloop
   endfacet
   facet normal 0.000000e+000 0.000000e+000 -1.000000e+000
      outer loop
         vertex 1.206073e+002 4.078627e+000 3.550000e+001
         vertex 1.281452e+002 2.114451e+001 3.550000e+001
         vertex 1.282581e+002 2.072358e+001 3.550000e+001
      endloop
   endfacet
   facet normal 0.000000e+000 0.000000e+000 -1.000000e+000
      outer loop
         vertex 1.284422e+002 2.032863e+001 3.550000e+001
         vertex 1.286922e+002 1.997166e+001 3.550000e+001
         vertex 1.206073e+002 4.078627e+000 3.550000e+001
      endloop
   endfacet
   facet normal 0.000000e+000 0.000000e+000 -1.000000e+000
      outer loop
         vertex 1.206073e+002 4.078627e+000 3.550000e+001
         vertex 1.286922e+002 1.997166e+001 3.550000e+001
         vertex 1.290003e+002 1.966352e+001 3.550000e+001
      endloop
   endfacet
   facet normal 0.000000e+000 0.000000e+000 -1.000000e+000
      outer loop
         vertex 1.206073e+002 4.078627e+000 3.550000e+001
         vertex 1.290003e+002 1.966352e+001 3.550000e+001
         vertex 1.293573e+002 1.941356e+001 3.550000e+001
      endloop
   endfacet
   facet normal 0.000000e+000 0.000000e+000 -1.000000e+000
      outer loop
         vertex 1.293573e+002 1.941356e+001 3.550000e+001
         vertex 1.297522e+002 1.922939e+001 3.550000e+001
         vertex 1.206073e+002 4.078627e+000 3.550000e+001
      endloop
   endfacet
   facet normal 0.000000e+000 0.000000e+000 -1.000000e+000
      outer loop
         vertex 1.206073e+002 4.078627e+000 3.550000e+001
         vertex 1.297522e+002 1.922939e+001 3.550000e+001
         vertex 1.301731e+002 1.911661e+001 3.550000e+001
      endloop
   endfacet
   facet normal 0.000000e+000 0.000000e+000 -1.000000e+000
      outer loop
         vertex 1.206073e+002 4.078627e+000 3.550000e+001
         vertex 1.301731e+002 1.911661e+001 3.550000e+001
         vertex 1.406073e+002 4.078627e+000 3.550000e+001
      endloop
   endfacet
   facet normal 0.000000e+000 0.000000e+000 -1.000000e+000
      outer loop
         vertex 1.406073e+002 4.078627e+000 3.550000e+001
         vertex 1.301731e+002 1.911661e+001 3.550000e+001
         vertex 1.306073e+002 1.907862e+001 3.550000e+001
      endloop
   endfacet
   facet normal 0.000000e+000 0.000000e+000 -1.000000e+000
      outer loop
         vertex 1.406073e+002 4.078627e+000 3.550000e+001
         vertex 1.306073e+002 1.907862e+001 3.550000e+001
         vertex 1.310414e+002 1.911661e+001 3.550000e+001
      endloop
   endfacet
   facet normal 0.000000e+000 0.000000e+000 -1.000000e+000
      outer loop
         vertex 1.325224e+002 2.318560e+001 3.550000e+001
         vertex 1.322142e+002 2.349374e+001 3.550000e+001
         vertex 1.406073e+002 2.907862e+001 3.550000e+001
      endloop
   endfacet
   facet normal 0.000000e+000 0.000000e+000 -1.000000e+000
      outer loop
         vertex 1.406073e+002 2.907862e+001 3.550000e+001
         vertex 1.322142e+002 2.349374e+001 3.550000e+001
         vertex 1.318573e+002 2.374369e+001 3.550000e+001
      endloop
   endfacet
   facet normal 0.000000e+000 0.000000e+000 -1.000000e+000
      outer loop
         vertex 1.406073e+002 2.907862e+001 3.550000e+001
         vertex 1.318573e+002 2.374369e+001 3.550000e+001
         vertex 1.314623e+002 2.392786e+001 3.550000e+001
      endloop
   endfacet
   facet normal 0.000000e+000 0.000000e+000 -1.000000e+000
      outer loop
         vertex 1.314623e+002 2.392786e+001 3.550000e+001
         vertex 1.310414e+002 2.404065e+001 3.550000e+001
         vertex 1.406073e+002 2.907862e+001 3.550000e+001
      endloop
   endfacet
   facet normal 0.000000e+000 0.000000e+000 -1.000000e+000
      outer loop
         vertex 1.406073e+002 2.907862e+001 3.550000e+001
         vertex 1.310414e+002 2.404065e+001 3.550000e+001
         vertex 1.306073e+002 2.407863e+001 3.550000e+001
      endloop
   endfacet
   facet normal 0.000000e+000 0.000000e+000 -1.000000e+000
      outer loop
         vertex 1.406073e+002 2.907862e+001 3.550000e+001
         vertex 1.306073e+002 2.407863e+001 3.550000e+001
         vertex 1.206073e+002 2.907862e+001 3.550000e+001
      endloop
   endfacet
   facet normal 0.000000e+000 0.000000e+000 -1.000000e+000
      outer loop
         vertex 1.206073e+002 2.907862e+001 3.550000e+001
         vertex 1.306073e+002 2.407863e+001 3.550000e+001
         vertex 1.301731e+002 2.404065e+001 3.550000e+001
      endloop
   endfacet
   facet normal 0.000000e+000 0.000000e+000 -1.000000e+000
      outer loop
         vertex 1.206073e+002 2.907862e+001 3.550000e+001
         vertex 1.301731e+002 2.404065e+001 3.550000e+001
         vertex 1.297522e+002 2.392786e+001 3.550000e+001
      endloop
   endfacet
   facet normal 0.000000e+000 0.000000e+000 -1.000000e+000
      outer loop
         vertex 1.284422e+002 2.282862e+001 3.550000e+001
         vertex 1.282581e+002 2.243368e+001 3.550000e+001
         vertex 1.206073e+002 2.907862e+001 3.550000e+001
      endloop
   endfacet
   facet normal 0.000000e+000 0.000000e+000 -1.000000e+000
      outer loop
         vertex 1.206073e+002 2.907862e+001 3.550000e+001
         vertex 1.282581e+002 2.243368e+001 3.550000e+001
         vertex 1.281452e+002 2.201275e+001 3.550000e+001
      endloop
   endfacet
   facet normal 0.000000e+000 0.000000e+000 -1.000000e+000
      outer loop
         vertex 1.206073e+002 2.907862e+001 3.550000e+001
         vertex 1.281452e+002 2.201275e+001 3.550000e+001
         vertex 1.281073e+002 2.157863e+001 3.550000e+001
      endloop
   endfacet
   facet normal 0.000000e+000 0.000000e+000 1.000000e+000
      outer loop
         vertex 1.106073e+002 4.078627e+000 4.450000e+001
         vertex 1.106073e+002 7.862657e-002 4.450000e+001
         vertex 1.206073e+002 4.078627e+000 4.450000e+001
      endloop
   endfacet
   facet normal 0.000000e+000 0.000000e+000 1.000000e+000
      outer loop
         vertex 1.206073e+002 4.078627e+000 4.450000e+001
         vertex 1.106073e+002 7.862657e-002 4.450000e+001
         vertex 1.506073e+002 7.862657e-002 4.450000e+001
      endloop
   endfacet
   facet normal 0.000000e+000 0.000000e+000 1.000000e+000
      outer loop
         vertex 1.206073e+002 4.078627e+000 4.450000e+001
         vertex 1.506073e+002 7.862657e-002 4.450000e+001
         vertex 1.406073e+002 4.078627e+000 4.450000e+001
      endloop
   endfacet
   facet normal 0.000000e+000 0.000000e+000 1.000000e+000
      outer loop
         vertex 1.406073e+002 4.078627e+000 4.450000e+001
         vertex 1.506073e+002 7.862657e-002 4.450000e+001
         vertex 1.506073e+002 4.078627e+000 4.450000e+001
      endloop
   endfacet
   facet normal 0.000000e+000 0.000000e+000 1.000000e+000
      outer loop
         vertex 1.327723e+002 2.032863e+001 4.450000e+001
         vertex 1.406073e+002 4.078627e+000 4.450000e+001
         vertex 1.329565e+002 2.072358e+001 4.450000e+001
      endloop
   endfacet
   facet normal 0.000000e+000 0.000000e+000 1.000000e+000
      outer loop
         vertex 1.329565e+002 2.072358e+001 4.450000e+001
         vertex 1.406073e+002 4.078627e+000 4.450000e+001
         vertex 1.330693e+002 2.114451e+001 4.450000e+001
      endloop
   endfacet
   facet normal 0.000000e+000 0.000000e+000 1.000000e+000
      outer loop
         vertex 1.327723e+002 2.032863e+001 4.450000e+001
         vertex 1.325224e+002 1.997166e+001 4.450000e+001
         vertex 1.406073e+002 4.078627e+000 4.450000e+001
      endloop
   endfacet
   facet normal 0.000000e+000 0.000000e+000 1.000000e+000
      outer loop
         vertex 1.406073e+002 4.078627e+000 4.450000e+001
         vertex 1.325224e+002 1.997166e+001 4.450000e+001
         vertex 1.322142e+002 1.966352e+001 4.450000e+001
      endloop
   endfacet
   facet normal 0.000000e+000 0.000000e+000 1.000000e+000
      outer loop
         vertex 1.406073e+002 4.078627e+000 4.450000e+001
         vertex 1.322142e+002 1.966352e+001 4.450000e+001
         vertex 1.318573e+002 1.941356e+001 4.450000e+001
      endloop
   endfacet
   facet normal 0.000000e+000 0.000000e+000 1.000000e+000
      outer loop
         vertex 1.206073e+002 4.078627e+000 4.450000e+001
         vertex 1.286922e+002 1.997166e+001 4.450000e+001
         vertex 1.284422e+002 2.032863e+001 4.450000e+001
      endloop
   endfacet
   facet normal 0.000000e+000 0.000000e+000 1.000000e+000
      outer loop
         vertex 1.293573e+002 2.374369e+001 4.450000e+001
         vertex 1.206073e+002 2.907862e+001 4.450000e+001
         vertex 1.290003e+002 2.349374e+001 4.450000e+001
      endloop
   endfacet
   facet normal 0.000000e+000 0.000000e+000 1.000000e+000
      outer loop
         vertex 1.290003e+002 2.349374e+001 4.450000e+001
         vertex 1.206073e+002 2.907862e+001 4.450000e+001
         vertex 1.286922e+002 2.318560e+001 4.450000e+001
      endloop
   endfacet
   facet normal 0.000000e+000 0.000000e+000 1.000000e+000
      outer loop
         vertex 1.281452e+002 2.201275e+001 4.450000e+001
         vertex 1.282581e+002 2.243368e+001 4.450000e+001
         vertex 1.206073e+002 2.907862e+001 4.450000e+001
      endloop
   endfacet
   facet normal 0.000000e+000 0.000000e+000 1.000000e+000
      outer loop
         vertex 1.206073e+002 2.907862e+001 4.450000e+001
         vertex 1.282581e+002 2.243368e+001 4.450000e+001
         vertex 1.284422e+002 2.282862e+001 4.450000e+001
      endloop
   endfacet
   facet normal 0.000000e+000 0.000000e+000 1.000000e+000
      outer loop
         vertex 1.206073e+002 2.907862e+001 4.450000e+001
         vertex 1.284422e+002 2.282862e+001 4.450000e+001
         vertex 1.286922e+002 2.318560e+001 4.450000e+001
      endloop
   endfacet
   facet normal 0.000000e+000 0.000000e+000 1.000000e+000
      outer loop
         vertex 1.406073e+002 2.907862e+001 4.450000e+001
         vertex 1.325224e+002 2.318560e+001 4.450000e+001
         vertex 1.327723e+002 2.282862e+001 4.450000e+001
      endloop
   endfacet
   facet normal 0.000000e+000 0.000000e+000 1.000000e+000
      outer loop
         vertex 1.206073e+002 4.078627e+000 4.450000e+001
         vertex 1.301731e+002 1.911661e+001 4.450000e+001
         vertex 1.297522e+002 1.922939e+001 4.450000e+001
      endloop
   endfacet
   facet normal 0.000000e+000 0.000000e+000 1.000000e+000
      outer loop
         vertex 1.327723e+002 2.282862e+001 4.450000e+001
         vertex 1.329565e+002 2.243368e+001 4.450000e+001
         vertex 1.406073e+002 2.907862e+001 4.450000e+001
      endloop
   endfacet
   facet normal 0.000000e+000 0.000000e+000 1.000000e+000
      outer loop
         vertex 1.406073e+002 2.907862e+001 4.450000e+001
         vertex 1.329565e+002 2.243368e+001 4.450000e+001
         vertex 1.330693e+002 2.201275e+001 4.450000e+001
      endloop
   endfacet
   facet normal 0.000000e+000 0.000000e+000 1.000000e+000
      outer loop
         vertex 1.406073e+002 2.907862e+001 4.450000e+001
         vertex 1.330693e+002 2.201275e+001 4.450000e+001
         vertex 1.406073e+002 4.078627e+000 4.450000e+001
      endloop
   endfacet
   facet normal 0.000000e+000 0.000000e+000 1.000000e+000
      outer loop
         vertex 1.406073e+002 4.078627e+000 4.450000e+001
         vertex 1.330693e+002 2.201275e+001 4.450000e+001
         vertex 1.331073e+002 2.157863e+001 4.450000e+001
      endloop
   endfacet
   facet normal 0.000000e+000 0.000000e+000 1.000000e+000
      outer loop
         vertex 1.406073e+002 4.078627e+000 4.450000e+001
         vertex 1.331073e+002 2.157863e+001 4.450000e+001
         vertex 1.330693e+002 2.114451e+001 4.450000e+001
      endloop
   endfacet
   facet normal 0.000000e+000 0.000000e+000 1.000000e+000
      outer loop
         vertex 1.318573e+002 1.941356e+001 4.450000e+001
         vertex 1.314623e+002 1.922939e+001 4.450000e+001
         vertex 1.406073e+002 4.078627e+000 4.450000e+001
      endloop
   endfacet
   facet normal 0.000000e+000 0.000000e+000 1.000000e+000
      outer loop
         vertex 1.406073e+002 4.078627e+000 4.450000e+001
         vertex 1.314623e+002 1.922939e+001 4.450000e+001
         vertex 1.310414e+002 1.911661e+001 4.450000e+001
      endloop
   endfacet
   facet normal 0.000000e+000 0.000000e+000 1.000000e+000
      outer loop
         vertex 1.406073e+002 4.078627e+000 4.450000e+001
         vertex 1.310414e+002 1.911661e+001 4.450000e+001
         vertex 1.206073e+002 4.078627e+000 4.450000e+001
      endloop
   endfacet
   facet normal 0.000000e+000 0.000000e+000 1.000000e+000
      outer loop
         vertex 1.206073e+002 4.078627e+000 4.450000e+001
         vertex 1.310414e+002 1.911661e+001 4.450000e+001
         vertex 1.306073e+002 1.907862e+001 4.450000e+001
      endloop
   endfacet
   facet normal 0.000000e+000 0.000000e+000 1.000000e+000
      outer loop
         vertex 1.206073e+002 4.078627e+000 4.450000e+001
         vertex 1.306073e+002 1.907862e+001 4.450000e+001
         vertex 1.301731e+002 1.911661e+001 4.450000e+001
      endloop
   endfacet
   facet normal 0.000000e+000 0.000000e+000 1.000000e+000
      outer loop
         vertex 1.284422e+002 2.032863e+001 4.450000e+001
         vertex 1.282581e+002 2.072358e+001 4.450000e+001
         vertex 1.206073e+002 4.078627e+000 4.450000e+001
      endloop
   endfacet
   facet normal 0.000000e+000 0.000000e+000 1.000000e+000
      outer loop
         vertex 1.206073e+002 4.078627e+000 4.450000e+001
         vertex 1.282581e+002 2.072358e+001 4.450000e+001
         vertex 1.281452e+002 2.114451e+001 4.450000e+001
      endloop
   endfacet
   facet normal 0.000000e+000 0.000000e+000 1.000000e+000
      outer loop
         vertex 1.206073e+002 4.078627e+000 4.450000e+001
         vertex 1.281452e+002 2.114451e+001 4.450000e+001
         vertex 1.206073e+002 2.907862e+001 4.450000e+001
      endloop
   endfacet
   facet normal 0.000000e+000 0.000000e+000 1.000000e+000
      outer loop
         vertex 1.206073e+002 2.907862e+001 4.450000e+001
         vertex 1.281452e+002 2.114451e+001 4.450000e+001
         vertex 1.281073e+002 2.157863e+001 4.450000e+001
      endloop
   endfacet
   facet normal 0.000000e+000 0.000000e+000 1.000000e+000
      outer loop
         vertex 1.206073e+002 2.907862e+001 4.450000e+001
         vertex 1.281073e+002 2.157863e+001 4.450000e+001
         vertex 1.281452e+002 2.201275e+001 4.450000e+001
      endloop
   endfacet
   facet normal 0.000000e+000 0.000000e+000 1.000000e+000
      outer loop
         vertex 1.406073e+002 2.907862e+001 4.450000e+001
         vertex 1.310414e+002 2.404065e+001 4.450000e+001
         vertex 1.314623e+002 2.392786e+001 4.450000e+001
      endloop
   endfacet
   facet normal 0.000000e+000 0.000000e+000 1.000000e+000
      outer loop
         vertex 1.297522e+002 1.922939e+001 4.450000e+001
         vertex 1.293573e+002 1.941356e+001 4.450000e+001
         vertex 1.206073e+002 4.078627e+000 4.450000e+001
      endloop
   endfacet
   facet normal 0.000000e+000 0.000000e+000 1.000000e+000
      outer loop
         vertex 1.206073e+002 4.078627e+000 4.450000e+001
         vertex 1.293573e+002 1.941356e+001 4.450000e+001
         vertex 1.290003e+002 1.966352e+001 4.450000e+001
      endloop
   endfacet
   facet normal 0.000000e+000 0.000000e+000 1.000000e+000
      outer loop
         vertex 1.206073e+002 4.078627e+000 4.450000e+001
         vertex 1.290003e+002 1.966352e+001 4.450000e+001
         vertex 1.286922e+002 1.997166e+001 4.450000e+001
      endloop
   endfacet
   facet normal 0.000000e+000 0.000000e+000 1.000000e+000
      outer loop
         vertex 1.293573e+002 2.374369e+001 4.450000e+001
         vertex 1.297522e+002 2.392786e+001 4.450000e+001
         vertex 1.206073e+002 2.907862e+001 4.450000e+001
      endloop
   endfacet
   facet normal 0.000000e+000 0.000000e+000 1.000000e+000
      outer loop
         vertex 1.206073e+002 2.907862e+001 4.450000e+001
         vertex 1.297522e+002 2.392786e+001 4.450000e+001
         vertex 1.301731e+002 2.404065e+001 4.450000e+001
      endloop
   endfacet
   facet normal 0.000000e+000 0.000000e+000 1.000000e+000
      outer loop
         vertex 1.206073e+002 2.907862e+001 4.450000e+001
         vertex 1.301731e+002 2.404065e+001 4.450000e+001
         vertex 1.406073e+002 2.907862e+001 4.450000e+001
      endloop
   endfacet
   facet normal 0.000000e+000 0.000000e+000 1.000000e+000
      outer loop
         vertex 1.406073e+002 2.907862e+001 4.450000e+001
         vertex 1.301731e+002 2.404065e+001 4.450000e+001
         vertex 1.306073e+002 2.407863e+001 4.450000e+001
      endloop
   endfacet
   facet normal 0.000000e+000 0.000000e+000 1.000000e+000
      outer loop
         vertex 1.406073e+002 2.907862e+001 4.450000e+001
         vertex 1.306073e+002 2.407863e+001 4.450000e+001
         vertex 1.310414e+002 2.404065e+001 4.450000e+001
      endloop
   endfacet
   facet normal 0.000000e+000 0.000000e+000 1.000000e+000
      outer loop
         vertex 1.314623e+002 2.392786e+001 4.450000e+001
         vertex 1.318573e+002 2.374369e+001 4.450000e+001
         vertex 1.406073e+002 2.907862e+001 4.450000e+001
      endloop
   endfacet
   facet normal 0.000000e+000 0.000000e+000 1.000000e+000
      outer loop
         vertex 1.406073e+002 2.907862e+001 4.450000e+001
         vertex 1.318573e+002 2.374369e+001 4.450000e+001
         vertex 1.322142e+002 2.349374e+001 4.450000e+001
      endloop
   endfacet
   facet normal 0.000000e+000 0.000000e+000 1.000000e+000
      outer loop
         vertex 1.406073e+002 2.907862e+001 4.450000e+001
         vertex 1.322142e+002 2.349374e+001 4.450000e+001
         vertex 1.325224e+002 2.318560e+001 4.450000e+001
      endloop
   endfacet
   facet normal -9.983120e-001 5.807914e-002 0.000000e+000
      outer loop
         vertex 1.330693e+002 2.114451e+001 3.550000e+001
         vertex 1.331073e+002 2.157863e+001 4.450000e+001
         vertex 1.331073e+002 2.157863e+001 3.550000e+001
      endloop
   endfacet
   facet normal -9.983120e-001 -5.807914e-002 0.000000e+000
      outer loop
         vertex 1.331073e+002 2.157863e+001 3.550000e+001
         vertex 1.331073e+002 2.157863e+001 4.450000e+001
         vertex 1.330693e+002 2.201275e+001 4.450000e+001
      endloop
   endfacet
   facet normal -9.932307e-001 -1.161583e-001 0.000000e+000
      outer loop
         vertex 1.331073e+002 2.157863e+001 3.550000e+001
         vertex 1.330693e+002 2.201275e+001 4.450000e+001
         vertex 1.330693e+002 2.201275e+001 3.550000e+001
      endloop
   endfacet
   facet normal -9.730600e-001 -2.305519e-001 0.000000e+000
      outer loop
         vertex 1.330693e+002 2.201275e+001 3.550000e+001
         vertex 1.330693e+002 2.201275e+001 4.450000e+001
         vertex 1.329565e+002 2.243368e+001 4.450000e+001
      endloop
   endfacet
   facet normal -9.579706e-001 -2.868663e-001 0.000000e+000
      outer loop
         vertex 1.330693e+002 2.201275e+001 3.550000e+001
         vertex 1.329565e+002 2.243368e+001 4.450000e+001
         vertex 1.329565e+002 2.243368e+001 3.550000e+001
      endloop
   endfacet
   facet normal -9.182422e-001 -3.960194e-001 0.000000e+000
      outer loop
         vertex 1.329565e+002 2.243368e+001 3.550000e+001
         vertex 1.329565e+002 2.243368e+001 4.450000e+001
         vertex 1.327723e+002 2.282862e+001 4.450000e+001
      endloop
   endfacet
   facet normal -8.936031e-001 -4.488580e-001 0.000000e+000
      outer loop
         vertex 1.329565e+002 2.243368e+001 3.550000e+001
         vertex 1.327723e+002 2.282862e+001 4.450000e+001
         vertex 1.327723e+002 2.282862e+001 3.550000e+001
      endloop
   endfacet
   facet normal -8.355240e-001 -5.494540e-001 0.000000e+000
      outer loop
         vertex 1.327723e+002 2.282862e+001 3.550000e+001
         vertex 1.327723e+002 2.282862e+001 4.450000e+001
         vertex 1.325224e+002 2.318560e+001 4.450000e+001
      endloop
   endfacet
   facet normal -8.020839e-001 -5.972114e-001 0.000000e+000
      outer loop
         vertex 1.327723e+002 2.282862e+001 3.550000e+001
         vertex 1.325224e+002 2.318560e+001 4.450000e+001
         vertex 1.325224e+002 2.318560e+001 3.550000e+001
      endloop
   endfacet
   facet normal -7.274188e-001 -6.861938e-001 0.000000e+000
      outer loop
         vertex 1.325224e+002 2.318560e+001 3.550000e+001
         vertex 1.325224e+002 2.318560e+001 4.450000e+001
         vertex 1.322142e+002 2.349374e+001 4.450000e+001
      endloop
   endfacet
   facet normal -6.861938e-001 -7.274188e-001 0.000000e+000
      outer loop
         vertex 1.325224e+002 2.318560e+001 3.550000e+001
         vertex 1.322142e+002 2.349374e+001 4.450000e+001
         vertex 1.322142e+002 2.349374e+001 3.550000e+001
      endloop
   endfacet
   facet normal -5.972114e-001 -8.020839e-001 0.000000e+000
      outer loop
         vertex 1.322142e+002 2.349374e+001 3.550000e+001
         vertex 1.322142e+002 2.349374e+001 4.450000e+001
         vertex 1.318573e+002 2.374369e+001 4.450000e+001
      endloop
   endfacet
   facet normal -5.494540e-001 -8.355240e-001 0.000000e+000
      outer loop
         vertex 1.322142e+002 2.349374e+001 3.550000e+001
         vertex 1.318573e+002 2.374369e+001 4.450000e+001
         vertex 1.318573e+002 2.374369e+001 3.550000e+001
      endloop
   endfacet
   facet normal -4.488580e-001 -8.936031e-001 0.000000e+000
      outer loop
         vertex 1.318573e+002 2.374369e+001 3.550000e+001
         vertex 1.318573e+002 2.374369e+001 4.450000e+001
         vertex 1.314623e+002 2.392786e+001 4.450000e+001
      endloop
   endfacet
   facet normal -3.960194e-001 -9.182422e-001 0.000000e+000
      outer loop
         vertex 1.318573e+002 2.374369e+001 3.550000e+001
         vertex 1.314623e+002 2.392786e+001 4.450000e+001
         vertex 1.314623e+002 2.392786e+001 3.550000e+001
      endloop
   endfacet
   facet normal -2.868663e-001 -9.579706e-001 0.000000e+000
      outer loop
         vertex 1.314623e+002 2.392786e+001 3.550000e+001
         vertex 1.314623e+002 2.392786e+001 4.450000e+001
         vertex 1.310414e+002 2.404065e+001 4.450000e+001
      endloop
   endfacet
   facet normal -2.305519e-001 -9.730600e-001 0.000000e+000
      outer loop
         vertex 1.314623e+002 2.392786e+001 3.550000e+001
         vertex 1.310414e+002 2.404065e+001 4.450000e+001
         vertex 1.310414e+002 2.404065e+001 3.550000e+001
      endloop
   endfacet
   facet normal -1.161583e-001 -9.932307e-001 0.000000e+000
      outer loop
         vertex 1.310414e+002 2.404065e+001 3.550000e+001
         vertex 1.310414e+002 2.404065e+001 4.450000e+001
         vertex 1.306073e+002 2.407863e+001 4.450000e+001
      endloop
   endfacet
   facet normal -5.807914e-002 -9.983120e-001 0.000000e+000
      outer loop
         vertex 1.310414e+002 2.404065e+001 3.550000e+001
         vertex 1.306073e+002 2.407863e+001 4.450000e+001
         vertex 1.306073e+002 2.407863e+001 3.550000e+001
      endloop
   endfacet
   facet normal 5.807914e-002 -9.983120e-001 0.000000e+000
      outer loop
         vertex 1.306073e+002 2.407863e+001 3.550000e+001
         vertex 1.306073e+002 2.407863e+001 4.450000e+001
         vertex 1.301731e+002 2.404065e+001 4.450000e+001
      endloop
   endfacet
   facet normal 1.161583e-001 -9.932307e-001 0.000000e+000
      outer loop
         vertex 1.306073e+002 2.407863e+001 3.550000e+001
         vertex 1.301731e+002 2.404065e+001 4.450000e+001
         vertex 1.301731e+002 2.404065e+001 3.550000e+001
      endloop
   endfacet
   facet normal 2.305519e-001 -9.730600e-001 0.000000e+000
      outer loop
         vertex 1.301731e+002 2.404065e+001 3.550000e+001
         vertex 1.301731e+002 2.404065e+001 4.450000e+001
         vertex 1.297522e+002 2.392786e+001 4.450000e+001
      endloop
   endfacet
   facet normal 2.868663e-001 -9.579706e-001 0.000000e+000
      outer loop
         vertex 1.301731e+002 2.404065e+001 3.550000e+001
         vertex 1.297522e+002 2.392786e+001 4.450000e+001
         vertex 1.297522e+002 2.392786e+001 3.550000e+001
      endloop
   endfacet
   facet normal 3.960194e-001 -9.182422e-001 0.000000e+000
      outer loop
         vertex 1.297522e+002 2.392786e+001 3.550000e+001
         vertex 1.297522e+002 2.392786e+001 4.450000e+001
         vertex 1.293573e+002 2.374369e+001 4.450000e+001
      endloop
   endfacet
   facet normal 4.488580e-001 -8.936031e-001 0.000000e+000
      outer loop
         vertex 1.297522e+002 2.392786e+001 3.550000e+001
         vertex 1.293573e+002 2.374369e+001 4.450000e+001
         vertex 1.293573e+002 2.374369e+001 3.550000e+001
      endloop
   endfacet
   facet normal 5.494540e-001 -8.355240e-001 0.000000e+000
      outer loop
         vertex 1.293573e+002 2.374369e+001 3.550000e+001
         vertex 1.293573e+002 2.374369e+001 4.450000e+001
         vertex 1.290003e+002 2.349374e+001 4.450000e+001
      endloop
   endfacet
   facet normal 5.972114e-001 -8.020839e-001 0.000000e+000
      outer loop
         vertex 1.293573e+002 2.374369e+001 3.550000e+001
         vertex 1.290003e+002 2.349374e+001 4.450000e+001
         vertex 1.290003e+002 2.349374e+001 3.550000e+001
      endloop
   endfacet
   facet normal 6.861938e-001 -7.274188e-001 0.000000e+000
      outer loop
         vertex 1.290003e+002 2.349374e+001 3.550000e+001
         vertex 1.290003e+002 2.349374e+001 4.450000e+001
         vertex 1.286922e+002 2.318560e+001 4.450000e+001
      endloop
   endfacet
   facet normal 7.274188e-001 -6.861938e-001 0.000000e+000
      outer loop
         vertex 1.290003e+002 2.349374e+001 3.550000e+001
         vertex 1.286922e+002 2.318560e+001 4.450000e+001
         vertex 1.286922e+002 2.318560e+001 3.550000e+001
      endloop
   endfacet
   facet normal 8.020839e-001 -5.972114e-001 0.000000e+000
      outer loop
         vertex 1.286922e+002 2.318560e+001 3.550000e+001
         vertex 1.286922e+002 2.318560e+001 4.450000e+001
         vertex 1.284422e+002 2.282862e+001 4.450000e+001
      endloop
   endfacet
   facet normal 8.355240e-001 -5.494540e-001 0.000000e+000
      outer loop
         vertex 1.286922e+002 2.318560e+001 3.550000e+001
         vertex 1.284422e+002 2.282862e+001 4.450000e+001
         vertex 1.284422e+002 2.282862e+001 3.550000e+001
      endloop
   endfacet
   facet normal 8.936031e-001 -4.488580e-001 0.000000e+000
      outer loop
         vertex 1.284422e+002 2.282862e+001 3.550000e+001
         vertex 1.284422e+002 2.282862e+001 4.450000e+001
         vertex 1.282581e+002 2.243368e+001 4.450000e+001
      endloop
   endfacet
   facet normal 9.182422e-001 -3.960194e-001 0.000000e+000
      outer loop
         vertex 1.284422e+002 2.282862e+001 3.550000e+001
         vertex 1.282581e+002 2.243368e+001 4.450000e+001
         vertex 1.282581e+002 2.243368e+001 3.550000e+001
      endloop
   endfacet
   facet normal 9.579706e-001 -2.868663e-001 0.000000e+000
      outer loop
         vertex 1.282581e+002 2.243368e+001 3.550000e+001
         vertex 1.282581e+002 2.243368e+001 4.450000e+001
         vertex 1.281452e+002 2.201275e+001 4.450000e+001
      endloop
   endfacet
   facet normal 9.730600e-001 -2.305519e-001 0.000000e+000
      outer loop
         vertex 1.282581e+002 2.243368e+001 3.550000e+001
         vertex 1.281452e+002 2.201275e+001 4.450000e+001
         vertex 1.281452e+002 2.201275e+001 3.550000e+001
      endloop
   endfacet
   facet normal 9.932307e-001 -1.161583e-001 0.000000e+000
      outer loop
         vertex 1.281452e+002 2.201275e+001 3.550000e+001
         vertex 1.281452e+002 2.201275e+001 4.450000e+001
         vertex 1.281073e+002 2.157863e+001 4.450000e+001
      endloop
   endfacet
   facet normal 9.983120e-001 -5.807914e-002 0.000000e+000
      outer loop
         vertex 1.281452e+002 2.201275e+001 3.550000e+001
         vertex 1.281073e+002 2.157863e+001 4.450000e+001
         vertex 1.281073e+002 2.157863e+001 3.550000e+001
      endloop
   endfacet
   facet normal 9.983120e-001 5.807914e-002 0.000000e+000
      outer loop
         vertex 1.281073e+002 2.157863e+001 3.550000e+001
         vertex 1.281073e+002 2.157863e+001 4.450000e+001
         vertex 1.281452e+002 2.114451e+001 4.450000e+001
      endloop
   endfacet
   facet normal 9.932307e-001 1.161583e-001 0.000000e+000
      outer loop
         vertex 1.281073e+002 2.157863e+001 3.550000e+001
         vertex 1.281452e+002 2.114451e+001 4.450000e+001
         vertex 1.281452e+002 2.114451e+001 3.550000e+001
      endloop
   endfacet
   facet normal 9.730600e-001 2.305519e-001 0.000000e+000
      outer loop
         vertex 1.281452e+002 2.114451e+001 3.550000e+001
         vertex 1.281452e+002 2.114451e+001 4.450000e+001
         vertex 1.282581e+002 2.072358e+001 4.450000e+001
      endloop
   endfacet
   facet normal 9.579706e-001 2.868663e-001 0.000000e+000
      outer loop
         vertex 1.281452e+002 2.114451e+001 3.550000e+001
         vertex 1.282581e+002 2.072358e+001 4.450000e+001
         vertex 1.282581e+002 2.072358e+001 3.550000e+001
      endloop
   endfacet
   facet normal 9.182422e-001 3.960194e-001 0.000000e+000
      outer loop
         vertex 1.282581e+002 2.072358e+001 3.550000e+001
         vertex 1.282581e+002 2.072358e+001 4.450000e+001
         vertex 1.284422e+002 2.032863e+001 4.450000e+001
      endloop
   endfacet
   facet normal 8.936031e-001 4.488580e-001 0.000000e+000
      outer loop
         vertex 1.282581e+002 2.072358e+001 3.550000e+001
         vertex 1.284422e+002 2.032863e+001 4.450000e+001
         vertex 1.284422e+002 2.032863e+001 3.550000e+001
      endloop
   endfacet
   facet normal 8.355240e-001 5.494540e-001 0.000000e+000
      outer loop
         vertex 1.284422e+002 2.032863e+001 3.550000e+001
         vertex 1.284422e+002 2.032863e+001 4.450000e+001
         vertex 1.286922e+002 1.997166e+001 4.450000e+001
      endloop
   endfacet
   facet normal 8.020839e-001 5.972114e-001 0.000000e+000
      outer loop
         vertex 1.284422e+002 2.032863e+001 3.550000e+001
         vertex 1.286922e+002 1.997166e+001 4.450000e+001
         vertex 1.286922e+002 1.997166e+001 3.550000e+001
      endloop
   endfacet
   facet normal 7.274188e-001 6.861938e-001 0.000000e+000
      outer loop
         vertex 1.286922e+002 1.997166e+001 3.550000e+001
         vertex 1.286922e+002 1.997166e+001 4.450000e+001
         vertex 1.290003e+002 1.966352e+001 4.450000e+001
      endloop
   endfacet
   facet normal 6.861938e-001 7.274188e-001 0.000000e+000
      outer loop
         vertex 1.286922e+002 1.997166e+001 3.550000e+001
         vertex 1.290003e+002 1.966352e+001 4.450000e+001
         vertex 1.290003e+002 1.966352e+001 3.550000e+001
      endloop
   endfacet
   facet normal 5.972114e-001 8.020839e-001 0.000000e+000
      outer loop
         vertex 1.290003e+002 1.966352e+001 3.550000e+001
         vertex 1.290003e+002 1.966352e+001 4.450000e+001
         vertex 1.293573e+002 1.941356e+001 4.450000e+001
      endloop
   endfacet
   facet normal 5.494540e-001 8.355240e-001 0.000000e+000
      outer loop
         vertex 1.290003e+002 1.966352e+001 3.550000e+001
         vertex 1.293573e+002 1.941356e+001 4.450000e+001
         vertex 1.293573e+002 1.941356e+001 3.550000e+001
      endloop
   endfacet
   facet normal 4.488580e-001 8.936031e-001 0.000000e+000
      outer loop
         vertex 1.293573e+002 1.941356e+001 3.550000e+001
         vertex 1.293573e+002 1.941356e+001 4.450000e+001
         vertex 1.297522e+002 1.922939e+001 4.450000e+001
      endloop
   endfacet
   facet normal 3.960194e-001 9.182422e-001 0.000000e+000
      outer loop
         vertex 1.293573e+002 1.941356e+001 3.550000e+001
         vertex 1.297522e+002 1.922939e+001 4.450000e+001
         vertex 1.297522e+002 1.922939e+001 3.550000e+001
      endloop
   endfacet
   facet normal 2.868663e-001 9.579706e-001 0.000000e+000
      outer loop
         vertex 1.297522e+002 1.922939e+001 3.550000e+001
         vertex 1.297522e+002 1.922939e+001 4.450000e+001
         vertex 1.301731e+002 1.911661e+001 4.450000e+001
      endloop
   endfacet
   facet normal 2.305519e-001 9.730600e-001 0.000000e+000
      outer loop
         vertex 1.297522e+002 1.922939e+001 3.550000e+001
         vertex 1.301731e+002 1.911661e+001 4.450000e+001
         vertex 1.301731e+002 1.911661e+001 3.550000e+001
      endloop
   endfacet
   facet normal 1.161583e-001 9.932307e-001 0.000000e+000
      outer loop
         vertex 1.301731e+002 1.911661e+001 3.550000e+001
         vertex 1.301731e+002 1.911661e+001 4.450000e+001
         vertex 1.306073e+002 1.907862e+001 4.450000e+001
      endloop
   endfacet
   facet normal 5.807914e-002 9.983120e-001 0.000000e+000
      outer loop
         vertex 1.301731e+002 1.911661e+001 3.550000e+001
         vertex 1.306073e+002 1.907862e+001 4.450000e+001
         vertex 1.306073e+002 1.907862e+001 3.550000e+001
      endloop
   endfacet
   facet normal -5.807914e-002 9.983120e-001 0.000000e+000
      outer loop
         vertex 1.306073e+002 1.907862e+001 3.550000e+001
         vertex 1.306073e+002 1.907862e+001 4.450000e+001
         vertex 1.310414e+002 1.911661e+001 4.450000e+001
      endloop
   endfacet
   facet normal -1.161583e-001 9.932307e-001 0.000000e+000
      outer loop
         vertex 1.306073e+002 1.907862e+001 3.550000e+001
         vertex 1.310414e+002 1.911661e+001 4.450000e+001
         vertex 1.310414e+002 1.911661e+001 3.550000e+001
      endloop
   endfacet
   facet normal -2.305519e-001 9.730600e-001 0.000000e+000
      outer loop
         vertex 1.310414e+002 1.911661e+001 3.550000e+001
         vertex 1.310414e+002 1.911661e+001 4.450000e+001
         vertex 1.314623e+002 1.922939e+001 4.450000e+001
      endloop
   endfacet
   facet normal -2.868663e-001 9.579706e-001 0.000000e+000
      outer loop
         vertex 1.310414e+002 1.911661e+001 3.550000e+001
         vertex 1.314623e+002 1.922939e+001 4.450000e+001
         vertex 1.314623e+002 1.922939e+001 3.550000e+001
      endloop
   endfacet
   facet normal -3.960194e-001 9.182422e-001 0.000000e+000
      outer loop
         vertex 1.314623e+002 1.922939e+001 3.550000e+001
         vertex 1.314623e+002 1.922939e+001 4.450000e+001
         vertex 1.318573e+002 1.941356e+001 4.450000e+001
      endloop
   endfacet
   facet normal -4.488580e-001 8.936031e-001 0.000000e+000
      outer loop
         vertex 1.314623e+002 1.922939e+001 3.550000e+001
         vertex 1.318573e+002 1.941356e+001 4.450000e+001
         vertex 1.318573e+002 1.941356e+001 3.550000e+001
      endloop
   endfacet
   facet normal -5.494540e-001 8.355240e-001 0.000000e+000
      outer loop
         vertex 1.318573e+002 1.941356e+001 3.550000e+001
         vertex 1.318573e+002 1.941356e+001 4.450000e+001
         vertex 1.322142e+002 1.966352e+001 4.450000e+001
      endloop
   endfacet
   facet normal -5.972114e-001 8.020839e-001 0.000000e+000
      outer loop
         vertex 1.318573e+002 1.941356e+001 3.550000e+001
         vertex 1.322142e+002 1.966352e+001 4.450000e+001
         vertex 1.322142e+002 1.966352e+001 3.550000e+001
      endloop
   endfacet
   facet normal -6.861938e-001 7.274188e-001 0.000000e+000
      outer loop
         vertex 1.322142e+002 1.966352e+001 3.550000e+001
         vertex 1.322142e+002 1.966352e+001 4.450000e+001
         vertex 1.325224e+002 1.997166e+001 4.450000e+001
      endloop
   endfacet
   facet normal -7.274188e-001 6.861938e-001 0.000000e+000
      outer loop
         vertex 1.322142e+002 1.966352e+001 3.550000e+001
         vertex 1.325224e+002 1.997166e+001 4.450000e+001
         vertex 1.325224e+002 1.997166e+001 3.550000e+001
      endloop
   endfacet
   facet normal -8.020839e-001 5.972114e-001 0.000000e+000
      outer loop
         vertex 1.325224e+002 1.997166e+001 3.550000e+001
         vertex 1.325224e+002 1.997166e+001 4.450000e+001
         vertex 1.327723e+002 2.032863e+001 4.450000e+001
      endloop
   endfacet
   facet normal -8.355240e-001 5.494540e-001 0.000000e+000
      outer loop
         vertex 1.325224e+002 1.997166e+001 3.550000e+001
         vertex 1.327723e+002 2.032863e+001 4.450000e+001
         vertex 1.327723e+002 2.032863e+001 3.550000e+001
      endloop
   endfacet
   facet normal -8.936031e-001 4.488580e-001 0.000000e+000
      outer loop
         vertex 1.327723e+002 2.032863e+001 3.550000e+001
         vertex 1.327723e+002 2.032863e+001 4.450000e+001
         vertex 1.329565e+002 2.072358e+001 4.450000e+001
      endloop
   endfacet
   facet normal -9.182422e-001 3.960194e-001 0.000000e+000
      outer loop
         vertex 1.327723e+002 2.032863e+001 3.550000e+001
         vertex 1.329565e+002 2.072358e+001 4.450000e+001
         vertex 1.329565e+002 2.072358e+001 3.550000e+001
      endloop
   endfacet
   facet normal -9.579706e-001 2.868663e-001 0.000000e+000
      outer loop
         vertex 1.329565e+002 2.072358e+001 3.550000e+001
         vertex 1.329565e+002 2.072358e+001 4.450000e+001
         vertex 1.330693e+002 2.114451e+001 4.450000e+001
      endloop
   endfacet
   facet normal -9.730600e-001 2.305519e-001 0.000000e+000
      outer loop
         vertex 1.329565e+002 2.072358e+001 3.550000e+001
         vertex 1.330693e+002 2.114451e+001 4.450000e+001
         vertex 1.330693e+002 2.114451e+001 3.550000e+001
      endloop
   endfacet
   facet normal -9.932307e-001 1.161583e-001 0.000000e+000
      outer loop
         vertex 1.330693e+002 2.114451e+001 3.550000e+001
         vertex 1.330693e+002 2.114451e+001 4.450000e+001
         vertex 1.331073e+002 2.157863e+001 4.450000e+001
      endloop
   endfacet
endsolid