solid barre de guidage
   facet normal -9.983119e-001 5.807913e-002 0.000000e+000
      outer loop
         vertex 3.722101e-002 2.875438e+000 1.680000e+002
         vertex 0.000000e+000 2.450000e+000 5.551115e-014
         vertex 0.000000e+000 2.450000e+000 1.680000e+002
      endloop
   endfacet
   facet normal -9.983119e-001 -5.807913e-002 0.000000e+000
      outer loop
         vertex 0.000000e+000 2.450000e+000 1.680000e+002
         vertex 0.000000e+000 2.450000e+000 5.551115e-014
         vertex 3.722101e-002 2.024562e+000 5.551115e-014
      endloop
   endfacet
   facet normal -9.932307e-001 -1.161583e-001 0.000000e+000
      outer loop
         vertex 0.000000e+000 2.450000e+000 1.680000e+002
         vertex 3.722101e-002 2.024562e+000 5.551115e-014
         vertex 3.722101e-002 2.024562e+000 1.680000e+002
      endloop
   endfacet
   facet normal -9.730600e-001 -2.305519e-001 0.000000e+000
      outer loop
         vertex 3.722101e-002 2.024562e+000 1.680000e+002
         vertex 3.722101e-002 2.024562e+000 5.551115e-014
         vertex 1.477532e-001 1.612051e+000 5.551115e-014
      endloop
   endfacet
   facet normal -9.579706e-001 -2.868663e-001 0.000000e+000
      outer loop
         vertex 3.722101e-002 2.024562e+000 1.680000e+002
         vertex 1.477532e-001 1.612051e+000 5.551115e-014
         vertex 1.477532e-001 1.612051e+000 1.680000e+002
      endloop
   endfacet
   facet normal -9.182422e-001 -3.960194e-001 0.000000e+000
      outer loop
         vertex 1.477532e-001 1.612051e+000 1.680000e+002
         vertex 1.477532e-001 1.612051e+000 5.551115e-014
         vertex 3.282379e-001 1.225000e+000 5.551115e-014
      endloop
   endfacet
   facet normal -8.936031e-001 -4.488580e-001 0.000000e+000
      outer loop
         vertex 1.477532e-001 1.612051e+000 1.680000e+002
         vertex 3.282379e-001 1.225000e+000 5.551115e-014
         vertex 3.282379e-001 1.225000e+000 1.680000e+002
      endloop
   endfacet
   facet normal -8.355240e-001 -5.494540e-001 0.000000e+000
      outer loop
         vertex 3.282379e-001 1.225000e+000 1.680000e+002
         vertex 3.282379e-001 1.225000e+000 5.551115e-014
         vertex 5.731911e-001 8.751704e-001 5.551115e-014
      endloop
   endfacet
   facet normal -8.020838e-001 -5.972114e-001 0.000000e+000
      outer loop
         vertex 3.282379e-001 1.225000e+000 1.680000e+002
         vertex 5.731911e-001 8.751704e-001 5.551115e-014
         vertex 5.731911e-001 8.751704e-001 1.680000e+002
      endloop
   endfacet
   facet normal -7.274188e-001 -6.861938e-001 0.000000e+000
      outer loop
         vertex 5.731911e-001 8.751704e-001 1.680000e+002
         vertex 5.731911e-001 8.751704e-001 5.551115e-014
         vertex 8.751704e-001 5.731911e-001 5.551115e-014
      endloop
   endfacet
   facet normal -6.861938e-001 -7.274188e-001 0.000000e+000
      outer loop
         vertex 5.731911e-001 8.751704e-001 1.680000e+002
         vertex 8.751704e-001 5.731911e-001 5.551115e-014
         vertex 8.751704e-001 5.731911e-001 1.680000e+002
      endloop
   endfacet
   facet normal -5.972114e-001 -8.020838e-001 0.000000e+000
      outer loop
         vertex 8.751704e-001 5.731911e-001 1.680000e+002
         vertex 8.751704e-001 5.731911e-001 5.551115e-014
         vertex 1.225000e+000 3.282379e-001 5.551115e-014
      endloop
   endfacet
   facet normal -5.494540e-001 -8.355240e-001 0.000000e+000
      outer loop
         vertex 8.751704e-001 5.731911e-001 1.680000e+002
         vertex 1.225000e+000 3.282379e-001 5.551115e-014
         vertex 1.225000e+000 3.282379e-001 1.680000e+002
      endloop
   endfacet
   facet normal -4.488580e-001 -8.936031e-001 0.000000e+000
      outer loop
         vertex 1.225000e+000 3.282379e-001 1.680000e+002
         vertex 1.225000e+000 3.282379e-001 5.551115e-014
         vertex 1.612051e+000 1.477532e-001 5.551115e-014
      endloop
   endfacet
   facet normal -3.960194e-001 -9.182422e-001 0.000000e+000
      outer loop
         vertex 1.225000e+000 3.282379e-001 1.680000e+002
         vertex 1.612051e+000 1.477532e-001 5.551115e-014
         vertex 1.612051e+000 1.477532e-001 1.680000e+002
      endloop
   endfacet
   facet normal -2.868663e-001 -9.579706e-001 0.000000e+000
      outer loop
         vertex 1.612051e+000 1.477532e-001 1.680000e+002
         vertex 1.612051e+000 1.477532e-001 5.551115e-014
         vertex 2.024562e+000 3.722101e-002 5.551115e-014
      endloop
   endfacet
   facet normal -2.305519e-001 -9.730600e-001 0.000000e+000
      outer loop
         vertex 1.612051e+000 1.477532e-001 1.680000e+002
         vertex 2.024562e+000 3.722101e-002 5.551115e-014
         vertex 2.024562e+000 3.722101e-002 1.680000e+002
      endloop
   endfacet
   facet normal -1.161583e-001 -9.932307e-001 0.000000e+000
      outer loop
         vertex 2.024562e+000 3.722101e-002 1.680000e+002
         vertex 2.024562e+000 3.722101e-002 5.551115e-014
         vertex 2.450000e+000 0.000000e+000 5.551115e-014
      endloop
   endfacet
   facet normal -5.807913e-002 -9.983119e-001 0.000000e+000
      outer loop
         vertex 2.024562e+000 3.722101e-002 1.680000e+002
         vertex 2.450000e+000 0.000000e+000 5.551115e-014
         vertex 2.450000e+000 0.000000e+000 1.680000e+002
      endloop
   endfacet
   facet normal 5.807913e-002 -9.983119e-001 0.000000e+000
      outer loop
         vertex 2.450000e+000 0.000000e+000 1.680000e+002
         vertex 2.450000e+000 0.000000e+000 5.551115e-014
         vertex 2.875438e+000 3.722101e-002 5.551115e-014
      endloop
   endfacet
   facet normal 1.161583e-001 -9.932307e-001 0.000000e+000
      outer loop
         vertex 2.450000e+000 0.000000e+000 1.680000e+002
         vertex 2.875438e+000 3.722101e-002 5.551115e-014
         vertex 2.875438e+000 3.722101e-002 1.680000e+002
      endloop
   endfacet
   facet normal 2.305519e-001 -9.730600e-001 0.000000e+000
      outer loop
         vertex 2.875438e+000 3.722101e-002 1.680000e+002
         vertex 2.875438e+000 3.722101e-002 5.551115e-014
         vertex 3.287949e+000 1.477532e-001 5.551115e-014
      endloop
   endfacet
   facet normal 2.868663e-001 -9.579706e-001 0.000000e+000
      outer loop
         vertex 2.875438e+000 3.722101e-002 1.680000e+002
         vertex 3.287949e+000 1.477532e-001 5.551115e-014
         vertex 3.287949e+000 1.477532e-001 1.680000e+002
      endloop
   endfacet
   facet normal 3.960194e-001 -9.182422e-001 0.000000e+000
      outer loop
         vertex 3.287949e+000 1.477532e-001 1.680000e+002
         vertex 3.287949e+000 1.477532e-001 5.551115e-014
         vertex 3.675000e+000 3.282379e-001 5.551115e-014
      endloop
   endfacet
   facet normal 4.488580e-001 -8.936031e-001 0.000000e+000
      outer loop
         vertex 3.287949e+000 1.477532e-001 1.680000e+002
         vertex 3.675000e+000 3.282379e-001 5.551115e-014
         vertex 3.675000e+000 3.282379e-001 1.680000e+002
      endloop
   endfacet
   facet normal 5.494540e-001 -8.355240e-001 0.000000e+000
      outer loop
         vertex 3.675000e+000 3.282379e-001 1.680000e+002
         vertex 3.675000e+000 3.282379e-001 5.551115e-014
         vertex 4.024830e+000 5.731911e-001 5.551115e-014
      endloop
   endfacet
   facet normal 5.972114e-001 -8.020838e-001 0.000000e+000
      outer loop
         vertex 3.675000e+000 3.282379e-001 1.680000e+002
         vertex 4.024830e+000 5.731911e-001 5.551115e-014
         vertex 4.024830e+000 5.731911e-001 1.680000e+002
      endloop
   endfacet
   facet normal 6.861938e-001 -7.274188e-001 0.000000e+000
      outer loop
         vertex 4.024830e+000 5.731911e-001 1.680000e+002
         vertex 4.024830e+000 5.731911e-001 5.551115e-014
         vertex 4.326809e+000 8.751704e-001 5.551115e-014
      endloop
   endfacet
   facet normal 7.274188e-001 -6.861938e-001 0.000000e+000
      outer loop
         vertex 4.024830e+000 5.731911e-001 1.680000e+002
         vertex 4.326809e+000 8.751704e-001 5.551115e-014
         vertex 4.326809e+000 8.751704e-001 1.680000e+002
      endloop
   endfacet
   facet normal 8.020838e-001 -5.972114e-001 0.000000e+000
      outer loop
         vertex 4.326809e+000 8.751704e-001 1.680000e+002
         vertex 4.326809e+000 8.751704e-001 5.551115e-014
         vertex 4.571762e+000 1.225000e+000 5.551115e-014
      endloop
   endfacet
   facet normal 8.355240e-001 -5.494540e-001 0.000000e+000
      outer loop
         vertex 4.326809e+000 8.751704e-001 1.680000e+002
         vertex 4.571762e+000 1.225000e+000 5.551115e-014
         vertex 4.571762e+000 1.225000e+000 1.680000e+002
      endloop
   endfacet
   facet normal 8.936031e-001 -4.488580e-001 0.000000e+000
      outer loop
         vertex 4.571762e+000 1.225000e+000 1.680000e+002
         vertex 4.571762e+000 1.225000e+000 5.551115e-014
         vertex 4.752247e+000 1.612051e+000 5.551115e-014
      endloop
   endfacet
   facet normal 9.182422e-001 -3.960194e-001 0.000000e+000
      outer loop
         vertex 4.571762e+000 1.225000e+000 1.680000e+002
         vertex 4.752247e+000 1.612051e+000 5.551115e-014
         vertex 4.752247e+000 1.612051e+000 1.680000e+002
      endloop
   endfacet
   facet normal 9.579706e-001 -2.868663e-001 0.000000e+000
      outer loop
         vertex 4.752247e+000 1.612051e+000 1.680000e+002
         vertex 4.752247e+000 1.612051e+000 5.551115e-014
         vertex 4.862779e+000 2.024562e+000 5.551115e-014
      endloop
   endfacet
   facet normal 9.730600e-001 -2.305519e-001 0.000000e+000
      outer loop
         vertex 4.752247e+000 1.612051e+000 1.680000e+002
         vertex 4.862779e+000 2.024562e+000 5.551115e-014
         vertex 4.862779e+000 2.024562e+000 1.680000e+002
      endloop
   endfacet
   facet normal 9.932307e-001 -1.161583e-001 0.000000e+000
      outer loop
         vertex 4.862779e+000 2.024562e+000 1.680000e+002
         vertex 4.862779e+000 2.024562e+000 5.551115e-014
         vertex 4.900000e+000 2.450000e+000 5.551115e-014
      endloop
   endfacet
   facet normal 9.983119e-001 -5.807913e-002 0.000000e+000
      outer loop
         vertex 4.862779e+000 2.024562e+000 1.680000e+002
         vertex 4.900000e+000 2.450000e+000 5.551115e-014
         vertex 4.900000e+000 2.450000e+000 1.680000e+002
      endloop
   endfacet
   facet normal 9.983119e-001 5.807913e-002 0.000000e+000
      outer loop
         vertex 4.900000e+000 2.450000e+000 1.680000e+002
         vertex 4.900000e+000 2.450000e+000 5.551115e-014
         vertex 4.862779e+000 2.875438e+000 5.551115e-014
      endloop
   endfacet
   facet normal 9.932307e-001 1.161583e-001 0.000000e+000
      outer loop
         vertex 4.900000e+000 2.450000e+000 1.680000e+002
         vertex 4.862779e+000 2.875438e+000 5.551115e-014
         vertex 4.862779e+000 2.875438e+000 1.680000e+002
      endloop
   endfacet
   facet normal 9.730600e-001 2.305519e-001 0.000000e+000
      outer loop
         vertex 4.862779e+000 2.875438e+000 1.680000e+002
         vertex 4.862779e+000 2.875438e+000 5.551115e-014
         vertex 4.752247e+000 3.287949e+000 5.551115e-014
      endloop
   endfacet
   facet normal 9.579706e-001 2.868663e-001 0.000000e+000
      outer loop
         vertex 4.862779e+000 2.875438e+000 1.680000e+002
         vertex 4.752247e+000 3.287949e+000 5.551115e-014
         vertex 4.752247e+000 3.287949e+000 1.680000e+002
      endloop
   endfacet
   facet normal 9.182422e-001 3.960194e-001 0.000000e+000
      outer loop
         vertex 4.752247e+000 3.287949e+000 1.680000e+002
         vertex 4.752247e+000 3.287949e+000 5.551115e-014
         vertex 4.571762e+000 3.675000e+000 5.551115e-014
      endloop
   endfacet
   facet normal 8.936031e-001 4.488580e-001 0.000000e+000
      outer loop
         vertex 4.752247e+000 3.287949e+000 1.680000e+002
         vertex 4.571762e+000 3.675000e+000 5.551115e-014
         vertex 4.571762e+000 3.675000e+000 1.680000e+002
      endloop
   endfacet
   facet normal 8.355240e-001 5.494540e-001 0.000000e+000
      outer loop
         vertex 4.571762e+000 3.675000e+000 1.680000e+002
         vertex 4.571762e+000 3.675000e+000 5.551115e-014
         vertex 4.326809e+000 4.024830e+000 5.551115e-014
      endloop
   endfacet
   facet normal 8.020838e-001 5.972114e-001 0.000000e+000
      outer loop
         vertex 4.571762e+000 3.675000e+000 1.680000e+002
         vertex 4.326809e+000 4.024830e+000 5.551115e-014
         vertex 4.326809e+000 4.024830e+000 1.680000e+002
      endloop
   endfacet
   facet normal 7.274188e-001 6.861938e-001 0.000000e+000
      outer loop
         vertex 4.326809e+000 4.024830e+000 1.680000e+002
         vertex 4.326809e+000 4.024830e+000 5.551115e-014
         vertex 4.024830e+000 4.326809e+000 5.551115e-014
      endloop
   endfacet
   facet normal 6.861938e-001 7.274188e-001 0.000000e+000
      outer loop
         vertex 4.326809e+000 4.024830e+000 1.680000e+002
         vertex 4.024830e+000 4.326809e+000 5.551115e-014
         vertex 4.024830e+000 4.326809e+000 1.680000e+002
      endloop
   endfacet
   facet normal 5.972114e-001 8.020838e-001 0.000000e+000
      outer loop
         vertex 4.024830e+000 4.326809e+000 1.680000e+002
         vertex 4.024830e+000 4.326809e+000 5.551115e-014
         vertex 3.675000e+000 4.571762e+000 5.551115e-014
      endloop
   endfacet
   facet normal 5.494540e-001 8.355240e-001 0.000000e+000
      outer loop
         vertex 4.024830e+000 4.326809e+000 1.680000e+002
         vertex 3.675000e+000 4.571762e+000 5.551115e-014
         vertex 3.675000e+000 4.571762e+000 1.680000e+002
      endloop
   endfacet
   facet normal 4.488580e-001 8.936031e-001 0.000000e+000
      outer loop
         vertex 3.675000e+000 4.571762e+000 1.680000e+002
         vertex 3.675000e+000 4.571762e+000 5.551115e-014
         vertex 3.287949e+000 4.752247e+000 5.551115e-014
      endloop
   endfacet
   facet normal 3.960194e-001 9.182422e-001 0.000000e+000
      outer loop
         vertex 3.675000e+000 4.571762e+000 1.680000e+002
         vertex 3.287949e+000 4.752247e+000 5.551115e-014
         vertex 3.287949e+000 4.752247e+000 1.680000e+002
      endloop
   endfacet
   facet normal 2.868663e-001 9.579706e-001 0.000000e+000
      outer loop
         vertex 3.287949e+000 4.752247e+000 1.680000e+002
         vertex 3.287949e+000 4.752247e+000 5.551115e-014
         vertex 2.875438e+000 4.862779e+000 5.551115e-014
      endloop
   endfacet
   facet normal 2.305519e-001 9.730600e-001 0.000000e+000
      outer loop
         vertex 3.287949e+000 4.752247e+000 1.680000e+002
         vertex 2.875438e+000 4.862779e+000 5.551115e-014
         vertex 2.875438e+000 4.862779e+000 1.680000e+002
      endloop
   endfacet
   facet normal 1.161583e-001 9.932307e-001 0.000000e+000
      outer loop
         vertex 2.875438e+000 4.862779e+000 1.680000e+002
         vertex 2.875438e+000 4.862779e+000 5.551115e-014
         vertex 2.450000e+000 4.900000e+000 5.551115e-014
      endloop
   endfacet
   facet normal 5.807913e-002 9.983119e-001 0.000000e+000
      outer loop
         vertex 2.875438e+000 4.862779e+000 1.680000e+002
         vertex 2.450000e+000 4.900000e+000 5.551115e-014
         vertex 2.450000e+000 4.900000e+000 1.680000e+002
      endloop
   endfacet
   facet normal -5.807913e-002 9.983119e-001 0.000000e+000
      outer loop
         vertex 2.450000e+000 4.900000e+000 1.680000e+002
         vertex 2.450000e+000 4.900000e+000 5.551115e-014
         vertex 2.024562e+000 4.862779e+000 5.551115e-014
      endloop
   endfacet
   facet normal -1.161583e-001 9.932307e-001 0.000000e+000
      outer loop
         vertex 2.450000e+000 4.900000e+000 1.680000e+002
         vertex 2.024562e+000 4.862779e+000 5.551115e-014
         vertex 2.024562e+000 4.862779e+000 1.680000e+002
      endloop
   endfacet
   facet normal -2.305519e-001 9.730600e-001 0.000000e+000
      outer loop
         vertex 2.024562e+000 4.862779e+000 1.680000e+002
         vertex 2.024562e+000 4.862779e+000 5.551115e-014
         vertex 1.612051e+000 4.752247e+000 5.551115e-014
      endloop
   endfacet
   facet normal -2.868663e-001 9.579706e-001 0.000000e+000
      outer loop
         vertex 2.024562e+000 4.862779e+000 1.680000e+002
         vertex 1.612051e+000 4.752247e+000 5.551115e-014
         vertex 1.612051e+000 4.752247e+000 1.680000e+002
      endloop
   endfacet
   facet normal -3.960194e-001 9.182422e-001 0.000000e+000
      outer loop
         vertex 1.612051e+000 4.752247e+000 1.680000e+002
         vertex 1.612051e+000 4.752247e+000 5.551115e-014
         vertex 1.225000e+000 4.571762e+000 5.551115e-014
      endloop
   endfacet
   facet normal -4.488580e-001 8.936031e-001 0.000000e+000
      outer loop
         vertex 1.612051e+000 4.752247e+000 1.680000e+002
         vertex 1.225000e+000 4.571762e+000 5.551115e-014
         vertex 1.225000e+000 4.571762e+000 1.680000e+002
      endloop
   endfacet
   facet normal -5.494540e-001 8.355240e-001 0.000000e+000
      outer loop
         vertex 1.225000e+000 4.571762e+000 1.680000e+002
         vertex 1.225000e+000 4.571762e+000 5.551115e-014
         vertex 8.751704e-001 4.326809e+000 5.551115e-014
      endloop
   endfacet
   facet normal -5.972114e-001 8.020838e-001 0.000000e+000
      outer loop
         vertex 1.225000e+000 4.571762e+000 1.680000e+002
         vertex 8.751704e-001 4.326809e+000 5.551115e-014
         vertex 8.751704e-001 4.326809e+000 1.680000e+002
      endloop
   endfacet
   facet normal -6.861938e-001 7.274188e-001 0.000000e+000
      outer loop
         vertex 8.751704e-001 4.326809e+000 1.680000e+002
         vertex 8.751704e-001 4.326809e+000 5.551115e-014
         vertex 5.731911e-001 4.024830e+000 5.551115e-014
      endloop
   endfacet
   facet normal -7.274188e-001 6.861938e-001 0.000000e+000
      outer loop
         vertex 8.751704e-001 4.326809e+000 1.680000e+002
         vertex 5.731911e-001 4.024830e+000 5.551115e-014
         vertex 5.731911e-001 4.024830e+000 1.680000e+002
      endloop
   endfacet
   facet normal -8.020838e-001 5.972114e-001 0.000000e+000
      outer loop
         vertex 5.731911e-001 4.024830e+000 1.680000e+002
         vertex 5.731911e-001 4.024830e+000 5.551115e-014
         vertex 3.282379e-001 3.675000e+000 5.551115e-014
      endloop
   endfacet
   facet normal -8.355240e-001 5.494540e-001 0.000000e+000
      outer loop
         vertex 5.731911e-001 4.024830e+000 1.680000e+002
         vertex 3.282379e-001 3.675000e+000 5.551115e-014
         vertex 3.282379e-001 3.675000e+000 1.680000e+002
      endloop
   endfacet
   facet normal -8.936031e-001 4.488580e-001 0.000000e+000
      outer loop
         vertex 3.282379e-001 3.675000e+000 1.680000e+002
         vertex 3.282379e-001 3.675000e+000 5.551115e-014
         vertex 1.477532e-001 3.287949e+000 5.551115e-014
      endloop
   endfacet
   facet normal -9.182422e-001 3.960194e-001 0.000000e+000
      outer loop
         vertex 3.282379e-001 3.675000e+000 1.680000e+002
         vertex 1.477532e-001 3.287949e+000 5.551115e-014
         vertex 1.477532e-001 3.287949e+000 1.680000e+002
      endloop
   endfacet
   facet normal -9.579706e-001 2.868663e-001 0.000000e+000
      outer loop
         vertex 1.477532e-001 3.287949e+000 1.680000e+002
         vertex 1.477532e-001 3.287949e+000 5.551115e-014
         vertex 3.722101e-002 2.875438e+000 5.551115e-014
      endloop
   endfacet
   facet normal -9.730600e-001 2.305519e-001 0.000000e+000
      outer loop
         vertex 1.477532e-001 3.287949e+000 1.680000e+002
         vertex 3.722101e-002 2.875438e+000 5.551115e-014
         vertex 3.722101e-002 2.875438e+000 1.680000e+002
      endloop
   endfacet
   facet normal -9.932307e-001 1.161583e-001 0.000000e+000
      outer loop
         vertex 3.722101e-002 2.875438e+000 1.680000e+002
         vertex 3.722101e-002 2.875438e+000 5.551115e-014
         vertex 0.000000e+000 2.450000e+000 5.551115e-014
      endloop
   endfacet
   facet normal 0.000000e+000 0.000000e+000 1.000000e+000
      outer loop
         vertex 4.571762e+000 3.675000e+000 1.680000e+002
         vertex 4.326809e+000 4.024830e+000 1.680000e+002
         vertex 1.477532e-001 1.612051e+000 1.680000e+002
      endloop
   endfacet
   facet normal 0.000000e+000 0.000000e+000 1.000000e+000
      outer loop
         vertex 4.571762e+000 3.675000e+000 1.680000e+002
         vertex 1.477532e-001 1.612051e+000 1.680000e+002
         vertex 4.752247e+000 3.287949e+000 1.680000e+002
      endloop
   endfacet
   facet normal 0.000000e+000 0.000000e+000 1.000000e+000
      outer loop
         vertex 4.752247e+000 3.287949e+000 1.680000e+002
         vertex 1.477532e-001 1.612051e+000 1.680000e+002
         vertex 3.282379e-001 1.225000e+000 1.680000e+002
      endloop
   endfacet
   facet normal 0.000000e+000 0.000000e+000 1.000000e+000
      outer loop
         vertex 4.752247e+000 3.287949e+000 1.680000e+002
         vertex 3.282379e-001 1.225000e+000 1.680000e+002
         vertex 5.731911e-001 8.751704e-001 1.680000e+002
      endloop
   endfacet
   facet normal 0.000000e+000 0.000000e+000 1.000000e+000
      outer loop
         vertex 5.731911e-001 8.751704e-001 1.680000e+002
         vertex 8.751704e-001 5.731911e-001 1.680000e+002
         vertex 4.752247e+000 3.287949e+000 1.680000e+002
      endloop
   endfacet
   facet normal 0.000000e+000 0.000000e+000 1.000000e+000
      outer loop
         vertex 4.752247e+000 3.287949e+000 1.680000e+002
         vertex 8.751704e-001 5.731911e-001 1.680000e+002
         vertex 1.225000e+000 3.282379e-001 1.680000e+002
      endloop
   endfacet
   facet normal 0.000000e+000 0.000000e+000 1.000000e+000
      outer loop
         vertex 4.752247e+000 3.287949e+000 1.680000e+002
         vertex 1.225000e+000 3.282379e-001 1.680000e+002
         vertex 1.612051e+000 1.477532e-001 1.680000e+002
      endloop
   endfacet
   facet normal 0.000000e+000 0.000000e+000 1.000000e+000
      outer loop
         vertex 1.612051e+000 1.477532e-001 1.680000e+002
         vertex 2.024562e+000 3.722101e-002 1.680000e+002
         vertex 4.752247e+000 3.287949e+000 1.680000e+002
      endloop
   endfacet
   facet normal 0.000000e+000 0.000000e+000 1.000000e+000
      outer loop
         vertex 4.752247e+000 3.287949e+000 1.680000e+002
         vertex 2.024562e+000 3.722101e-002 1.680000e+002
         vertex 2.450000e+000 0.000000e+000 1.680000e+002
      endloop
   endfacet
   facet normal 0.000000e+000 0.000000e+000 1.000000e+000
      outer loop
         vertex 4.752247e+000 3.287949e+000 1.680000e+002
         vertex 2.450000e+000 0.000000e+000 1.680000e+002
         vertex 2.875438e+000 3.722101e-002 1.680000e+002
      endloop
   endfacet
   facet normal 0.000000e+000 0.000000e+000 1.000000e+000
      outer loop
         vertex 2.875438e+000 3.722101e-002 1.680000e+002
         vertex 3.287949e+000 1.477532e-001 1.680000e+002
         vertex 4.752247e+000 3.287949e+000 1.680000e+002
      endloop
   endfacet
   facet normal 0.000000e+000 0.000000e+000 1.000000e+000
      outer loop
         vertex 4.752247e+000 3.287949e+000 1.680000e+002
         vertex 3.287949e+000 1.477532e-001 1.680000e+002
         vertex 3.675000e+000 3.282379e-001 1.680000e+002
      endloop
   endfacet
   facet normal 0.000000e+000 0.000000e+000 1.000000e+000
      outer loop
         vertex 4.752247e+000 3.287949e+000 1.680000e+002
         vertex 3.675000e+000 3.282379e-001 1.680000e+002
         vertex 4.024830e+000 5.731911e-001 1.680000e+002
      endloop
   endfacet
   facet normal 0.000000e+000 0.000000e+000 1.000000e+000
      outer loop
         vertex 4.326809e+000 4.024830e+000 1.680000e+002
         vertex 4.024830e+000 4.326809e+000 1.680000e+002
         vertex 1.477532e-001 1.612051e+000 1.680000e+002
      endloop
   endfacet
   facet normal 0.000000e+000 0.000000e+000 1.000000e+000
      outer loop
         vertex 1.477532e-001 1.612051e+000 1.680000e+002
         vertex 4.024830e+000 4.326809e+000 1.680000e+002
         vertex 3.675000e+000 4.571762e+000 1.680000e+002
      endloop
   endfacet
   facet normal 0.000000e+000 0.000000e+000 1.000000e+000
      outer loop
         vertex 1.477532e-001 1.612051e+000 1.680000e+002
         vertex 3.675000e+000 4.571762e+000 1.680000e+002
         vertex 3.287949e+000 4.752247e+000 1.680000e+002
      endloop
   endfacet
   facet normal 0.000000e+000 0.000000e+000 1.000000e+000
      outer loop
         vertex 3.287949e+000 4.752247e+000 1.680000e+002
         vertex 2.875438e+000 4.862779e+000 1.680000e+002
         vertex 1.477532e-001 1.612051e+000 1.680000e+002
      endloop
   endfacet
   facet normal 0.000000e+000 0.000000e+000 1.000000e+000
      outer loop
         vertex 1.477532e-001 1.612051e+000 1.680000e+002
         vertex 2.875438e+000 4.862779e+000 1.680000e+002
         vertex 2.450000e+000 4.900000e+000 1.680000e+002
      endloop
   endfacet
   facet normal 0.000000e+000 0.000000e+000 1.000000e+000
      outer loop
         vertex 1.477532e-001 1.612051e+000 1.680000e+002
         vertex 2.450000e+000 4.900000e+000 1.680000e+002
         vertex 2.024562e+000 4.862779e+000 1.680000e+002
      endloop
   endfacet
   facet normal 0.000000e+000 0.000000e+000 1.000000e+000
      outer loop
         vertex 2.024562e+000 4.862779e+000 1.680000e+002
         vertex 1.612051e+000 4.752247e+000 1.680000e+002
         vertex 1.477532e-001 1.612051e+000 1.680000e+002
      endloop
   endfacet
   facet normal 0.000000e+000 0.000000e+000 1.000000e+000
      outer loop
         vertex 1.477532e-001 1.612051e+000 1.680000e+002
         vertex 1.612051e+000 4.752247e+000 1.680000e+002
         vertex 1.225000e+000 4.571762e+000 1.680000e+002
      endloop
   endfacet
   facet normal 0.000000e+000 0.000000e+000 1.000000e+000
      outer loop
         vertex 1.477532e-001 1.612051e+000 1.680000e+002
         vertex 1.225000e+000 4.571762e+000 1.680000e+002
         vertex 3.722101e-002 2.024562e+000 1.680000e+002
      endloop
   endfacet
   facet normal 0.000000e+000 0.000000e+000 1.000000e+000
      outer loop
         vertex 4.024830e+000 5.731911e-001 1.680000e+002
         vertex 4.326809e+000 8.751704e-001 1.680000e+002
         vertex 4.752247e+000 3.287949e+000 1.680000e+002
      endloop
   endfacet
   facet normal 0.000000e+000 0.000000e+000 1.000000e+000
      outer loop
         vertex 4.752247e+000 3.287949e+000 1.680000e+002
         vertex 4.326809e+000 8.751704e-001 1.680000e+002
         vertex 4.571762e+000 1.225000e+000 1.680000e+002
      endloop
   endfacet
   facet normal 0.000000e+000 0.000000e+000 1.000000e+000
      outer loop
         vertex 4.752247e+000 3.287949e+000 1.680000e+002
         vertex 4.571762e+000 1.225000e+000 1.680000e+002
         vertex 4.752247e+000 1.612051e+000 1.680000e+002
      endloop
   endfacet
   facet normal 0.000000e+000 0.000000e+000 1.000000e+000
      outer loop
         vertex 4.752247e+000 1.612051e+000 1.680000e+002
         vertex 4.862779e+000 2.024562e+000 1.680000e+002
         vertex 4.752247e+000 3.287949e+000 1.680000e+002
      endloop
   endfacet
   facet normal 0.000000e+000 0.000000e+000 1.000000e+000
      outer loop
         vertex 4.752247e+000 3.287949e+000 1.680000e+002
         vertex 4.862779e+000 2.024562e+000 1.680000e+002
         vertex 4.900000e+000 2.450000e+000 1.680000e+002
      endloop
   endfacet
   facet normal 0.000000e+000 0.000000e+000 1.000000e+000
      outer loop
         vertex 4.752247e+000 3.287949e+000 1.680000e+002
         vertex 4.900000e+000 2.450000e+000 1.680000e+002
         vertex 4.862779e+000 2.875438e+000 1.680000e+002
      endloop
   endfacet
   facet normal 0.000000e+000 0.000000e+000 1.000000e+000
      outer loop
         vertex 3.722101e-002 2.024562e+000 1.680000e+002
         vertex 1.225000e+000 4.571762e+000 1.680000e+002
         vertex 0.000000e+000 2.450000e+000 1.680000e+002
      endloop
   endfacet
   facet normal 0.000000e+000 0.000000e+000 1.000000e+000
      outer loop
         vertex 0.000000e+000 2.450000e+000 1.680000e+002
         vertex 1.225000e+000 4.571762e+000 1.680000e+002
         vertex 8.751704e-001 4.326809e+000 1.680000e+002
      endloop
   endfacet
   facet normal 0.000000e+000 0.000000e+000 1.000000e+000
      outer loop
         vertex 0.000000e+000 2.450000e+000 1.680000e+002
         vertex 8.751704e-001 4.326809e+000 1.680000e+002
         vertex 5.731911e-001 4.024830e+000 1.680000e+002
      endloop
   endfacet
   facet normal 0.000000e+000 0.000000e+000 1.000000e+000
      outer loop
         vertex 5.731911e-001 4.024830e+000 1.680000e+002
         vertex 3.282379e-001 3.675000e+000 1.680000e+002
         vertex 0.000000e+000 2.450000e+000 1.680000e+002
      endloop
   endfacet
   facet normal 0.000000e+000 0.000000e+000 1.000000e+000
      outer loop
         vertex 0.000000e+000 2.450000e+000 1.680000e+002
         vertex 3.282379e-001 3.675000e+000 1.680000e+002
         vertex 1.477532e-001 3.287949e+000 1.680000e+002
      endloop
   endfacet
   facet normal 0.000000e+000 0.000000e+000 1.000000e+000
      outer loop
         vertex 0.000000e+000 2.450000e+000 1.680000e+002
         vertex 1.477532e-001 3.287949e+000 1.680000e+002
         vertex 3.722101e-002 2.875438e+000 1.680000e+002
      endloop
   endfacet
   facet normal 0.000000e+000 0.000000e+000 -1.000000e+000
      outer loop
         vertex 2.875438e+000 3.722101e-002 0.000000e+000
         vertex 2.450000e+000 0.000000e+000 0.000000e+000
         vertex 4.752247e+000 3.287949e+000 0.000000e+000
      endloop
   endfacet
   facet normal 0.000000e+000 0.000000e+000 -1.000000e+000
      outer loop
         vertex 3.722101e-002 2.024562e+000 0.000000e+000
         vertex 0.000000e+000 2.450000e+000 0.000000e+000
         vertex 3.675000e+000 4.571762e+000 0.000000e+000
      endloop
   endfacet
   facet normal 0.000000e+000 0.000000e+000 -1.000000e+000
      outer loop
         vertex 3.722101e-002 2.024562e+000 0.000000e+000
         vertex 3.675000e+000 4.571762e+000 0.000000e+000
         vertex 1.477532e-001 1.612051e+000 0.000000e+000
      endloop
   endfacet
   facet normal 0.000000e+000 0.000000e+000 -1.000000e+000
      outer loop
         vertex 1.477532e-001 1.612051e+000 0.000000e+000
         vertex 3.675000e+000 4.571762e+000 0.000000e+000
         vertex 4.024830e+000 4.326809e+000 0.000000e+000
      endloop
   endfacet
   facet normal 0.000000e+000 0.000000e+000 -1.000000e+000
      outer loop
         vertex 1.477532e-001 1.612051e+000 0.000000e+000
         vertex 4.024830e+000 4.326809e+000 0.000000e+000
         vertex 4.326809e+000 4.024830e+000 0.000000e+000
      endloop
   endfacet
   facet normal 0.000000e+000 0.000000e+000 -1.000000e+000
      outer loop
         vertex 4.326809e+000 4.024830e+000 0.000000e+000
         vertex 4.571762e+000 3.675000e+000 0.000000e+000
         vertex 1.477532e-001 1.612051e+000 0.000000e+000
      endloop
   endfacet
   facet normal 0.000000e+000 0.000000e+000 -1.000000e+000
      outer loop
         vertex 1.477532e-001 1.612051e+000 0.000000e+000
         vertex 4.571762e+000 3.675000e+000 0.000000e+000
         vertex 4.752247e+000 3.287949e+000 0.000000e+000
      endloop
   endfacet
   facet normal 0.000000e+000 0.000000e+000 -1.000000e+000
      outer loop
         vertex 1.477532e-001 1.612051e+000 0.000000e+000
         vertex 4.752247e+000 3.287949e+000 0.000000e+000
         vertex 3.282379e-001 1.225000e+000 0.000000e+000
      endloop
   endfacet
   facet normal 0.000000e+000 0.000000e+000 -1.000000e+000
      outer loop
         vertex 4.862779e+000 2.875438e+000 0.000000e+000
         vertex 4.900000e+000 2.450000e+000 0.000000e+000
         vertex 3.675000e+000 3.282379e-001 0.000000e+000
      endloop
   endfacet
   facet normal 0.000000e+000 0.000000e+000 -1.000000e+000
      outer loop
         vertex 3.675000e+000 3.282379e-001 0.000000e+000
         vertex 4.900000e+000 2.450000e+000 0.000000e+000
         vertex 4.862779e+000 2.024562e+000 0.000000e+000
      endloop
   endfacet
   facet normal 0.000000e+000 0.000000e+000 -1.000000e+000
      outer loop
         vertex 4.862779e+000 2.875438e+000 0.000000e+000
         vertex 3.675000e+000 3.282379e-001 0.000000e+000
         vertex 4.752247e+000 3.287949e+000 0.000000e+000
      endloop
   endfacet
   facet normal 0.000000e+000 0.000000e+000 -1.000000e+000
      outer loop
         vertex 4.752247e+000 3.287949e+000 0.000000e+000
         vertex 3.675000e+000 3.282379e-001 0.000000e+000
         vertex 3.287949e+000 1.477532e-001 0.000000e+000
      endloop
   endfacet
   facet normal 0.000000e+000 0.000000e+000 -1.000000e+000
      outer loop
         vertex 4.752247e+000 3.287949e+000 0.000000e+000
         vertex 3.287949e+000 1.477532e-001 0.000000e+000
         vertex 2.875438e+000 3.722101e-002 0.000000e+000
      endloop
   endfacet
   facet normal 0.000000e+000 0.000000e+000 -1.000000e+000
      outer loop
         vertex 2.450000e+000 0.000000e+000 0.000000e+000
         vertex 2.024562e+000 3.722101e-002 0.000000e+000
         vertex 4.752247e+000 3.287949e+000 0.000000e+000
      endloop
   endfacet
   facet normal 0.000000e+000 0.000000e+000 -1.000000e+000
      outer loop
         vertex 4.752247e+000 3.287949e+000 0.000000e+000
         vertex 2.024562e+000 3.722101e-002 0.000000e+000
         vertex 1.612051e+000 1.477532e-001 0.000000e+000
      endloop
   endfacet
   facet normal 0.000000e+000 0.000000e+000 -1.000000e+000
      outer loop
         vertex 4.752247e+000 3.287949e+000 0.000000e+000
         vertex 1.612051e+000 1.477532e-001 0.000000e+000
         vertex 1.225000e+000 3.282379e-001 0.000000e+000
      endloop
   endfacet
   facet normal 0.000000e+000 0.000000e+000 -1.000000e+000
      outer loop
         vertex 0.000000e+000 2.450000e+000 0.000000e+000
         vertex 3.722101e-002 2.875438e+000 0.000000e+000
         vertex 3.675000e+000 4.571762e+000 0.000000e+000
      endloop
   endfacet
   facet normal 0.000000e+000 0.000000e+000 -1.000000e+000
      outer loop
         vertex 3.675000e+000 4.571762e+000 0.000000e+000
         vertex 3.722101e-002 2.875438e+000 0.000000e+000
         vertex 1.477532e-001 3.287949e+000 0.000000e+000
      endloop
   endfacet
   facet normal 0.000000e+000 0.000000e+000 -1.000000e+000
      outer loop
         vertex 3.675000e+000 4.571762e+000 0.000000e+000
         vertex 1.477532e-001 3.287949e+000 0.000000e+000
         vertex 3.282379e-001 3.675000e+000 0.000000e+000
      endloop
   endfacet
   facet normal 0.000000e+000 0.000000e+000 -1.000000e+000
      outer loop
         vertex 2.450000e+000 4.900000e+000 0.000000e+000
         vertex 1.225000e+000 4.571762e+000 0.000000e+000
         vertex 2.024562e+000 4.862779e+000 0.000000e+000
      endloop
   endfacet
   facet normal 0.000000e+000 0.000000e+000 -1.000000e+000
      outer loop
         vertex 2.024562e+000 4.862779e+000 0.000000e+000
         vertex 1.225000e+000 4.571762e+000 0.000000e+000
         vertex 1.612051e+000 4.752247e+000 0.000000e+000
      endloop
   endfacet
   facet normal 0.000000e+000 0.000000e+000 -1.000000e+000
      outer loop
         vertex 1.225000e+000 3.282379e-001 0.000000e+000
         vertex 8.751704e-001 5.731911e-001 0.000000e+000
         vertex 4.752247e+000 3.287949e+000 0.000000e+000
      endloop
   endfacet
   facet normal 0.000000e+000 0.000000e+000 -1.000000e+000
      outer loop
         vertex 4.752247e+000 3.287949e+000 0.000000e+000
         vertex 8.751704e-001 5.731911e-001 0.000000e+000
         vertex 5.731911e-001 8.751704e-001 0.000000e+000
      endloop
   endfacet
   facet normal 0.000000e+000 0.000000e+000 -1.000000e+000
      outer loop
         vertex 4.752247e+000 3.287949e+000 0.000000e+000
         vertex 5.731911e-001 8.751704e-001 0.000000e+000
         vertex 3.282379e-001 1.225000e+000 0.000000e+000
      endloop
   endfacet
   facet normal 0.000000e+000 0.000000e+000 -1.000000e+000
      outer loop
         vertex 2.450000e+000 4.900000e+000 0.000000e+000
         vertex 2.875438e+000 4.862779e+000 0.000000e+000
         vertex 1.225000e+000 4.571762e+000 0.000000e+000
      endloop
   endfacet
   facet normal 0.000000e+000 0.000000e+000 -1.000000e+000
      outer loop
         vertex 1.225000e+000 4.571762e+000 0.000000e+000
         vertex 2.875438e+000 4.862779e+000 0.000000e+000
         vertex 3.287949e+000 4.752247e+000 0.000000e+000
      endloop
   endfacet
   facet normal 0.000000e+000 0.000000e+000 -1.000000e+000
      outer loop
         vertex 1.225000e+000 4.571762e+000 0.000000e+000
         vertex 3.287949e+000 4.752247e+000 0.000000e+000
         vertex 3.675000e+000 4.571762e+000 0.000000e+000
      endloop
   endfacet
   facet normal 0.000000e+000 0.000000e+000 -1.000000e+000
      outer loop
         vertex 4.862779e+000 2.024562e+000 0.000000e+000
         vertex 4.752247e+000 1.612051e+000 0.000000e+000
         vertex 3.675000e+000 3.282379e-001 0.000000e+000
      endloop
   endfacet
   facet normal 0.000000e+000 0.000000e+000 -1.000000e+000
      outer loop
         vertex 3.675000e+000 3.282379e-001 0.000000e+000
         vertex 4.752247e+000 1.612051e+000 0.000000e+000
         vertex 4.571762e+000 1.225000e+000 0.000000e+000
      endloop
   endfacet
   facet normal 0.000000e+000 0.000000e+000 -1.000000e+000
      outer loop
         vertex 3.675000e+000 3.282379e-001 0.000000e+000
         vertex 4.571762e+000 1.225000e+000 0.000000e+000
         vertex 4.024830e+000 5.731911e-001 0.000000e+000
      endloop
   endfacet
   facet normal 0.000000e+000 0.000000e+000 -1.000000e+000
      outer loop
         vertex 4.024830e+000 5.731911e-001 0.000000e+000
         vertex 4.571762e+000 1.225000e+000 0.000000e+000
         vertex 4.326809e+000 8.751704e-001 0.000000e+000
      endloop
   endfacet
   facet normal 0.000000e+000 0.000000e+000 -1.000000e+000
      outer loop
         vertex 3.282379e-001 3.675000e+000 0.000000e+000
         vertex 5.731911e-001 4.024830e+000 0.000000e+000
         vertex 3.675000e+000 4.571762e+000 0.000000e+000
      endloop
   endfacet
   facet normal 0.000000e+000 0.000000e+000 -1.000000e+000
      outer loop
         vertex 3.675000e+000 4.571762e+000 0.000000e+000
         vertex 5.731911e-001 4.024830e+000 0.000000e+000
         vertex 8.751704e-001 4.326809e+000 0.000000e+000
      endloop
   endfacet
   facet normal 0.000000e+000 0.000000e+000 -1.000000e+000
      outer loop
         vertex 3.675000e+000 4.571762e+000 0.000000e+000
         vertex 8.751704e-001 4.326809e+000 0.000000e+000
         vertex 1.225000e+000 4.571762e+000 0.000000e+000
      endloop
   endfacet
endsolid