solid Y Axes components - barre de guidage-5
   facet normal -9.983120e-001 5.807914e-002 0.000000e+000
      outer loop
         vertex 1.789450e+001 2.200401e+001 2.035000e+002
         vertex 1.785728e+001 2.157858e+001 3.550000e+001
         vertex 1.785728e+001 2.157858e+001 2.035000e+002
      endloop
   endfacet
   facet normal -9.983120e-001 -5.807914e-002 0.000000e+000
      outer loop
         vertex 1.785728e+001 2.157858e+001 2.035000e+002
         vertex 1.785728e+001 2.157858e+001 3.550000e+001
         vertex 1.789450e+001 2.115314e+001 3.550000e+001
      endloop
   endfacet
   facet normal -9.932307e-001 -1.161583e-001 0.000000e+000
      outer loop
         vertex 1.785728e+001 2.157858e+001 2.035000e+002
         vertex 1.789450e+001 2.115314e+001 3.550000e+001
         vertex 1.789450e+001 2.115314e+001 2.035000e+002
      endloop
   endfacet
   facet normal -9.730600e-001 -2.305519e-001 0.000000e+000
      outer loop
         vertex 1.789450e+001 2.115314e+001 2.035000e+002
         vertex 1.789450e+001 2.115314e+001 3.550000e+001
         vertex 1.800503e+001 2.074063e+001 3.550000e+001
      endloop
   endfacet
   facet normal -9.579706e-001 -2.868663e-001 0.000000e+000
      outer loop
         vertex 1.789450e+001 2.115314e+001 2.035000e+002
         vertex 1.800503e+001 2.074063e+001 3.550000e+001
         vertex 1.800503e+001 2.074063e+001 2.035000e+002
      endloop
   endfacet
   facet normal -9.182422e-001 -3.960194e-001 0.000000e+000
      outer loop
         vertex 1.800503e+001 2.074063e+001 2.035000e+002
         vertex 1.800503e+001 2.074063e+001 3.550000e+001
         vertex 1.818551e+001 2.035358e+001 3.550000e+001
      endloop
   endfacet
   facet normal -8.936031e-001 -4.488580e-001 0.000000e+000
      outer loop
         vertex 1.800503e+001 2.074063e+001 2.035000e+002
         vertex 1.818551e+001 2.035358e+001 3.550000e+001
         vertex 1.818551e+001 2.035358e+001 2.035000e+002
      endloop
   endfacet
   facet normal -8.355240e-001 -5.494540e-001 0.000000e+000
      outer loop
         vertex 1.818551e+001 2.035358e+001 2.035000e+002
         vertex 1.818551e+001 2.035358e+001 3.550000e+001
         vertex 1.843047e+001 2.000375e+001 3.550000e+001
      endloop
   endfacet
   facet normal -8.020839e-001 -5.972114e-001 0.000000e+000
      outer loop
         vertex 1.818551e+001 2.035358e+001 2.035000e+002
         vertex 1.843047e+001 2.000375e+001 3.550000e+001
         vertex 1.843047e+001 2.000375e+001 2.035000e+002
      endloop
   endfacet
   facet normal -7.274188e-001 -6.861938e-001 0.000000e+000
      outer loop
         vertex 1.843047e+001 2.000375e+001 2.035000e+002
         vertex 1.843047e+001 2.000375e+001 3.550000e+001
         vertex 1.873244e+001 1.970177e+001 3.550000e+001
      endloop
   endfacet
   facet normal -6.861938e-001 -7.274188e-001 0.000000e+000
      outer loop
         vertex 1.843047e+001 2.000375e+001 2.035000e+002
         vertex 1.873244e+001 1.970177e+001 3.550000e+001
         vertex 1.873244e+001 1.970177e+001 2.035000e+002
      endloop
   endfacet
   facet normal -5.972114e-001 -8.020839e-001 0.000000e+000
      outer loop
         vertex 1.873244e+001 1.970177e+001 2.035000e+002
         vertex 1.873244e+001 1.970177e+001 3.550000e+001
         vertex 1.908228e+001 1.945682e+001 3.550000e+001
      endloop
   endfacet
   facet normal -5.494540e-001 -8.355240e-001 0.000000e+000
      outer loop
         vertex 1.873244e+001 1.970177e+001 2.035000e+002
         vertex 1.908228e+001 1.945682e+001 3.550000e+001
         vertex 1.908228e+001 1.945682e+001 2.035000e+002
      endloop
   endfacet
   facet normal -4.488580e-001 -8.936031e-001 0.000000e+000
      outer loop
         vertex 1.908228e+001 1.945682e+001 2.035000e+002
         vertex 1.908228e+001 1.945682e+001 3.550000e+001
         vertex 1.946933e+001 1.927633e+001 3.550000e+001
      endloop
   endfacet
   facet normal -3.960194e-001 -9.182422e-001 0.000000e+000
      outer loop
         vertex 1.908228e+001 1.945682e+001 2.035000e+002
         vertex 1.946933e+001 1.927633e+001 3.550000e+001
         vertex 1.946933e+001 1.927633e+001 2.035000e+002
      endloop
   endfacet
   facet normal -2.868663e-001 -9.579706e-001 0.000000e+000
      outer loop
         vertex 1.946933e+001 1.927633e+001 2.035000e+002
         vertex 1.946933e+001 1.927633e+001 3.550000e+001
         vertex 1.988184e+001 1.916580e+001 3.550000e+001
      endloop
   endfacet
   facet normal -2.305519e-001 -9.730600e-001 0.000000e+000
      outer loop
         vertex 1.946933e+001 1.927633e+001 2.035000e+002
         vertex 1.988184e+001 1.916580e+001 3.550000e+001
         vertex 1.988184e+001 1.916580e+001 2.035000e+002
      endloop
   endfacet
   facet normal -1.161583e-001 -9.932307e-001 0.000000e+000
      outer loop
         vertex 1.988184e+001 1.916580e+001 2.035000e+002
         vertex 1.988184e+001 1.916580e+001 3.550000e+001
         vertex 2.030727e+001 1.912858e+001 3.550000e+001
      endloop
   endfacet
   facet normal -5.807914e-002 -9.983120e-001 0.000000e+000
      outer loop
         vertex 1.988184e+001 1.916580e+001 2.035000e+002
         vertex 2.030727e+001 1.912858e+001 3.550000e+001
         vertex 2.030727e+001 1.912858e+001 2.035000e+002
      endloop
   endfacet
   facet normal 5.807914e-002 -9.983120e-001 0.000000e+000
      outer loop
         vertex 2.030727e+001 1.912858e+001 2.035000e+002
         vertex 2.030727e+001 1.912858e+001 3.550000e+001
         vertex 2.073271e+001 1.916580e+001 3.550000e+001
      endloop
   endfacet
   facet normal 1.161583e-001 -9.932307e-001 0.000000e+000
      outer loop
         vertex 2.030727e+001 1.912858e+001 2.035000e+002
         vertex 2.073271e+001 1.916580e+001 3.550000e+001
         vertex 2.073271e+001 1.916580e+001 2.035000e+002
      endloop
   endfacet
   facet normal 2.305519e-001 -9.730600e-001 0.000000e+000
      outer loop
         vertex 2.073271e+001 1.916580e+001 2.035000e+002
         vertex 2.073271e+001 1.916580e+001 3.550000e+001
         vertex 2.114523e+001 1.927633e+001 3.550000e+001
      endloop
   endfacet
   facet normal 2.868663e-001 -9.579706e-001 0.000000e+000
      outer loop
         vertex 2.073271e+001 1.916580e+001 2.035000e+002
         vertex 2.114523e+001 1.927633e+001 3.550000e+001
         vertex 2.114523e+001 1.927633e+001 2.035000e+002
      endloop
   endfacet
   facet normal 3.960194e-001 -9.182422e-001 0.000000e+000
      outer loop
         vertex 2.114523e+001 1.927633e+001 2.035000e+002
         vertex 2.114523e+001 1.927633e+001 3.550000e+001
         vertex 2.153227e+001 1.945682e+001 3.550000e+001
      endloop
   endfacet
   facet normal 4.488580e-001 -8.936031e-001 0.000000e+000
      outer loop
         vertex 2.114523e+001 1.927633e+001 2.035000e+002
         vertex 2.153227e+001 1.945682e+001 3.550000e+001
         vertex 2.153227e+001 1.945682e+001 2.035000e+002
      endloop
   endfacet
   facet normal 5.494540e-001 -8.355240e-001 0.000000e+000
      outer loop
         vertex 2.153227e+001 1.945682e+001 2.035000e+002
         vertex 2.153227e+001 1.945682e+001 3.550000e+001
         vertex 2.188210e+001 1.970177e+001 3.550000e+001
      endloop
   endfacet
   facet normal 5.972114e-001 -8.020839e-001 0.000000e+000
      outer loop
         vertex 2.153227e+001 1.945682e+001 2.035000e+002
         vertex 2.188210e+001 1.970177e+001 3.550000e+001
         vertex 2.188210e+001 1.970177e+001 2.035000e+002
      endloop
   endfacet
   facet normal 6.861938e-001 -7.274188e-001 0.000000e+000
      outer loop
         vertex 2.188210e+001 1.970177e+001 2.035000e+002
         vertex 2.188210e+001 1.970177e+001 3.550000e+001
         vertex 2.218409e+001 2.000375e+001 3.550000e+001
      endloop
   endfacet
   facet normal 7.274188e-001 -6.861938e-001 0.000000e+000
      outer loop
         vertex 2.188210e+001 1.970177e+001 2.035000e+002
         vertex 2.218409e+001 2.000375e+001 3.550000e+001
         vertex 2.218409e+001 2.000375e+001 2.035000e+002
      endloop
   endfacet
   facet normal 8.020839e-001 -5.972114e-001 0.000000e+000
      outer loop
         vertex 2.218409e+001 2.000375e+001 2.035000e+002
         vertex 2.218409e+001 2.000375e+001 3.550000e+001
         vertex 2.242904e+001 2.035358e+001 3.550000e+001
      endloop
   endfacet
   facet normal 8.355240e-001 -5.494540e-001 0.000000e+000
      outer loop
         vertex 2.218409e+001 2.000375e+001 2.035000e+002
         vertex 2.242904e+001 2.035358e+001 3.550000e+001
         vertex 2.242904e+001 2.035358e+001 2.035000e+002
      endloop
   endfacet
   facet normal 8.936031e-001 -4.488580e-001 0.000000e+000
      outer loop
         vertex 2.242904e+001 2.035358e+001 2.035000e+002
         vertex 2.242904e+001 2.035358e+001 3.550000e+001
         vertex 2.260952e+001 2.074063e+001 3.550000e+001
      endloop
   endfacet
   facet normal 9.182422e-001 -3.960194e-001 0.000000e+000
      outer loop
         vertex 2.242904e+001 2.035358e+001 2.035000e+002
         vertex 2.260952e+001 2.074063e+001 3.550000e+001
         vertex 2.260952e+001 2.074063e+001 2.035000e+002
      endloop
   endfacet
   facet normal 9.579706e-001 -2.868663e-001 0.000000e+000
      outer loop
         vertex 2.260952e+001 2.074063e+001 2.035000e+002
         vertex 2.260952e+001 2.074063e+001 3.550000e+001
         vertex 2.272005e+001 2.115314e+001 3.550000e+001
      endloop
   endfacet
   facet normal 9.730600e-001 -2.305519e-001 0.000000e+000
      outer loop
         vertex 2.260952e+001 2.074063e+001 2.035000e+002
         vertex 2.272005e+001 2.115314e+001 3.550000e+001
         vertex 2.272005e+001 2.115314e+001 2.035000e+002
      endloop
   endfacet
   facet normal 9.932307e-001 -1.161583e-001 0.000000e+000
      outer loop
         vertex 2.272005e+001 2.115314e+001 2.035000e+002
         vertex 2.272005e+001 2.115314e+001 3.550000e+001
         vertex 2.275727e+001 2.157858e+001 3.550000e+001
      endloop
   endfacet
   facet normal 9.983120e-001 -5.807914e-002 0.000000e+000
      outer loop
         vertex 2.272005e+001 2.115314e+001 2.035000e+002
         vertex 2.275727e+001 2.157858e+001 3.550000e+001
         vertex 2.275727e+001 2.157858e+001 2.035000e+002
      endloop
   endfacet
   facet normal 9.983120e-001 5.807914e-002 0.000000e+000
      outer loop
         vertex 2.275727e+001 2.157858e+001 2.035000e+002
         vertex 2.275727e+001 2.157858e+001 3.550000e+001
         vertex 2.272005e+001 2.200401e+001 3.550000e+001
      endloop
   endfacet
   facet normal 9.932307e-001 1.161583e-001 0.000000e+000
      outer loop
         vertex 2.275727e+001 2.157858e+001 2.035000e+002
         vertex 2.272005e+001 2.200401e+001 3.550000e+001
         vertex 2.272005e+001 2.200401e+001 2.035000e+002
      endloop
   endfacet
   facet normal 9.730600e-001 2.305519e-001 0.000000e+000
      outer loop
         vertex 2.272005e+001 2.200401e+001 2.035000e+002
         vertex 2.272005e+001 2.200401e+001 3.550000e+001
         vertex 2.260952e+001 2.241653e+001 3.550000e+001
      endloop
   endfacet
   facet normal 9.579706e-001 2.868663e-001 0.000000e+000
      outer loop
         vertex 2.272005e+001 2.200401e+001 2.035000e+002
         vertex 2.260952e+001 2.241653e+001 3.550000e+001
         vertex 2.260952e+001 2.241653e+001 2.035000e+002
      endloop
   endfacet
   facet normal 9.182422e-001 3.960194e-001 0.000000e+000
      outer loop
         vertex 2.260952e+001 2.241653e+001 2.035000e+002
         vertex 2.260952e+001 2.241653e+001 3.550000e+001
         vertex 2.242904e+001 2.280358e+001 3.550000e+001
      endloop
   endfacet
   facet normal 8.936031e-001 4.488580e-001 0.000000e+000
      outer loop
         vertex 2.260952e+001 2.241653e+001 2.035000e+002
         vertex 2.242904e+001 2.280358e+001 3.550000e+001
         vertex 2.242904e+001 2.280358e+001 2.035000e+002
      endloop
   endfacet
   facet normal 8.355240e-001 5.494540e-001 0.000000e+000
      outer loop
         vertex 2.242904e+001 2.280358e+001 2.035000e+002
         vertex 2.242904e+001 2.280358e+001 3.550000e+001
         vertex 2.218409e+001 2.315341e+001 3.550000e+001
      endloop
   endfacet
   facet normal 8.020839e-001 5.972114e-001 0.000000e+000
      outer loop
         vertex 2.242904e+001 2.280358e+001 2.035000e+002
         vertex 2.218409e+001 2.315341e+001 3.550000e+001
         vertex 2.218409e+001 2.315341e+001 2.035000e+002
      endloop
   endfacet
   facet normal 7.274188e-001 6.861938e-001 0.000000e+000
      outer loop
         vertex 2.218409e+001 2.315341e+001 2.035000e+002
         vertex 2.218409e+001 2.315341e+001 3.550000e+001
         vertex 2.188210e+001 2.345539e+001 3.550000e+001
      endloop
   endfacet
   facet normal 6.861938e-001 7.274188e-001 0.000000e+000
      outer loop
         vertex 2.218409e+001 2.315341e+001 2.035000e+002
         vertex 2.188210e+001 2.345539e+001 3.550000e+001
         vertex 2.188210e+001 2.345539e+001 2.035000e+002
      endloop
   endfacet
   facet normal 5.972114e-001 8.020839e-001 0.000000e+000
      outer loop
         vertex 2.188210e+001 2.345539e+001 2.035000e+002
         vertex 2.188210e+001 2.345539e+001 3.550000e+001
         vertex 2.153227e+001 2.370034e+001 3.550000e+001
      endloop
   endfacet
   facet normal 5.494540e-001 8.355240e-001 0.000000e+000
      outer loop
         vertex 2.188210e+001 2.345539e+001 2.035000e+002
         vertex 2.153227e+001 2.370034e+001 3.550000e+001
         vertex 2.153227e+001 2.370034e+001 2.035000e+002
      endloop
   endfacet
   facet normal 4.488580e-001 8.936031e-001 0.000000e+000
      outer loop
         vertex 2.153227e+001 2.370034e+001 2.035000e+002
         vertex 2.153227e+001 2.370034e+001 3.550000e+001
         vertex 2.114523e+001 2.388082e+001 3.550000e+001
      endloop
   endfacet
   facet normal 3.960194e-001 9.182422e-001 0.000000e+000
      outer loop
         vertex 2.153227e+001 2.370034e+001 2.035000e+002
         vertex 2.114523e+001 2.388082e+001 3.550000e+001
         vertex 2.114523e+001 2.388082e+001 2.035000e+002
      endloop
   endfacet
   facet normal 2.868663e-001 9.579706e-001 0.000000e+000
      outer loop
         vertex 2.114523e+001 2.388082e+001 2.035000e+002
         vertex 2.114523e+001 2.388082e+001 3.550000e+001
         vertex 2.073271e+001 2.399136e+001 3.550000e+001
      endloop
   endfacet
   facet normal 2.305519e-001 9.730600e-001 0.000000e+000
      outer loop
         vertex 2.114523e+001 2.388082e+001 2.035000e+002
         vertex 2.073271e+001 2.399136e+001 3.550000e+001
         vertex 2.073271e+001 2.399136e+001 2.035000e+002
      endloop
   endfacet
   facet normal 1.161583e-001 9.932307e-001 0.000000e+000
      outer loop
         vertex 2.073271e+001 2.399136e+001 2.035000e+002
         vertex 2.073271e+001 2.399136e+001 3.550000e+001
         vertex 2.030727e+001 2.402858e+001 3.550000e+001
      endloop
   endfacet
   facet normal 5.807914e-002 9.983120e-001 0.000000e+000
      outer loop
         vertex 2.073271e+001 2.399136e+001 2.035000e+002
         vertex 2.030727e+001 2.402858e+001 3.550000e+001
         vertex 2.030727e+001 2.402858e+001 2.035000e+002
      endloop
   endfacet
   facet normal -5.807914e-002 9.983120e-001 0.000000e+000
      outer loop
         vertex 2.030727e+001 2.402858e+001 2.035000e+002
         vertex 2.030727e+001 2.402858e+001 3.550000e+001
         vertex 1.988184e+001 2.399136e+001 3.550000e+001
      endloop
   endfacet
   facet normal -1.161583e-001 9.932307e-001 0.000000e+000
      outer loop
         vertex 2.030727e+001 2.402858e+001 2.035000e+002
         vertex 1.988184e+001 2.399136e+001 3.550000e+001
         vertex 1.988184e+001 2.399136e+001 2.035000e+002
      endloop
   endfacet
   facet normal -2.305519e-001 9.730600e-001 0.000000e+000
      outer loop
         vertex 1.988184e+001 2.399136e+001 2.035000e+002
         vertex 1.988184e+001 2.399136e+001 3.550000e+001
         vertex 1.946933e+001 2.388082e+001 3.550000e+001
      endloop
   endfacet
   facet normal -2.868663e-001 9.579706e-001 0.000000e+000
      outer loop
         vertex 1.988184e+001 2.399136e+001 2.035000e+002
         vertex 1.946933e+001 2.388082e+001 3.550000e+001
         vertex 1.946933e+001 2.388082e+001 2.035000e+002
      endloop
   endfacet
   facet normal -3.960194e-001 9.182422e-001 0.000000e+000
      outer loop
         vertex 1.946933e+001 2.388082e+001 2.035000e+002
         vertex 1.946933e+001 2.388082e+001 3.550000e+001
         vertex 1.908228e+001 2.370034e+001 3.550000e+001
      endloop
   endfacet
   facet normal -4.488580e-001 8.936031e-001 0.000000e+000
      outer loop
         vertex 1.946933e+001 2.388082e+001 2.035000e+002
         vertex 1.908228e+001 2.370034e+001 3.550000e+001
         vertex 1.908228e+001 2.370034e+001 2.035000e+002
      endloop
   endfacet
   facet normal -5.494540e-001 8.355240e-001 0.000000e+000
      outer loop
         vertex 1.908228e+001 2.370034e+001 2.035000e+002
         vertex 1.908228e+001 2.370034e+001 3.550000e+001
         vertex 1.873244e+001 2.345539e+001 3.550000e+001
      endloop
   endfacet
   facet normal -5.972114e-001 8.020839e-001 0.000000e+000
      outer loop
         vertex 1.908228e+001 2.370034e+001 2.035000e+002
         vertex 1.873244e+001 2.345539e+001 3.550000e+001
         vertex 1.873244e+001 2.345539e+001 2.035000e+002
      endloop
   endfacet
   facet normal -6.861938e-001 7.274188e-001 0.000000e+000
      outer loop
         vertex 1.873244e+001 2.345539e+001 2.035000e+002
         vertex 1.873244e+001 2.345539e+001 3.550000e+001
         vertex 1.843047e+001 2.315341e+001 3.550000e+001
      endloop
   endfacet
   facet normal -7.274188e-001 6.861938e-001 0.000000e+000
      outer loop
         vertex 1.873244e+001 2.345539e+001 2.035000e+002
         vertex 1.843047e+001 2.315341e+001 3.550000e+001
         vertex 1.843047e+001 2.315341e+001 2.035000e+002
      endloop
   endfacet
   facet normal -8.020839e-001 5.972114e-001 0.000000e+000
      outer loop
         vertex 1.843047e+001 2.315341e+001 2.035000e+002
         vertex 1.843047e+001 2.315341e+001 3.550000e+001
         vertex 1.818551e+001 2.280358e+001 3.550000e+001
      endloop
   endfacet
   facet normal -8.355240e-001 5.494540e-001 0.000000e+000
      outer loop
         vertex 1.843047e+001 2.315341e+001 2.035000e+002
         vertex 1.818551e+001 2.280358e+001 3.550000e+001
         vertex 1.818551e+001 2.280358e+001 2.035000e+002
      endloop
   endfacet
   facet normal -8.936031e-001 4.488580e-001 0.000000e+000
      outer loop
         vertex 1.818551e+001 2.280358e+001 2.035000e+002
         vertex 1.818551e+001 2.280358e+001 3.550000e+001
         vertex 1.800503e+001 2.241653e+001 3.550000e+001
      endloop
   endfacet
   facet normal -9.182422e-001 3.960194e-001 0.000000e+000
      outer loop
         vertex 1.818551e+001 2.280358e+001 2.035000e+002
         vertex 1.800503e+001 2.241653e+001 3.550000e+001
         vertex 1.800503e+001 2.241653e+001 2.035000e+002
      endloop
   endfacet
   facet normal -9.579706e-001 2.868663e-001 0.000000e+000
      outer loop
         vertex 1.800503e+001 2.241653e+001 2.035000e+002
         vertex 1.800503e+001 2.241653e+001 3.550000e+001
         vertex 1.789450e+001 2.200401e+001 3.550000e+001
      endloop
   endfacet
   facet normal -9.730600e-001 2.305519e-001 0.000000e+000
      outer loop
         vertex 1.800503e+001 2.241653e+001 2.035000e+002
         vertex 1.789450e+001 2.200401e+001 3.550000e+001
         vertex 1.789450e+001 2.200401e+001 2.035000e+002
      endloop
   endfacet
   facet normal -9.932307e-001 1.161583e-001 0.000000e+000
      outer loop
         vertex 1.789450e+001 2.200401e+001 2.035000e+002
         vertex 1.789450e+001 2.200401e+001 3.550000e+001
         vertex 1.785728e+001 2.157858e+001 3.550000e+001
      endloop
   endfacet
   facet normal 0.000000e+000 0.000000e+000 1.000000e+000
      outer loop
         vertex 2.242904e+001 2.280358e+001 2.035000e+002
         vertex 2.218409e+001 2.315341e+001 2.035000e+002
         vertex 1.800503e+001 2.074063e+001 2.035000e+002
      endloop
   endfacet
   facet normal 0.000000e+000 0.000000e+000 1.000000e+000
      outer loop
         vertex 2.242904e+001 2.280358e+001 2.035000e+002
         vertex 1.800503e+001 2.074063e+001 2.035000e+002
         vertex 2.260952e+001 2.241653e+001 2.035000e+002
      endloop
   endfacet
   facet normal 0.000000e+000 0.000000e+000 1.000000e+000
      outer loop
         vertex 2.260952e+001 2.241653e+001 2.035000e+002
         vertex 1.800503e+001 2.074063e+001 2.035000e+002
         vertex 1.818551e+001 2.035358e+001 2.035000e+002
      endloop
   endfacet
   facet normal 0.000000e+000 0.000000e+000 1.000000e+000
      outer loop
         vertex 2.260952e+001 2.241653e+001 2.035000e+002
         vertex 1.818551e+001 2.035358e+001 2.035000e+002
         vertex 1.843047e+001 2.000375e+001 2.035000e+002
      endloop
   endfacet
   facet normal 0.000000e+000 0.000000e+000 1.000000e+000
      outer loop
         vertex 1.843047e+001 2.000375e+001 2.035000e+002
         vertex 1.873244e+001 1.970177e+001 2.035000e+002
         vertex 2.260952e+001 2.241653e+001 2.035000e+002
      endloop
   endfacet
   facet normal 0.000000e+000 0.000000e+000 1.000000e+000
      outer loop
         vertex 2.260952e+001 2.241653e+001 2.035000e+002
         vertex 1.873244e+001 1.970177e+001 2.035000e+002
         vertex 1.908228e+001 1.945682e+001 2.035000e+002
      endloop
   endfacet
   facet normal 0.000000e+000 0.000000e+000 1.000000e+000
      outer loop
         vertex 2.260952e+001 2.241653e+001 2.035000e+002
         vertex 1.908228e+001 1.945682e+001 2.035000e+002
         vertex 1.946933e+001 1.927633e+001 2.035000e+002
      endloop
   endfacet
   facet normal 0.000000e+000 0.000000e+000 1.000000e+000
      outer loop
         vertex 1.946933e+001 1.927633e+001 2.035000e+002
         vertex 1.988184e+001 1.916580e+001 2.035000e+002
         vertex 2.260952e+001 2.241653e+001 2.035000e+002
      endloop
   endfacet
   facet normal 0.000000e+000 0.000000e+000 1.000000e+000
      outer loop
         vertex 2.260952e+001 2.241653e+001 2.035000e+002
         vertex 1.988184e+001 1.916580e+001 2.035000e+002
         vertex 2.030727e+001 1.912858e+001 2.035000e+002
      endloop
   endfacet
   facet normal 0.000000e+000 0.000000e+000 1.000000e+000
      outer loop
         vertex 2.260952e+001 2.241653e+001 2.035000e+002
         vertex 2.030727e+001 1.912858e+001 2.035000e+002
         vertex 2.073271e+001 1.916580e+001 2.035000e+002
      endloop
   endfacet
   facet normal 0.000000e+000 0.000000e+000 1.000000e+000
      outer loop
         vertex 2.073271e+001 1.916580e+001 2.035000e+002
         vertex 2.114523e+001 1.927633e+001 2.035000e+002
         vertex 2.260952e+001 2.241653e+001 2.035000e+002
      endloop
   endfacet
   facet normal 0.000000e+000 0.000000e+000 1.000000e+000
      outer loop
         vertex 2.260952e+001 2.241653e+001 2.035000e+002
         vertex 2.114523e+001 1.927633e+001 2.035000e+002
         vertex 2.153227e+001 1.945682e+001 2.035000e+002
      endloop
   endfacet
   facet normal 0.000000e+000 0.000000e+000 1.000000e+000
      outer loop
         vertex 2.260952e+001 2.241653e+001 2.035000e+002
         vertex 2.153227e+001 1.945682e+001 2.035000e+002
         vertex 2.188210e+001 1.970177e+001 2.035000e+002
      endloop
   endfacet
   facet normal 0.000000e+000 0.000000e+000 1.000000e+000
      outer loop
         vertex 2.218409e+001 2.315341e+001 2.035000e+002
         vertex 2.188210e+001 2.345539e+001 2.035000e+002
         vertex 1.800503e+001 2.074063e+001 2.035000e+002
      endloop
   endfacet
   facet normal 0.000000e+000 0.000000e+000 1.000000e+000
      outer loop
         vertex 1.800503e+001 2.074063e+001 2.035000e+002
         vertex 2.188210e+001 2.345539e+001 2.035000e+002
         vertex 2.153227e+001 2.370034e+001 2.035000e+002
      endloop
   endfacet
   facet normal 0.000000e+000 0.000000e+000 1.000000e+000
      outer loop
         vertex 1.800503e+001 2.074063e+001 2.035000e+002
         vertex 2.153227e+001 2.370034e+001 2.035000e+002
         vertex 2.114523e+001 2.388082e+001 2.035000e+002
      endloop
   endfacet
   facet normal 0.000000e+000 0.000000e+000 1.000000e+000
      outer loop
         vertex 2.114523e+001 2.388082e+001 2.035000e+002
         vertex 2.073271e+001 2.399136e+001 2.035000e+002
         vertex 1.800503e+001 2.074063e+001 2.035000e+002
      endloop
   endfacet
   facet normal 0.000000e+000 0.000000e+000 1.000000e+000
      outer loop
         vertex 1.800503e+001 2.074063e+001 2.035000e+002
         vertex 2.073271e+001 2.399136e+001 2.035000e+002
         vertex 2.030727e+001 2.402858e+001 2.035000e+002
      endloop
   endfacet
   facet normal 0.000000e+000 0.000000e+000 1.000000e+000
      outer loop
         vertex 1.800503e+001 2.074063e+001 2.035000e+002
         vertex 2.030727e+001 2.402858e+001 2.035000e+002
         vertex 1.988184e+001 2.399136e+001 2.035000e+002
      endloop
   endfacet
   facet normal 0.000000e+000 0.000000e+000 1.000000e+000
      outer loop
         vertex 1.988184e+001 2.399136e+001 2.035000e+002
         vertex 1.946933e+001 2.388082e+001 2.035000e+002
         vertex 1.800503e+001 2.074063e+001 2.035000e+002
      endloop
   endfacet
   facet normal 0.000000e+000 0.000000e+000 1.000000e+000
      outer loop
         vertex 1.800503e+001 2.074063e+001 2.035000e+002
         vertex 1.946933e+001 2.388082e+001 2.035000e+002
         vertex 1.908228e+001 2.370034e+001 2.035000e+002
      endloop
   endfacet
   facet normal 0.000000e+000 0.000000e+000 1.000000e+000
      outer loop
         vertex 1.800503e+001 2.074063e+001 2.035000e+002
         vertex 1.908228e+001 2.370034e+001 2.035000e+002
         vertex 1.789450e+001 2.115314e+001 2.035000e+002
      endloop
   endfacet
   facet normal 0.000000e+000 0.000000e+000 1.000000e+000
      outer loop
         vertex 2.188210e+001 1.970177e+001 2.035000e+002
         vertex 2.218409e+001 2.000375e+001 2.035000e+002
         vertex 2.260952e+001 2.241653e+001 2.035000e+002
      endloop
   endfacet
   facet normal 0.000000e+000 0.000000e+000 1.000000e+000
      outer loop
         vertex 2.260952e+001 2.241653e+001 2.035000e+002
         vertex 2.218409e+001 2.000375e+001 2.035000e+002
         vertex 2.242904e+001 2.035358e+001 2.035000e+002
      endloop
   endfacet
   facet normal 0.000000e+000 0.000000e+000 1.000000e+000
      outer loop
         vertex 2.260952e+001 2.241653e+001 2.035000e+002
         vertex 2.242904e+001 2.035358e+001 2.035000e+002
         vertex 2.260952e+001 2.074063e+001 2.035000e+002
      endloop
   endfacet
   facet normal 0.000000e+000 0.000000e+000 1.000000e+000
      outer loop
         vertex 2.260952e+001 2.074063e+001 2.035000e+002
         vertex 2.272005e+001 2.115314e+001 2.035000e+002
         vertex 2.260952e+001 2.241653e+001 2.035000e+002
      endloop
   endfacet
   facet normal 0.000000e+000 0.000000e+000 1.000000e+000
      outer loop
         vertex 2.260952e+001 2.241653e+001 2.035000e+002
         vertex 2.272005e+001 2.115314e+001 2.035000e+002
         vertex 2.275727e+001 2.157858e+001 2.035000e+002
      endloop
   endfacet
   facet normal 0.000000e+000 0.000000e+000 1.000000e+000
      outer loop
         vertex 2.260952e+001 2.241653e+001 2.035000e+002
         vertex 2.275727e+001 2.157858e+001 2.035000e+002
         vertex 2.272005e+001 2.200401e+001 2.035000e+002
      endloop
   endfacet
   facet normal 0.000000e+000 0.000000e+000 1.000000e+000
      outer loop
         vertex 1.789450e+001 2.115314e+001 2.035000e+002
         vertex 1.908228e+001 2.370034e+001 2.035000e+002
         vertex 1.785728e+001 2.157858e+001 2.035000e+002
      endloop
   endfacet
   facet normal 0.000000e+000 0.000000e+000 1.000000e+000
      outer loop
         vertex 1.785728e+001 2.157858e+001 2.035000e+002
         vertex 1.908228e+001 2.370034e+001 2.035000e+002
         vertex 1.873244e+001 2.345539e+001 2.035000e+002
      endloop
   endfacet
   facet normal 0.000000e+000 0.000000e+000 1.000000e+000
      outer loop
         vertex 1.785728e+001 2.157858e+001 2.035000e+002
         vertex 1.873244e+001 2.345539e+001 2.035000e+002
         vertex 1.843047e+001 2.315341e+001 2.035000e+002
      endloop
   endfacet
   facet normal 0.000000e+000 0.000000e+000 1.000000e+000
      outer loop
         vertex 1.843047e+001 2.315341e+001 2.035000e+002
         vertex 1.818551e+001 2.280358e+001 2.035000e+002
         vertex 1.785728e+001 2.157858e+001 2.035000e+002
      endloop
   endfacet
   facet normal 0.000000e+000 0.000000e+000 1.000000e+000
      outer loop
         vertex 1.785728e+001 2.157858e+001 2.035000e+002
         vertex 1.818551e+001 2.280358e+001 2.035000e+002
         vertex 1.800503e+001 2.241653e+001 2.035000e+002
      endloop
   endfacet
   facet normal 0.000000e+000 0.000000e+000 1.000000e+000
      outer loop
         vertex 1.785728e+001 2.157858e+001 2.035000e+002
         vertex 1.800503e+001 2.241653e+001 2.035000e+002
         vertex 1.789450e+001 2.200401e+001 2.035000e+002
      endloop
   endfacet
   facet normal 0.000000e+000 0.000000e+000 -1.000000e+000
      outer loop
         vertex 2.073271e+001 1.916580e+001 3.550000e+001
         vertex 2.030727e+001 1.912858e+001 3.550000e+001
         vertex 2.260952e+001 2.241653e+001 3.550000e+001
      endloop
   endfacet
   facet normal 0.000000e+000 0.000000e+000 -1.000000e+000
      outer loop
         vertex 1.789450e+001 2.115314e+001 3.550000e+001
         vertex 1.785728e+001 2.157858e+001 3.550000e+001
         vertex 2.153227e+001 2.370034e+001 3.550000e+001
      endloop
   endfacet
   facet normal 0.000000e+000 0.000000e+000 -1.000000e+000
      outer loop
         vertex 1.789450e+001 2.115314e+001 3.550000e+001
         vertex 2.153227e+001 2.370034e+001 3.550000e+001
         vertex 1.800503e+001 2.074063e+001 3.550000e+001
      endloop
   endfacet
   facet normal 0.000000e+000 0.000000e+000 -1.000000e+000
      outer loop
         vertex 1.800503e+001 2.074063e+001 3.550000e+001
         vertex 2.153227e+001 2.370034e+001 3.550000e+001
         vertex 2.188210e+001 2.345539e+001 3.550000e+001
      endloop
   endfacet
   facet normal 0.000000e+000 0.000000e+000 -1.000000e+000
      outer loop
         vertex 1.800503e+001 2.074063e+001 3.550000e+001
         vertex 2.188210e+001 2.345539e+001 3.550000e+001
         vertex 2.218409e+001 2.315341e+001 3.550000e+001
      endloop
   endfacet
   facet normal 0.000000e+000 0.000000e+000 -1.000000e+000
      outer loop
         vertex 2.218409e+001 2.315341e+001 3.550000e+001
         vertex 2.242904e+001 2.280358e+001 3.550000e+001
         vertex 1.800503e+001 2.074063e+001 3.550000e+001
      endloop
   endfacet
   facet normal 0.000000e+000 0.000000e+000 -1.000000e+000
      outer loop
         vertex 1.800503e+001 2.074063e+001 3.550000e+001
         vertex 2.242904e+001 2.280358e+001 3.550000e+001
         vertex 2.260952e+001 2.241653e+001 3.550000e+001
      endloop
   endfacet
   facet normal 0.000000e+000 0.000000e+000 -1.000000e+000
      outer loop
         vertex 1.800503e+001 2.074063e+001 3.550000e+001
         vertex 2.260952e+001 2.241653e+001 3.550000e+001
         vertex 1.818551e+001 2.035358e+001 3.550000e+001
      endloop
   endfacet
   facet normal 0.000000e+000 0.000000e+000 -1.000000e+000
      outer loop
         vertex 2.272005e+001 2.200401e+001 3.550000e+001
         vertex 2.275727e+001 2.157858e+001 3.550000e+001
         vertex 2.153227e+001 1.945682e+001 3.550000e+001
      endloop
   endfacet
   facet normal 0.000000e+000 0.000000e+000 -1.000000e+000
      outer loop
         vertex 2.153227e+001 1.945682e+001 3.550000e+001
         vertex 2.275727e+001 2.157858e+001 3.550000e+001
         vertex 2.272005e+001 2.115314e+001 3.550000e+001
      endloop
   endfacet
   facet normal 0.000000e+000 0.000000e+000 -1.000000e+000
      outer loop
         vertex 2.272005e+001 2.200401e+001 3.550000e+001
         vertex 2.153227e+001 1.945682e+001 3.550000e+001
         vertex 2.260952e+001 2.241653e+001 3.550000e+001
      endloop
   endfacet
   facet normal 0.000000e+000 0.000000e+000 -1.000000e+000
      outer loop
         vertex 2.260952e+001 2.241653e+001 3.550000e+001
         vertex 2.153227e+001 1.945682e+001 3.550000e+001
         vertex 2.114523e+001 1.927633e+001 3.550000e+001
      endloop
   endfacet
   facet normal 0.000000e+000 0.000000e+000 -1.000000e+000
      outer loop
         vertex 2.260952e+001 2.241653e+001 3.550000e+001
         vertex 2.114523e+001 1.927633e+001 3.550000e+001
         vertex 2.073271e+001 1.916580e+001 3.550000e+001
      endloop
   endfacet
   facet normal 0.000000e+000 0.000000e+000 -1.000000e+000
      outer loop
         vertex 2.030727e+001 1.912858e+001 3.550000e+001
         vertex 1.988184e+001 1.916580e+001 3.550000e+001
         vertex 2.260952e+001 2.241653e+001 3.550000e+001
      endloop
   endfacet
   facet normal 0.000000e+000 0.000000e+000 -1.000000e+000
      outer loop
         vertex 2.260952e+001 2.241653e+001 3.550000e+001
         vertex 1.988184e+001 1.916580e+001 3.550000e+001
         vertex 1.946933e+001 1.927633e+001 3.550000e+001
      endloop
   endfacet
   facet normal 0.000000e+000 0.000000e+000 -1.000000e+000
      outer loop
         vertex 2.260952e+001 2.241653e+001 3.550000e+001
         vertex 1.946933e+001 1.927633e+001 3.550000e+001
         vertex 1.908228e+001 1.945682e+001 3.550000e+001
      endloop
   endfacet
   facet normal 0.000000e+000 0.000000e+000 -1.000000e+000
      outer loop
         vertex 1.785728e+001 2.157858e+001 3.550000e+001
         vertex 1.789450e+001 2.200401e+001 3.550000e+001
         vertex 2.153227e+001 2.370034e+001 3.550000e+001
      endloop
   endfacet
   facet normal 0.000000e+000 0.000000e+000 -1.000000e+000
      outer loop
         vertex 2.153227e+001 2.370034e+001 3.550000e+001
         vertex 1.789450e+001 2.200401e+001 3.550000e+001
         vertex 1.800503e+001 2.241653e+001 3.550000e+001
      endloop
   endfacet
   facet normal 0.000000e+000 0.000000e+000 -1.000000e+000
      outer loop
         vertex 2.153227e+001 2.370034e+001 3.550000e+001
         vertex 1.800503e+001 2.241653e+001 3.550000e+001
         vertex 1.818551e+001 2.280358e+001 3.550000e+001
      endloop
   endfacet
   facet normal 0.000000e+000 0.000000e+000 -1.000000e+000
      outer loop
         vertex 2.030727e+001 2.402858e+001 3.550000e+001
         vertex 1.908228e+001 2.370034e+001 3.550000e+001
         vertex 1.988184e+001 2.399136e+001 3.550000e+001
      endloop
   endfacet
   facet normal 0.000000e+000 0.000000e+000 -1.000000e+000
      outer loop
         vertex 1.988184e+001 2.399136e+001 3.550000e+001
         vertex 1.908228e+001 2.370034e+001 3.550000e+001
         vertex 1.946933e+001 2.388082e+001 3.550000e+001
      endloop
   endfacet
   facet normal 0.000000e+000 0.000000e+000 -1.000000e+000
      outer loop
         vertex 1.908228e+001 1.945682e+001 3.550000e+001
         vertex 1.873244e+001 1.970177e+001 3.550000e+001
         vertex 2.260952e+001 2.241653e+001 3.550000e+001
      endloop
   endfacet
   facet normal 0.000000e+000 0.000000e+000 -1.000000e+000
      outer loop
         vertex 2.260952e+001 2.241653e+001 3.550000e+001
         vertex 1.873244e+001 1.970177e+001 3.550000e+001
         vertex 1.843047e+001 2.000375e+001 3.550000e+001
      endloop
   endfacet
   facet normal 0.000000e+000 0.000000e+000 -1.000000e+000
      outer loop
         vertex 2.260952e+001 2.241653e+001 3.550000e+001
         vertex 1.843047e+001 2.000375e+001 3.550000e+001
         vertex 1.818551e+001 2.035358e+001 3.550000e+001
      endloop
   endfacet
   facet normal 0.000000e+000 0.000000e+000 -1.000000e+000
      outer loop
         vertex 2.030727e+001 2.402858e+001 3.550000e+001
         vertex 2.073271e+001 2.399136e+001 3.550000e+001
         vertex 1.908228e+001 2.370034e+001 3.550000e+001
      endloop
   endfacet
   facet normal 0.000000e+000 0.000000e+000 -1.000000e+000
      outer loop
         vertex 1.908228e+001 2.370034e+001 3.550000e+001
         vertex 2.073271e+001 2.399136e+001 3.550000e+001
         vertex 2.114523e+001 2.388082e+001 3.550000e+001
      endloop
   endfacet
   facet normal 0.000000e+000 0.000000e+000 -1.000000e+000
      outer loop
         vertex 1.908228e+001 2.370034e+001 3.550000e+001
         vertex 2.114523e+001 2.388082e+001 3.550000e+001
         vertex 2.153227e+001 2.370034e+001 3.550000e+001
      endloop
   endfacet
   facet normal 0.000000e+000 0.000000e+000 -1.000000e+000
      outer loop
         vertex 2.272005e+001 2.115314e+001 3.550000e+001
         vertex 2.260952e+001 2.074063e+001 3.550000e+001
         vertex 2.153227e+001 1.945682e+001 3.550000e+001
      endloop
   endfacet
   facet normal 0.000000e+000 0.000000e+000 -1.000000e+000
      outer loop
         vertex 2.153227e+001 1.945682e+001 3.550000e+001
         vertex 2.260952e+001 2.074063e+001 3.550000e+001
         vertex 2.242904e+001 2.035358e+001 3.550000e+001
      endloop
   endfacet
   facet normal 0.000000e+000 0.000000e+000 -1.000000e+000
      outer loop
         vertex 2.153227e+001 1.945682e+001 3.550000e+001
         vertex 2.242904e+001 2.035358e+001 3.550000e+001
         vertex 2.188210e+001 1.970177e+001 3.550000e+001
      endloop
   endfacet
   facet normal 0.000000e+000 0.000000e+000 -1.000000e+000
      outer loop
         vertex 2.188210e+001 1.970177e+001 3.550000e+001
         vertex 2.242904e+001 2.035358e+001 3.550000e+001
         vertex 2.218409e+001 2.000375e+001 3.550000e+001
      endloop
   endfacet
   facet normal 0.000000e+000 0.000000e+000 -1.000000e+000
      outer loop
         vertex 1.818551e+001 2.280358e+001 3.550000e+001
         vertex 1.843047e+001 2.315341e+001 3.550000e+001
         vertex 2.153227e+001 2.370034e+001 3.550000e+001
      endloop
   endfacet
   facet normal 0.000000e+000 0.000000e+000 -1.000000e+000
      outer loop
         vertex 2.153227e+001 2.370034e+001 3.550000e+001
         vertex 1.843047e+001 2.315341e+001 3.550000e+001
         vertex 1.873244e+001 2.345539e+001 3.550000e+001
      endloop
   endfacet
   facet normal 0.000000e+000 0.000000e+000 -1.000000e+000
      outer loop
         vertex 2.153227e+001 2.370034e+001 3.550000e+001
         vertex 1.873244e+001 2.345539e+001 3.550000e+001
         vertex 1.908228e+001 2.370034e+001 3.550000e+001
      endloop
   endfacet
endsolid